<svg xmlns="http://www.w3.org/2000/svg" width="202" height="64" viewBox="0 0 202 64" fill="none">
  <path fill-rule="evenodd" clip-rule="evenodd" d="M88.0719 38.7641L86.3858 46.5963H82.5078L88.9149 18.2115H93.5088L99.5365 46.5963H95.6164L93.9725 38.7641H88.0719ZM93.5088 35.6054L92.2021 28.824C91.8227 26.8867 91.4433 24.3611 91.149 22.3389H90.9797C90.6853 24.4025 90.2624 27.013 89.8844 28.824L88.5356 35.6054H93.5088ZM114.339 17.4541V41.3325C114.339 42.8915 114.423 45.1657 114.507 46.597H111.093L110.84 44.1128H110.714C110.039 45.5441 108.48 46.9346 106.415 46.9346C102.621 46.9346 100.303 42.8065 100.303 36.4484C100.303 29.2045 103.379 25.7931 106.626 25.7931C108.269 25.7931 109.576 26.5519 110.292 28.1095H110.377V17.4541H114.339ZM110.376 33.9208C110.376 33.5424 110.376 33.0791 110.334 32.6566C110.123 30.8042 109.069 29.2038 107.637 29.2038C105.149 29.2038 104.307 32.6566 104.307 36.4477C104.307 40.6593 105.403 43.6067 107.51 43.6067C108.395 43.6067 109.575 43.1435 110.249 40.7014C110.334 40.3645 110.376 39.8584 110.376 39.3965V33.9208ZM123.777 46.9339C119.689 46.9339 116.737 43.4383 116.737 36.4063C116.737 28.9511 120.235 25.7924 123.987 25.7924C128.033 25.7924 130.941 29.4143 130.941 36.3214C130.941 44.4498 126.937 46.9339 123.818 46.9339H123.777ZM123.903 43.818C126.347 43.818 126.895 39.4801 126.895 36.3642C126.895 33.289 126.347 28.9097 123.819 28.9097C121.205 28.9097 120.7 33.289 120.7 36.3642C120.7 39.7749 121.29 43.818 123.861 43.818H123.903ZM133.33 17.4541H137.291V28.4457H137.376C138.43 26.5933 139.863 25.7924 141.675 25.7924C145.173 25.7924 147.366 29.7513 147.366 36.0266C147.366 43.354 144.373 46.9339 141.001 46.9339C138.977 46.9339 137.839 45.8382 136.953 44.0272H136.786L136.575 46.5963H133.161C133.246 45.2071 133.33 42.8908 133.33 41.3318V17.4541ZM137.291 39.3523C137.291 39.817 137.334 40.2803 137.46 40.6165C138.092 43.102 139.315 43.6067 140.115 43.6067C142.475 43.6067 143.361 40.4909 143.361 36.2793C143.361 32.3625 142.434 29.2038 140.073 29.2038C138.766 29.2038 137.712 30.7621 137.417 32.2361C137.333 32.6573 137.291 33.2055 137.291 33.6259V39.3523H137.291ZM153.212 37.163C153.254 42.4275 155.53 43.7324 157.933 43.7324C159.366 43.7324 160.588 43.3962 161.473 42.9743L162.063 45.8382C160.841 46.4699 158.986 46.8076 157.174 46.8076C152.032 46.8076 149.334 42.9329 149.334 36.6155C149.334 29.919 152.411 25.7917 156.668 25.7917C160.925 25.7917 162.906 29.8769 162.906 35.0158C162.906 36.0259 162.864 36.6583 162.822 37.2051L153.212 37.163ZM159.155 34.3419C159.197 30.7199 157.933 28.7833 156.374 28.7833C154.307 28.7833 153.38 31.7735 153.254 34.3419H159.155Z" fill="white"/>
  <path fill-rule="evenodd" clip-rule="evenodd" d="M60.1817 18.2871H72.0173V46.5961L60.1817 18.2871ZM51.844 18.2871H40V46.5961L51.844 18.2871ZM56.0136 28.7199L63.5546 46.5961H58.6129L56.3578 40.9027H50.838L56.0136 28.7199Z" fill="white"/>
</svg>