<svg xmlns="http://www.w3.org/2000/svg" width="202" height="64" viewBox="0 0 202 64" fill="none">
  <path d="M40.1836 7.27344L50.0715 10.7342V45.5018L63.9727 37.4606L57.1384 34.247L52.8343 23.5303L74.7622 31.2371V42.4336L50.0715 56.7129L40.1836 51.231V7.27344Z" fill="white"/>
  <path d="M106.115 33.3667C104.908 32.1016 103.308 31.3455 101.316 31.0837V31.0256C102.915 30.4875 104.181 29.6151 105.082 28.3646C105.998 27.1286 106.449 25.6599 106.449 23.9586C106.449 21.9374 105.693 20.3234 104.195 19.0583C102.683 17.7932 100.662 17.168 98.0733 17.168H89.625V46.8607H98.2769C101.054 46.8607 103.366 46.0755 105.184 44.5051C107.002 42.9347 107.918 40.8698 107.918 38.3397C107.903 36.333 107.307 34.6608 106.115 33.3667ZM93.0858 20.3525H97.0845C100.88 20.3525 102.77 21.792 102.77 24.6711C102.77 26.3434 102.218 27.623 101.127 28.5681C100.036 29.4842 98.5532 29.935 96.6192 29.935H93.0567V20.3525H93.0858ZM102.567 42.2949C101.447 43.2546 99.8619 43.7344 97.8116 43.7344H93.0858V33.0322H97.0845C101.869 33.0322 104.239 34.7772 104.239 38.2961C104.268 39.9974 103.686 41.3352 102.567 42.2949Z" fill="white"/>
  <path d="M114.081 20.9273C113.47 20.9273 112.961 20.7237 112.539 20.302C112.103 19.8658 111.914 19.3714 111.914 18.7316C111.914 18.1063 112.118 17.5683 112.539 17.1321C112.976 16.6959 113.47 16.5068 114.081 16.5068C114.706 16.5068 115.215 16.7104 115.68 17.1321C116.116 17.5683 116.335 18.0918 116.335 18.7316C116.335 19.3423 116.102 19.8513 115.68 20.273C115.215 20.6947 114.677 20.9273 114.081 20.9273Z" fill="white"/>
  <path d="M112.336 25.8135H115.724V46.8543H112.336V25.8135Z" fill="white"/>
  <path d="M138.8 46.8556H135.412V34.9174C135.412 30.4097 133.899 28.1704 130.613 28.1704C128.912 28.1704 127.501 28.7956 126.396 30.0898C125.291 31.3839 124.724 32.9689 124.724 34.9174V46.8556H121.336V25.8147H124.724V29.2609H124.797C126.396 26.5854 128.694 25.3203 131.631 25.3203C133.958 25.3203 135.732 26.0764 136.938 27.5742C138.174 29.0719 138.785 31.2385 138.785 34.074L138.8 46.8556Z" fill="white"/>
  <path d="M159.215 25.8146V28.7519H159.142C157.746 26.4544 155.798 25.3057 152.948 25.3057C149.938 25.3057 147.568 26.3672 145.837 28.4901C144.092 30.6131 143.234 33.4777 143.234 37.0839C143.234 40.2684 144.049 42.7985 145.634 44.6743C147.248 46.5646 149.371 47.3499 152.003 47.3499C155.245 47.3499 157.514 46.0412 159.128 43.322H159.2V45.6195C159.2 51.1596 156.598 53.8933 151.363 53.8933C147.844 53.8933 145.546 52.352 145.546 52.352L144.659 55.2602C146.637 56.249 148.775 56.7288 151.406 56.7288C158.866 56.7288 162.588 52.8318 162.588 45.0524V25.8146H159.215ZM159.215 37.2729C159.215 39.3959 158.604 41.1118 157.426 42.4786C156.234 43.8455 154.765 44.4998 152.875 44.4998C150.999 44.4998 149.487 43.7873 148.353 42.3768C147.219 40.9663 146.622 39.236 146.622 36.8803C146.622 34.1175 147.204 31.9945 148.396 30.4823C149.589 28.97 151.232 28.1993 153.326 28.1993C155.027 28.1993 156.336 28.8101 157.47 29.9879C158.604 31.1948 159.186 32.6489 159.186 34.3066V37.2438L159.215 37.2729Z" fill="white"/>
</svg>