<svg xmlns="http://www.w3.org/2000/svg" width="16" height="16" viewBox="0 0 16 16" fill="none">
  <path opacity="0.15" fill-rule="evenodd" clip-rule="evenodd" d="M8 16C12.4183 16 16 12.4183 16 8C16 3.58172 12.4183 0 8 0C3.58172 0 0 3.58172 0 8C0 12.4183 3.58172 16 8 16Z" fill="url(#paint0_linear_1_8015)"/>
  <path d="M6.93212 10.5495L4.75765 8.38801C4.69689 8.32725 4.6665 8.24913 4.6665 8.15364C4.6665 8.05815 4.69689 7.98003 4.75765 7.91927L5.23942 7.45052C5.30018 7.38107 5.37614 7.34635 5.46728 7.34635C5.55843 7.34635 5.63872 7.38107 5.70817 7.45052L7.1665 8.90885L10.2915 5.78385C10.3609 5.71441 10.4412 5.67969 10.5324 5.67969C10.6235 5.67969 10.6995 5.71441 10.7602 5.78385L11.242 6.2526C11.3028 6.31337 11.3332 6.39149 11.3332 6.48698C11.3332 6.58246 11.3028 6.66059 11.242 6.72135L7.40087 10.5495C7.34011 10.6189 7.26198 10.6536 7.1665 10.6536C7.07101 10.6536 6.99289 10.6189 6.93212 10.5495Z" fill="url(#paint1_linear_1_8015)"/>
  <defs>
    <linearGradient id="paint0_linear_1_8015" x1="-1.74442e-09" y1="10.9677" x2="16.0604" y2="10.5938" gradientUnits="userSpaceOnUse">
      <stop stop-color="#4139AB"/>
      <stop offset="1" stop-color="#7315D0"/>
    </linearGradient>
    <linearGradient id="paint1_linear_1_8015" x1="4.6665" y1="9.08925" x2="11.3554" y2="8.88052" gradientUnits="userSpaceOnUse">
      <stop stop-color="#4139AB"/>
      <stop offset="1" stop-color="#7315D0"/>
    </linearGradient>
  </defs>
</svg>