<svg xmlns="http://www.w3.org/2000/svg" width="202" height="64" viewBox="0 0 202 64" fill="none">
  <path d="M35.7055 46.0968H30.0418V31.978H26.1836V27.3812H30.0416V24.1102C30.0416 20.2341 31.7481 17.4542 37.3964 17.4542C38.591 17.4542 40.4665 17.695 40.4665 17.695V21.9634H38.4966C36.4895 21.9634 35.7058 22.5739 35.7058 24.2619V27.3812H40.3914L39.9741 31.978H35.7056L35.7055 46.0968ZM48.7009 27.0138C48.6184 27.0138 48.5334 27.0168 48.4494 27.0189C43.1977 27.0189 40.795 30.9693 40.795 36.5769C40.795 43.6409 43.9117 46.4682 48.4905 46.4682C51.1101 46.4682 52.8313 45.3655 53.8774 43.3079V46.0987H59.2644V27.3831H53.8774V30.2613C53.0232 28.4096 51.254 27.0358 48.7009 27.0138ZM50.0706 31.4363C52.2764 31.4363 53.6002 32.9748 53.6002 35.5918L53.6054 38.2646C53.6054 40.0285 52.5119 42.092 50.0706 42.092C46.3175 42.092 46.4177 38.0395 46.4177 36.6897C46.4177 32.1495 48.4174 31.4363 50.0706 31.4363ZM61.4399 36.7419C61.4399 34.4676 61.3311 27.026 71.0264 27.026C74.9182 27.026 76.5434 28.2635 76.5434 28.2635L75.2372 32.3146C75.2372 32.3146 73.6142 31.4209 71.4994 31.4209C68.7907 31.4209 67.0624 32.9912 67.0624 35.7539L67.0654 37.735C67.0654 40.3897 68.733 42.1618 71.505 42.1618C73.4316 42.1618 75.2073 41.2596 75.2073 41.2596L76.5101 45.2262C76.5101 45.2262 75.0242 46.4715 71.0536 46.4715C61.8221 46.4715 61.44 39.7949 61.44 36.7419H61.4399ZM108.129 27.0189C113.381 27.0189 115.822 30.9693 115.822 36.5769C115.822 43.6409 112.705 46.4682 108.126 46.4682C105.506 46.4682 103.57 45.3657 102.524 43.3079V46.0987L97.2044 46.0966V18.0233L102.852 17.5307V30.0078C103.667 27.8249 106.346 27.0189 108.129 27.0189H108.129ZM106.546 31.4363C104.34 31.4363 102.852 32.9748 102.852 35.5918L102.847 38.2646C102.843 40.0285 103.877 42.092 106.546 42.092C110.299 42.092 110.199 38.0395 110.199 36.6897C110.199 32.1495 108.199 31.4363 106.546 31.4363ZM86.3424 27.0344C80.3858 27.0344 77.2411 30.2821 77.2411 36.0535V37.1258C77.2411 44.6166 81.6572 46.5451 86.9221 46.5451C92.0396 46.5451 94.3559 45.1138 94.3559 45.1138L93.2991 41.302C93.2991 41.302 90.5744 42.4613 87.5992 42.4613C84.515 42.4613 83.1885 41.6752 82.8485 38.7112H94.8074V35.6532C94.8074 29.3927 91.2781 27.0343 86.3422 27.0343L86.3424 27.0344ZM86.4859 30.8513C88.5478 30.8513 89.8839 32.1156 89.8105 35.048H82.8589C82.9794 31.9617 84.4203 30.8514 86.4859 30.8514V30.8513ZM127.083 27.0087C120.966 27.0087 117.745 30.4558 117.745 36.6332C117.745 45.109 123.296 46.4733 127.093 46.4733C132.65 46.4733 136.348 43.4812 136.348 36.7102C136.348 29.6628 132.191 27.0087 127.083 27.0087ZM127.006 31.4516C129.695 31.4516 130.761 33.4646 130.761 35.756V37.7261C130.761 40.5019 129.27 42.1075 126.995 42.1075C124.868 42.1075 123.373 40.6057 123.373 37.7261V35.756C123.373 32.685 125.152 31.4516 127.006 31.4516ZM147.599 27.0087C141.482 27.0087 138.262 30.4558 138.262 36.6332C138.262 45.109 143.813 46.4733 147.609 46.4733C153.167 46.4733 156.864 43.4812 156.864 36.7102C156.864 29.6628 152.707 27.0087 147.599 27.0087ZM147.522 31.4516C150.212 31.4516 151.277 33.4646 151.277 35.756V37.7261C151.277 40.5019 149.786 42.1075 147.512 42.1075C145.385 42.1075 143.89 40.6057 143.89 37.7261V35.756C143.89 32.685 145.669 31.4516 147.522 31.4516ZM158.999 46.0968V18.0233L164.663 17.5307V36.3473L170.282 27.3812H176.263L170.402 36.6675L176.489 46.0968H170.491L164.663 36.9411V46.0968H158.999Z" fill="white"/>
</svg>