<svg width="1318" height="350" viewBox="0 0 1318 350" fill="none" xmlns="http://www.w3.org/2000/svg">
<path d="M944.005 4.03857H858.107V65.6753H944.005V4.03857Z" fill="white"/>
<path d="M943.818 89.5967H858.107V345.837H943.818V89.5967Z" fill="white"/>
<path d="M650.914 0C557.837 0 491.953 72.5723 491.953 175C491.953 277.428 557.868 350 659.678 350C698.649 350 743.68 339.375 779.388 315.019L738.925 256.489C713.628 276.092 680.872 287.773 647.371 280.037C613.124 272.146 589.194 246.578 582.699 201.376H808.227C809.222 192.832 809.719 183.947 809.719 175.031C809.75 72.5723 743.99 0 650.914 0ZM650.914 69.155C693.645 69.155 716.021 103.266 720.745 153.626H581.829C586.428 103.266 608.182 69.155 650.914 69.155Z" fill="white"/>
<path d="M1240.85 3.75879C1190.07 3.75879 1167.17 34.3908 1147.9 84.626L1095.01 222.346H1083.95L1090.16 3.91412H1004.42V345.837H1098.92L1194.02 98.2954C1197.04 90.4355 1204.25 78.5369 1218.2 81.5814C1227.37 83.5697 1231.94 89.0375 1231.94 100.532V345.837H1317.68V84.3775C1317.68 32.8064 1290.3 3.75879 1240.85 3.75879Z" fill="white"/>
<path d="M489.53 4.03839H403.757L324.292 221.88H313.229V84.3775C313.229 32.7753 285.849 3.75879 236.436 3.75879C185.656 3.75879 162.752 34.3908 143.484 84.626L90.5594 222.346H79.4958L85.7113 3.91412H0V345.837H94.5062L189.603 98.2954C192.617 90.4355 199.827 78.5369 213.781 81.5814C222.949 83.5697 227.517 89.0375 227.517 100.532V345.837L356.644 345.775L489.53 4.03839Z" fill="white"/>
</svg>
