<svg xmlns="http://www.w3.org/2000/svg" width="202" height="64" viewBox="0 0 202 64" fill="none">
  <path d="M70.908 26.7212H57.1568V30.8004H66.9354C66.4465 36.5483 61.6794 39.0823 57.218 39.0823C51.473 39.0823 46.4615 34.5087 46.4615 28.1428C46.4615 21.9004 51.2286 17.0796 57.218 17.0796C61.8628 17.0796 64.5519 20.0462 64.5519 20.0462L67.3633 17.0796C67.3633 17.0796 63.6963 13.0004 57.0346 13.0004C48.5394 12.9386 42 20.1698 42 28.0191C42 35.683 48.1727 43.1615 57.2791 43.1615C65.2853 43.1615 71.1525 37.6608 71.1525 29.4407C71.1525 27.7101 70.908 26.7212 70.908 26.7212Z" fill="white"/>
  <path fill-rule="evenodd" clip-rule="evenodd" d="M72.4375 33.335C72.4375 28.1434 76.4712 23.6934 82.0939 23.6934C86.7387 23.6934 91.7502 27.0309 91.8114 33.4586C91.8114 39.1448 87.5332 43.1621 82.2161 43.1621C76.3489 43.1621 72.4375 38.6503 72.4375 33.335ZM87.5336 33.4584C87.5336 29.8737 84.9056 27.5869 82.1553 27.5869C79.0384 27.5869 76.6549 30.0591 76.716 33.3966C76.716 36.8578 79.0995 39.33 82.1553 39.33C84.9667 39.33 87.5336 37.0432 87.5336 33.4584Z" fill="white"/>
  <path fill-rule="evenodd" clip-rule="evenodd" d="M93.457 33.335C93.457 28.1434 97.4907 23.6934 103.113 23.6934C107.758 23.6934 112.77 27.0309 112.831 33.4586C112.831 39.1448 108.553 43.1621 103.236 43.1621C97.3685 43.1621 93.457 38.6503 93.457 33.335ZM108.553 33.4584C108.553 29.8737 105.925 27.5869 103.175 27.5869C100.058 27.5869 97.6744 30.0591 97.7355 33.3966C97.7355 36.8578 100.119 39.33 103.175 39.33C105.986 39.33 108.553 37.0432 108.553 33.4584Z" fill="white"/>
  <path fill-rule="evenodd" clip-rule="evenodd" d="M114.484 33.4584C114.484 28.3285 118.518 23.7549 123.713 23.7549C125.974 23.7549 127.685 24.6202 128.786 25.9799V24.3111H132.819V41.8021C132.819 48.6625 128.908 51.9382 123.774 51.9382C119.068 51.9382 116.44 49.0334 115.157 46.2521L118.885 44.707C119.435 45.9431 120.902 48.1681 123.835 48.1681C126.891 48.1681 128.908 46.1285 128.908 42.791V40.875C127.747 42.1729 126.341 43.2236 123.591 43.2236C119.19 43.2236 114.484 39.2681 114.484 33.4584ZM129.211 33.5193C129.211 29.8109 126.583 27.5859 124.077 27.5859C121.388 27.5859 118.76 29.7491 118.699 33.5811C118.699 37.104 121.266 39.3908 124.016 39.3908C126.644 39.3908 129.211 37.3512 129.211 33.5193Z" fill="white"/>
  <path fill-rule="evenodd" clip-rule="evenodd" d="M141.926 33.3968C141.926 27.5871 146.021 23.6934 150.91 23.6934C154.699 23.6934 157.572 26.2892 158.855 29.2559L159.527 30.8628L146.632 36.3017C147.426 37.785 148.649 39.2684 151.338 39.2684C153.721 39.2684 155.188 37.9704 156.044 36.6107L159.405 38.8975C157.938 40.8753 155.371 43.1621 151.338 43.1621C146.51 43.1621 141.926 39.5156 141.926 33.3968ZM154.638 29.5643C154.026 28.39 152.804 27.4629 151.032 27.4629C148.282 27.4629 145.592 30.3678 146.081 33.2108L154.638 29.5643Z" fill="white"/>
  <path d="M135.816 42.6055H140.033V13.9277H135.816V42.6055Z" fill="white"/>
</svg>