<svg xmlns="http://www.w3.org/2000/svg" width="202" height="64" viewBox="0 0 202 64" fill="none">
  <path d="M32.9727 19.3475H37.7504V30.0706H47.8269V19.3475H52.6108V45.6693H47.8269V34.721H37.7504V45.6693H32.9727V19.3475ZM67.7467 37.0959C67.7467 39.2993 65.9696 41.0924 63.789 41.0924C61.6075 41.0924 59.8315 39.2993 59.8315 37.0959V25.7635H55.3005V37.0959C55.3005 41.8237 59.1086 45.6693 63.789 45.6693C68.4682 45.6693 72.276 41.8237 72.276 37.0959V25.7635H67.7467V37.0959ZM84.9248 25.8962C82.6772 25.8962 81.1084 26.5551 79.5933 28.0575V19.3475H75.0476V35.4894C75.0476 41.5314 79.372 45.6693 84.2303 45.6693C89.6313 45.6693 94.3636 41.4576 94.3636 35.783C94.3636 30.1803 89.9999 25.8962 84.9248 25.8962ZM85.0377 41.4211C81.9576 41.4211 79.6022 38.8224 79.6022 35.783C79.6022 32.7431 81.9576 30.1436 85.0377 30.1436C87.6477 30.1436 90.0044 32.7431 90.0044 35.783C90.0044 38.8224 87.6477 41.4211 85.0377 41.4211ZM101.998 27.0531C101.998 24.7447 103.521 24.0129 105.188 24.0129C106.53 24.0129 108.305 25.0381 109.464 26.2834L112.436 22.7684C110.951 20.7548 107.943 19.3629 105.478 19.3629C100.548 19.3629 96.9955 22.2558 96.9955 27.0531C96.9955 35.9506 107.834 33.1302 107.834 38.1114C107.834 39.6476 106.348 41.0037 104.645 41.0037C101.962 41.0037 101.092 39.6854 99.8599 38.2936L96.5608 41.735C98.6644 44.3351 101.273 45.6539 104.391 45.6539C109.066 45.6539 112.836 42.7245 112.836 38.1468C112.836 28.2608 101.998 31.3369 101.998 27.0531ZM124.803 25.6383C119.945 25.6383 115.62 29.7737 115.62 35.8171V52.0006H120.166V43.2493C121.681 44.7506 123.249 45.4106 125.498 45.4106C130.572 45.4106 134.937 41.127 134.937 35.5243C134.937 29.8489 130.203 25.6383 124.803 25.6383ZM125.611 41.1637C122.531 41.1637 120.175 38.5615 120.175 35.5243C120.175 32.4844 122.531 29.8848 125.611 29.8848C128.22 29.8848 130.577 32.4844 130.577 35.5243C130.577 38.5615 128.22 41.1637 125.611 41.1637ZM168.396 41.4211C165.715 41.4211 164.954 40.2499 164.954 38.455V30.5096H169.121V26.4823H164.954V21.1725L160.352 23.2591V39.4437C160.352 43.5818 163.178 45.6693 167.055 45.6693C167.635 45.6693 168.433 45.6314 168.868 45.523L169.992 41.3492C169.485 41.3846 168.905 41.4211 168.396 41.4211Z" fill="white"/>
  <path d="M155.719 30.6128C154.875 29.1196 153.689 27.9225 152.205 27.0213C151.097 26.3574 149.947 25.9359 148.652 25.755V21.0104C149.947 20.4445 150.751 19.192 150.751 17.7308C150.751 15.7391 149.199 14.1252 147.265 14.1252C145.329 14.1252 143.749 15.7391 143.749 17.7308C143.749 19.192 144.507 20.4445 145.802 21.0104V25.7571C144.766 25.9112 143.691 26.2435 142.71 26.7542C140.705 25.188 134.133 20.0498 130.288 17.0487C130.379 16.7104 130.449 16.3618 130.449 15.994C130.449 13.788 128.713 12 126.568 12C124.423 12 122.688 13.788 122.688 15.994C122.688 18.1996 124.425 19.9882 126.57 19.9882C127.301 19.9882 127.978 19.768 128.562 19.406L129.373 20.0394L140.523 28.3045C139.934 28.8613 139.385 29.4946 138.945 30.2052C138.056 31.6539 137.512 33.2479 137.512 34.9866V35.3494C137.512 36.5699 137.737 37.7222 138.121 38.8046C138.459 39.7498 138.954 40.6092 139.566 41.3862L135.865 45.2026C135.329 44.9972 134.747 44.9551 134.188 45.0812C133.629 45.2073 133.117 45.4963 132.713 45.9137C132.434 46.1998 132.213 46.54 132.062 46.9148C131.911 47.2895 131.834 47.6912 131.836 48.0968C131.836 48.9212 132.148 49.6961 132.715 50.279C132.993 50.5667 133.323 50.7948 133.688 50.9501C134.052 51.1053 134.442 51.1847 134.836 51.1837C135.231 51.1847 135.621 51.1053 135.985 50.95C136.35 50.7947 136.68 50.5667 136.958 50.279C137.238 49.993 137.459 49.6528 137.61 49.2783C137.76 48.9037 137.838 48.5022 137.837 48.0968C137.837 47.7777 137.789 47.4664 137.699 47.1705L141.523 43.2349C142.048 43.6076 142.614 43.9213 143.223 44.1918C144.424 44.726 145.749 45.0515 147.2 45.0515H147.465C149.069 45.0515 150.582 44.6639 152.004 43.8712C153.502 43.0334 154.675 41.8878 155.561 40.4252C156.452 38.9587 156.942 37.3383 156.942 35.5557V35.4666C156.942 33.713 156.548 32.0951 155.719 30.6128ZM151.046 38.8686C150.008 40.0555 148.814 40.7867 147.465 40.7867H147.243C146.473 40.7867 145.719 40.5676 144.981 40.1691C144.15 39.7304 143.517 39.1045 143 38.312C142.465 37.5343 142.175 36.685 142.175 35.7846V35.5112C142.175 34.626 142.34 33.7866 142.756 32.9939C143.201 32.1273 143.802 31.4535 144.601 30.9177C145.385 30.3857 146.223 30.1248 147.156 30.1248H147.243C148.089 30.1248 148.89 30.2964 149.646 30.6944C150.417 31.1187 151.046 31.6985 151.534 32.461C152.008 33.2239 152.289 34.0467 152.38 34.9431C152.394 35.1295 152.402 35.3203 152.402 35.5026C152.402 36.7192 151.95 37.8459 151.046 38.8686Z" fill="white"/>
</svg>