<svg width="102" height="27" viewBox="0 0 102 27" fill="none" xmlns="http://www.w3.org/2000/svg">
<path d="M72.798 0.311523H66.1738V5.06636H72.798V0.311523Z" fill="white"/>
<path d="M72.7836 6.91162H66.1738V26.6787H72.7836V6.91162Z" fill="white"/>
<path d="M50.1975 0C43.0197 0 37.939 5.59844 37.939 13.5C37.939 21.4016 43.0221 27 50.8734 27C53.8787 27 57.3514 26.1804 60.105 24.3014L56.9847 19.7863C55.0338 21.2985 52.5078 22.1996 49.9243 21.6029C47.2833 20.9941 45.4379 19.0217 44.937 15.5347H62.3291C62.4058 14.8756 62.4441 14.1902 62.4441 13.5024C62.4465 5.59844 57.3753 0 50.1975 0ZM50.1975 5.33481C53.4928 5.33481 55.2184 7.96627 55.5827 11.8511H44.8699C45.2246 7.96627 46.9022 5.33481 50.1975 5.33481Z" fill="white"/>
<path d="M95.6905 0.289795C91.7745 0.289795 90.0082 2.65283 88.5223 6.52812L84.4433 17.1522H83.5902L84.0695 0.301778H77.4573V26.6787H84.7453L92.0789 7.58262C92.3113 6.97628 92.8674 6.05839 93.9434 6.29326C94.6504 6.44664 95.0027 6.86844 95.0027 7.75518V26.6787H101.615V6.50895C101.615 2.53061 99.5035 0.289795 95.6905 0.289795Z" fill="white"/>
<path d="M37.7511 0.311364H31.1365L25.0084 17.1163H24.1552V6.50895C24.1552 2.52821 22.0438 0.289795 18.2333 0.289795C14.3172 0.289795 12.5509 2.65283 11.0651 6.52812L6.98367 17.1522H6.13048L6.6098 0.301778H0V26.6787H7.28803L14.6216 7.58262C14.8541 6.97628 15.4101 6.05839 16.4862 6.29326C17.1931 6.44664 17.5454 6.86844 17.5454 7.75518V26.6787L27.5033 26.6739L37.7511 0.311364Z" fill="white"/>
</svg>
