<svg width="25" height="26" viewBox="0 0 25 26" fill="none" xmlns="http://www.w3.org/2000/svg">
<path fill-rule="evenodd" clip-rule="evenodd" d="M1.1875 0C0.532 0 0 0.597333 0 1.33333V2.66667C0 3.40267 0.532 4 1.1875 4H17.8125C18.468 4 19 3.40267 19 2.66667V1.33333C19 0.597333 18.468 0 17.8125 0H1.1875ZM1.10833 11C0.496533 11 0 11.5973 0 12.3333V13.6667C0 14.4027 0.496533 15 1.10833 15H12.8917C13.5035 15 14 14.4027 14 13.6667V12.3333C14 11.5973 13.5035 11 12.8917 11H1.10833ZM0 23.3333C0 22.5973 0.7 22 1.5625 22H23.4375C24.3 22 25 22.5973 25 23.3333V24.6667C25 25.4027 24.3 26 23.4375 26H1.5625C0.7 26 0 25.4027 0 24.6667V23.3333Z" fill="white"/>
</svg>
