<svg xmlns="http://www.w3.org/2000/svg" width="120" height="90" viewBox="0 0 120 85" fill="none">
  <path d="M93.1527 82.5516C63.1161 82.5516 33.0795 82.5516 3.04287 82.6179C0.987379 82.6179 0.390625 81.9548 0.390625 79.9656C0.523237 75.6557 0.523237 71.3459 0.390625 67.036C0.390625 65.1131 1.05368 64.5826 2.91025 64.649C10.9996 64.7153 19.0226 64.7816 27.112 64.649C29.8968 64.649 29.4327 66.174 29.499 67.8316C29.6316 69.7545 29.3664 70.8817 26.913 70.8154C21.277 70.6165 15.641 70.8154 10.005 70.7491C7.8832 70.7491 6.29186 70.4839 6.29186 73.6666C6.29186 76.584 7.55167 76.7166 9.87238 76.7166C36.2622 76.7166 62.652 76.7166 89.0418 76.7166C90.5005 76.7166 91.8929 76.7167 93.3517 76.783C95.1419 78.7721 95.0756 80.7613 93.1527 82.6179V82.5516Z" fill="white"/>
  <path d="M103.23 76.7165C108.07 76.7165 112.911 76.7165 117.817 76.5839C120.403 76.5176 120.006 78.1089 119.939 79.634C119.939 81.0927 120.403 82.7504 117.751 82.6841C112.911 82.5515 108.07 82.6178 103.164 82.6178C101.44 80.6286 101.44 78.7057 103.164 76.7165H103.23Z" fill="white"/>
  <path d="M83.3375 70.6822C75.9775 70.6822 68.5513 70.6159 61.1913 70.6822C59.2021 70.6822 58.5391 70.1518 58.5391 68.0963C58.6054 54.8351 58.6054 41.6402 58.5391 28.379C58.5391 25.8594 59.7989 25.8594 61.5891 25.8594C63.4457 25.8594 64.6392 25.992 64.6392 28.4453C64.5066 39.2532 64.6392 50.0611 64.5066 60.869C64.5066 63.7201 65.0371 64.8473 68.2197 64.781C80.5527 64.5821 92.9519 64.781 105.285 64.6484C107.539 64.6484 108.269 65.1788 108.269 67.5659C108.269 69.9529 107.804 70.8148 105.218 70.7485C97.9248 70.5496 90.6312 70.7485 83.4038 70.7485L83.3375 70.6822Z" fill="white"/>
  <path d="M52.7685 48.47C52.7685 55.1006 52.7685 61.7312 52.7685 68.3618C52.7685 70.2184 52.1718 70.8815 50.3152 70.8152C46.0053 70.6825 41.6954 70.6162 37.3855 70.8152C34.6007 70.9478 35.1311 69.2901 34.9985 67.6988C34.9322 65.8422 34.9985 64.4498 37.5181 64.7813C39.5736 65.0465 41.6954 64.715 43.8172 64.8476C46.1379 65.0465 46.801 64.2509 46.801 61.9301C46.6684 51.1223 46.801 40.3144 46.801 29.4402C46.801 26.3238 49.0554 24.8651 51.9065 26.1249C53.2327 26.6553 52.7685 27.7825 52.7685 28.7108C52.7685 35.3414 52.7685 41.972 52.7685 48.6026V48.47Z" fill="white"/>
  <path d="M36.062 0C37.3882 0 38.7143 0 39.9741 0C40.9687 1.39243 40.6372 2.98377 40.6372 4.50881C40.6372 20.8864 40.6372 37.264 40.6372 53.7079C40.6372 56.6253 39.311 58.3935 36.6588 59.0124C36.4599 59.0124 36.1947 59.0124 35.9957 59.0124C35.4653 58.2167 35.6642 57.2884 35.6642 56.4264C35.6642 38.4575 35.6642 20.5549 35.6642 2.58593C35.6642 1.72395 35.399 0.795672 35.9957 0H36.062Z" fill="white"/>
  <path d="M119.473 25.7929C120.07 26.3233 119.871 26.9864 119.871 27.6494C119.871 41.1096 119.871 54.5697 119.871 68.0961C119.871 68.7592 120.07 69.4222 119.473 69.9527C118.611 69.8864 117.749 70.1516 116.821 70.1516C115.163 70.1516 114.5 69.4885 114.5 67.7646C114.5 54.5697 114.5 41.3748 114.5 28.1136C114.5 26.3896 115.229 25.7266 116.821 25.7266C117.683 25.7266 118.611 25.7266 119.473 25.7929Z" fill="white"/>
  <path d="M93.6159 59.2115C89.6375 59.2115 85.6591 59.0789 81.7471 59.2115C79.0285 59.3441 79.0948 57.8854 79.0948 55.9625C79.0948 54.2385 78.9622 52.8461 81.6145 52.9124C89.6375 53.1113 97.7268 53.1113 105.75 52.9124C108.734 52.8461 108.071 54.6364 108.269 56.294C108.468 58.3495 107.872 59.2778 105.617 59.1452C101.639 58.9463 97.6605 59.1452 93.7485 59.1452L93.6159 59.2115Z" fill="white"/>
  <path d="M6.0909 59.0785C0.587497 59.0785 -1.20277 57.0893 0.786415 51.1881C1.97992 47.6076 5.95828 50.3261 8.61052 49.7294C9.87034 49.4641 11.3954 49.3978 11.3291 51.5196C11.3291 52.3153 11.3291 53.0447 11.3291 53.8403C11.3291 60.0068 11.8595 59.0122 6.0909 59.1448V59.0785Z" fill="white"/>
  <path d="M24.1927 59.0783C18.2915 59.0783 18.1589 58.8794 18.822 51.5857C18.9546 50.127 19.4187 49.5965 20.8111 49.6628C21.6731 49.6628 22.6014 49.6628 23.4634 49.6628C29.4309 49.6628 29.2983 49.6628 29.5635 55.4978C29.7624 58.5478 28.6352 59.4761 25.8504 59.0783C25.3199 59.012 24.7232 59.0783 24.1927 59.0783Z" fill="white"/>
  <path d="M83.6043 45.0885C83.2728 42.2373 84.2011 41.0438 86.4555 40.3144C92.1578 38.5242 97.7938 36.535 103.828 34.4795C103.098 36.6676 102.502 38.3915 100.313 39.1209C94.8101 40.9775 89.373 43.033 83.6043 45.0885Z" fill="white"/>
  <path d="M102.84 76.7154C102.442 78.6383 102.442 80.6275 102.84 82.6167C100.984 84.9374 94.6847 84.9374 92.8281 82.6167C93.6238 80.6938 93.2923 78.7046 93.027 76.7817C93.4249 75.9861 93.226 74.7262 94.6847 74.7926C96.8728 74.7926 98.9946 74.7926 101.183 74.7926C102.575 74.7926 102.509 75.9198 102.907 76.7817L102.84 76.7154Z" fill="white"/>
</svg>