<svg xmlns="http://www.w3.org/2000/svg" width="200" height="90" viewBox="0 0 200 68" fill="none">
  <path d="M200 67.092C197.538 66.9539 195.088 66.9664 192.627 67.0544C192.438 67.0544 192.237 67.0669 192.049 67.0669C191.961 67.0669 191.873 67.0669 191.848 66.9539C191.835 66.8534 191.835 66.7404 191.961 66.7027C191.999 66.7027 192.024 66.6901 192.061 66.6776C193.003 66.3887 193.38 65.6727 193.506 64.7558C193.644 63.7887 193.682 62.809 193.694 61.8418C193.707 58.7897 193.694 55.7375 193.694 52.6728C193.468 52.7607 193.481 52.9868 193.418 53.1375C191.609 57.7597 189.801 62.3819 187.979 66.9916C187.904 67.1674 187.929 67.4814 187.665 67.4689C187.427 67.4689 187.414 67.1674 187.339 66.9916C185.316 62.4196 183.219 57.8853 181.059 53.3761C180.983 53.2254 180.908 53.0747 180.832 52.9114C180.682 52.9365 180.732 53.0496 180.732 53.1124C180.732 55.5868 180.732 58.0612 180.745 60.5355C180.745 61.7037 180.858 62.8718 181.159 64.0022C181.46 65.1829 182.101 66.0872 183.244 66.6022C183.307 66.6273 183.382 66.6524 183.432 66.6901C183.508 66.7529 183.52 66.8408 183.508 66.9288C183.495 67.0418 183.42 67.0669 183.319 67.0544C183.194 67.0544 183.081 67.0544 182.955 67.0544C181.172 66.9539 179.401 66.9664 177.617 67.0544C177.441 67.0544 177.202 67.18 177.115 66.9539C177.027 66.6901 177.303 66.665 177.454 66.5771C178.358 66.0621 178.86 65.2582 179.174 64.2911C179.514 63.2611 179.639 62.1809 179.677 61.1008C179.765 58.438 179.74 55.7626 179.702 53.0998C179.702 52.7356 179.639 52.3713 179.589 52.0071C179.463 51.2158 179.049 50.6631 178.32 50.3365C178.258 50.3114 178.195 50.2737 178.132 50.2486C177.994 50.2109 177.931 50.1356 177.944 49.9849C177.956 49.7964 178.107 49.8341 178.22 49.8341C178.672 49.8341 179.124 49.8467 179.576 49.8592C180.883 49.9095 182.189 49.8969 183.495 49.8592C183.885 49.8467 184.073 49.9974 184.236 50.3365C185.756 53.4641 187.364 56.5539 189.097 59.581C189.223 59.807 189.361 60.0331 189.487 60.2592C189.687 60.1964 189.675 60.008 189.725 59.8824C190.981 56.6921 192.237 53.5018 193.493 50.3114C193.682 49.8341 193.682 49.8216 194.197 49.8592C195.842 49.9597 197.475 49.8718 199.108 49.8216C199.208 49.8216 199.321 49.8216 199.422 49.8216C199.522 49.8216 199.635 49.7839 199.673 49.9346C199.698 50.0728 199.673 50.1733 199.51 50.2109C199.497 50.2109 199.472 50.2109 199.459 50.2235C198.392 50.4496 198.115 51.266 198.115 52.1327C198.115 55.4235 198.103 58.7269 198.115 62.0177C198.115 63.0602 198.153 64.1152 198.417 65.1326C198.605 65.8737 199.032 66.4138 199.773 66.665C199.836 66.6901 199.912 66.665 199.974 66.665V67.0795L200 67.092Z" fill="white"/>
  <path d="M0.0125603 66.7787C0.703379 66.515 1.20579 66.0126 1.68309 65.4725C2.2483 64.8068 2.72559 64.0783 3.16521 63.3246C4.3082 61.3904 5.26278 59.3556 6.29273 57.3585C7.59901 54.8339 8.8676 52.3092 10.1613 49.772C10.199 49.6967 10.2367 49.6087 10.2744 49.5459C10.4 49.3701 10.513 49.3701 10.6386 49.5459C10.714 49.6464 10.7517 49.7595 10.8145 49.8725C13.1381 54.1933 15.4743 58.514 17.8106 62.8348C18.2627 63.6763 18.7526 64.5053 19.2927 65.2966C19.7072 65.887 20.1342 66.4647 20.8376 66.7411C20.9507 66.7787 21.0009 66.8667 20.9758 66.9797C20.9381 67.1304 20.8251 67.0927 20.7246 67.0927C20.0966 67.0676 19.4685 67.0299 18.8405 67.0299C16.8685 67.0048 14.8966 67.0048 12.9246 67.0927C12.7739 67.0927 12.4975 67.2435 12.4599 66.942C12.4222 66.6908 12.6985 66.7411 12.8367 66.6908C13.4396 66.5024 13.6782 66.1507 13.5903 65.5101C13.5401 65.1459 13.427 64.7942 13.3014 64.4551C12.8116 63.086 12.1082 61.8174 11.4927 60.5237C11.4174 60.3604 11.2917 60.3102 11.1159 60.3102C9.50818 60.3102 7.90046 60.3102 6.30529 60.3102C6.14201 60.3102 6.04153 60.3604 5.97872 60.4986C5.42607 61.6918 4.78549 62.8599 4.47148 64.1536C4.44636 64.2667 4.40868 64.3923 4.39612 64.5053C4.23284 65.6986 4.71013 66.4019 5.87824 66.7034C6.02897 66.7411 6.29273 66.7034 6.24249 66.9671C6.20481 67.1932 5.97872 67.0927 5.85312 67.0802C4.47148 66.9923 3.10241 67.0048 1.72077 67.0299C1.14299 67.0299 0.577776 67.0802 0 67.1179C0 67.0174 0 66.9043 0 66.8039L0.0125603 66.7787Z" fill="white"/>
  <path d="M60.326 52.6726C59.9367 53.6523 59.5473 54.6446 59.1705 55.6243C57.6758 59.4301 56.1937 63.2484 54.6865 67.0542C54.6236 67.2175 54.6362 67.4938 54.3976 67.4813C54.1715 67.4813 54.1589 67.205 54.0961 67.0417C52.0613 62.4446 49.9512 57.8726 47.7783 53.3383C47.7029 53.1876 47.6275 53.0243 47.5396 52.861C47.3763 52.949 47.4517 53.0746 47.4517 53.175C47.4517 55.4987 47.4517 57.8098 47.4517 60.1335C47.4517 61.3895 47.5522 62.633 47.8411 63.8639C48.13 65.1199 48.7831 66.0996 50.0014 66.6397C50.0768 66.6774 50.1647 66.69 50.215 66.7779C50.2903 66.9035 50.215 67.0668 50.0642 67.0794C49.9386 67.0794 49.8256 67.0794 49.7 67.0794C47.9039 66.9789 46.1077 66.9914 44.3116 67.0794C44.1483 67.0794 43.8846 67.2175 43.8092 66.9537C43.7338 66.7025 44.0227 66.6774 44.1734 66.5895C44.9396 66.1373 45.442 65.4591 45.7686 64.6426C46.158 63.6378 46.3087 62.5827 46.3589 61.5277C46.4971 58.6388 46.4971 55.7499 46.3966 52.8485C46.3966 52.6098 46.3464 52.3712 46.3087 52.12C46.2082 51.2408 45.7435 50.6504 44.9271 50.3113C44.9145 50.3113 44.9019 50.2987 44.8768 50.2862C44.7135 50.2485 44.6256 50.1606 44.6633 49.9847C44.701 49.8089 44.8391 49.8466 44.9522 49.8466C45.4044 49.8466 45.8565 49.8591 46.3087 49.8842C47.5773 49.9345 48.8585 49.9345 50.127 49.8842C50.5541 49.8717 50.7676 50.0098 50.956 50.3867C52.4884 53.5519 54.1212 56.6668 55.8671 59.719C55.9802 59.9074 56.0681 60.1209 56.2691 60.3219C56.4575 59.8446 56.6459 59.405 56.8217 58.9528C57.9521 56.089 59.07 53.2127 60.2004 50.349C60.414 49.8089 60.2884 49.8214 60.9415 49.8591C62.5995 49.9596 64.2574 49.8591 65.9154 49.834C66.0787 49.834 66.3424 49.6833 66.4053 49.9596C66.4681 50.2359 66.1917 50.2108 66.0159 50.2736C65.3502 50.4997 64.9734 50.9519 64.898 51.6427C64.8603 51.9693 64.8352 52.3084 64.8352 52.635C64.8352 55.3731 64.8101 58.1113 64.8352 60.8494C64.8352 62.1934 64.8352 63.5373 65.0864 64.8562C65.2497 65.7228 65.6391 66.3885 66.5309 66.6774C66.669 66.7151 66.7444 66.7905 66.7318 66.9412C66.7067 67.1296 66.5685 67.0919 66.4555 67.0794C65.3879 67.0291 64.3328 67.004 63.2652 67.004C61.8584 67.004 60.4391 66.9914 59.0323 67.0668C58.8816 67.0668 58.643 67.1924 58.5802 66.9537C58.4922 66.6523 58.7811 66.69 58.9318 66.6272C59.5599 66.376 59.9492 65.9238 60.1251 65.2707C60.326 64.5045 60.3637 63.7132 60.3889 62.9344C60.4768 59.518 60.4014 56.1016 60.326 52.6726Z" fill="white"/>
  <path d="M103.938 58.1373C104.302 58.2253 104.679 58.3132 105.043 58.4137C106.236 58.7528 107.166 59.4436 107.857 60.461C108.196 60.9634 108.472 61.5161 108.698 62.0813C109.062 62.9731 109.414 63.8649 109.904 64.6813C110.356 65.4475 110.871 66.176 111.7 66.603C111.851 66.6784 111.901 66.7914 111.863 66.9422C111.813 67.1054 111.675 67.0552 111.549 67.0552C109.678 66.9924 107.819 66.9924 105.948 67.005C105.558 67.005 105.395 66.8668 105.257 66.5402C104.867 65.6484 104.566 64.719 104.302 63.7769C104.063 62.9354 103.812 62.1064 103.473 61.3026C103.285 60.8629 103.071 60.4485 102.795 60.0716C102.091 59.0919 101.137 58.5518 99.9437 58.4137C99.5292 58.3634 99.1147 58.3132 98.6876 58.3634C98.5369 58.3886 98.4239 58.4011 98.4239 58.6021C98.4615 60.6745 98.3108 62.747 98.65 64.8069C98.7128 65.2088 98.8384 65.5856 99.077 65.9248C99.3157 66.2639 99.6422 66.49 100.019 66.6407C100.17 66.6909 100.346 66.7161 100.295 66.9422C100.245 67.1808 100.044 67.0803 99.906 67.0678C98.5997 66.9924 97.2934 66.9924 95.9872 67.005C94.8944 67.005 93.7891 67.005 92.6964 67.0678C92.5707 67.0678 92.4577 67.0678 92.3321 67.0678C92.2442 67.0678 92.1562 67.0426 92.1562 66.9296C92.1562 66.8417 92.1563 66.7537 92.2567 66.7035C92.3195 66.6784 92.3949 66.6658 92.4577 66.6407C93.1485 66.3895 93.563 65.8871 93.7389 65.1711C93.9273 64.3673 93.9901 63.5509 94.0026 62.7344C94.0277 59.1924 94.0277 55.663 94.0277 52.1209C94.0277 51.2292 93.6509 50.576 92.7592 50.2997C92.7089 50.2871 92.6587 50.262 92.6084 50.2495C92.4828 50.2118 92.4703 50.1113 92.4703 49.9982C92.4703 49.8601 92.5707 49.835 92.6838 49.835C93.0732 49.835 93.45 49.8601 93.8393 49.8601C95.7108 49.8726 97.5698 49.8978 99.4413 49.8978C101.112 49.8978 102.795 49.9229 104.453 50.1238C105.445 50.2495 106.425 50.4002 107.354 50.7644C108.422 51.1915 109.251 51.8697 109.565 53.0253C109.954 54.4572 109.515 55.7383 108.321 56.6301C107.405 57.3084 106.349 57.6475 105.244 57.8485C104.918 57.9113 104.591 57.9364 104.264 57.9741C104.151 57.9866 104.013 57.9615 103.938 58.0997V58.1373Z" fill="white"/>
  <path d="M165.456 67.0048C163.346 67.0048 161.236 67.0048 159.125 67.0048C158.585 67.0048 158.045 67.0551 157.505 67.0802C157.392 67.0802 157.241 67.1179 157.216 66.942C157.204 66.8039 157.279 66.7285 157.417 66.6783C158.334 66.4019 158.736 65.7237 158.874 64.8319C159.063 63.6387 159.075 62.4329 159.075 61.2396C159.075 58.3131 159.075 55.3865 159.075 52.46C159.075 52.3092 159.075 52.1459 159.075 51.9952C159.037 51.2039 158.673 50.6387 157.907 50.3749C157.894 50.3749 157.869 50.3749 157.857 50.3624C157.706 50.287 157.48 50.287 157.543 50.0358C157.606 49.7846 157.832 49.8851 157.982 49.8851C158.962 49.8851 159.929 49.9353 160.909 49.9353C164.639 49.9353 168.37 49.9353 172.113 49.9479C172.523 49.9479 172.795 50.1405 172.929 50.5257C173.319 51.6812 173.708 52.8368 174.085 53.9923C174.122 54.1054 174.248 54.2435 174.085 54.3566C173.909 54.4696 173.771 54.4194 173.633 54.2686C173.457 54.0677 173.268 53.8918 173.08 53.716C171.271 51.9952 169.098 51.1286 166.636 50.915C165.77 50.8397 164.891 50.8145 164.024 50.8648C163.66 50.8899 163.647 50.9025 163.647 51.2542C163.647 53.201 163.647 55.1604 163.647 57.1073C163.647 57.3082 163.635 57.4841 163.923 57.4841C165.318 57.5092 166.712 57.572 168.081 57.1701C168.709 56.9817 169.287 56.7305 169.827 56.3537C170.317 56.002 170.706 55.5624 170.957 55.0097C170.995 54.9343 171.02 54.8464 171.058 54.7711C171.121 54.658 171.234 54.6706 171.334 54.6831C171.447 54.6957 171.447 54.7962 171.447 54.8841C171.447 54.972 171.447 55.0599 171.447 55.1479C171.447 57.0319 171.447 58.916 171.447 60.8C171.447 60.8754 171.447 60.9382 171.447 61.0136C171.447 61.114 171.46 61.2396 171.321 61.2522C171.196 61.2648 171.083 61.2522 171.033 61.1015C171.033 61.0638 171.007 61.0387 170.995 61.001C170.568 59.9836 169.789 59.3681 168.797 58.9537C168.181 58.7024 167.528 58.5517 166.875 58.4764C165.908 58.3633 164.928 58.3508 163.949 58.4136C163.722 58.4261 163.647 58.5015 163.647 58.7276C163.672 60.3855 163.584 62.0435 163.785 63.6889C163.823 64.0155 163.898 64.342 163.974 64.6561C164.124 65.2841 164.526 65.686 165.142 65.8744C166.008 66.1507 166.9 66.1256 167.779 66.0126C170.292 65.7111 172.226 64.3797 173.884 62.571C174.185 62.2319 174.474 61.8802 174.763 61.5285C174.826 61.4532 174.876 61.3527 174.989 61.3276C175.24 61.2773 175.404 61.4657 175.316 61.7169C174.901 63.086 174.487 64.4551 174.072 65.8116C173.984 66.1131 173.884 66.4145 173.808 66.7159C173.758 66.942 173.633 67.03 173.406 67.0048C173.306 66.9923 173.193 67.0048 173.092 67.0048C170.543 67.0048 167.993 67.0048 165.456 67.0048Z" fill="white"/>
  <path d="M145.086 67.5327C142.637 67.5075 140.263 67.1433 138.002 66.1887C137.864 66.1259 137.726 66.0506 137.575 66.0003C137.312 65.9124 137.236 65.7742 137.324 65.4979C137.751 64.0786 138.166 62.6593 138.58 61.2399C138.605 61.1771 138.63 61.1143 138.643 61.039C138.681 60.9385 138.756 60.9259 138.856 60.9259C138.957 60.9259 139.02 60.9762 139.045 61.0641C139.095 61.2651 139.133 61.4786 139.183 61.6796C139.484 62.8602 139.962 63.953 140.803 64.8573C141.796 65.9124 143.026 66.4525 144.446 66.5781C145.287 66.6534 146.116 66.6283 146.933 66.3771C148.101 66.0254 148.993 65.3723 149.357 64.1414C149.445 63.8399 149.495 63.5259 149.495 63.2119C149.52 62.1568 149.093 61.466 148.113 61.039C147.033 60.5617 145.89 60.3482 144.747 60.1095C143.717 59.896 142.7 59.695 141.708 59.3684C140.954 59.1172 140.251 58.7781 139.66 58.2506C137.789 56.5298 137.713 53.5279 139.497 51.6815C140.489 50.6641 141.72 50.0738 143.089 49.7598C144.898 49.3327 146.719 49.3579 148.553 49.5965C149.884 49.7723 151.178 50.1115 152.434 50.6264C152.911 50.8274 152.911 50.8274 152.773 51.2921C152.459 52.3849 152.145 53.4651 151.831 54.5578C151.806 54.6583 151.768 54.7588 151.743 54.8593C151.718 54.9723 151.643 55.0351 151.517 55.0351C151.392 55.0351 151.329 54.9849 151.291 54.8718C151.241 54.6709 151.178 54.4699 151.115 54.2689C150.826 53.3772 150.437 52.5482 149.797 51.8574C148.654 50.6264 147.209 50.2873 145.601 50.438C144.785 50.5134 144.031 50.7521 143.378 51.267C142.587 51.8825 142.198 52.6989 142.348 53.6912C142.486 54.5955 143.039 55.1859 143.893 55.5124C144.735 55.8264 145.601 55.9897 146.481 56.153C147.611 56.3665 148.754 56.5172 149.847 56.8815C150.525 57.1076 151.178 57.3839 151.781 57.7858C152.974 58.5897 153.59 59.7201 153.665 61.1646C153.753 63.0737 153.012 64.581 151.517 65.7491C150.249 66.7414 148.779 67.2312 147.197 67.4573C146.506 67.5578 145.802 67.5829 145.112 67.5704L145.086 67.5327Z" fill="white"/>
  <path d="M85.6449 67.0044C84.4014 67.0044 83.1705 67.0044 81.927 67.0798C81.7888 67.0798 81.6507 67.0798 81.5125 67.0798C81.4372 67.0798 81.3743 67.0546 81.3618 66.9667C81.3618 66.8788 81.3618 66.7909 81.4623 66.7532C81.5628 66.7155 81.6632 66.703 81.7637 66.6653C82.3415 66.4894 82.555 66.188 82.5173 65.5851C82.5048 65.3088 82.4294 65.0324 82.3415 64.7687C81.8642 63.274 81.098 61.8923 80.4072 60.4856C80.3193 60.3097 80.2062 60.2846 80.0304 60.2846C78.4478 60.2846 76.8526 60.2846 75.27 60.2846C75.1067 60.2846 74.9686 60.3097 74.8932 60.4856C74.328 61.7165 73.6749 62.9223 73.3608 64.2537C73.2855 64.5426 73.2604 64.844 73.2855 65.1329C73.3357 65.8865 73.8633 66.4392 74.7048 66.6778C74.8681 66.7281 75.1695 66.6778 75.1444 66.9165C75.1067 67.2431 74.8053 67.0672 74.642 67.0546C72.9212 66.9793 71.1879 66.9667 69.4671 67.0546C69.3164 67.0546 69.0903 67.1928 69.015 66.9542C68.9396 66.7281 69.1657 66.6778 69.3164 66.5899C69.9696 66.2005 70.472 65.6479 70.9367 65.045C71.6903 64.0527 72.3183 62.9851 72.8836 61.8923C74.6797 58.4131 76.4507 54.9214 78.2343 51.4296C78.5106 50.8895 78.7869 50.3368 79.0632 49.7967C79.1386 49.646 79.1512 49.4199 79.3773 49.4199C79.6033 49.4199 79.6285 49.646 79.7038 49.7842C80.6207 51.4673 81.5125 53.1629 82.4294 54.846C83.9743 57.6972 85.4565 60.5735 87.0642 63.387C87.4787 64.1155 87.8932 64.844 88.3956 65.5097C88.7598 65.9996 89.1492 66.4769 89.7521 66.703C89.8526 66.7406 89.9531 66.7909 89.9279 66.929C89.9028 67.1049 89.7647 67.0798 89.6391 67.0672C88.3202 66.9793 86.9888 66.9918 85.6574 66.9918L85.6449 67.0044Z" fill="white"/>
  <path d="M130.9 67.0046C129.405 67.0046 128.174 67.0046 126.93 67.0799C126.805 67.0799 126.692 67.0799 126.566 67.0799C126.478 67.0799 126.39 67.0799 126.353 66.9795C126.315 66.8539 126.378 66.7785 126.491 66.7408C126.554 66.7157 126.629 66.7031 126.692 66.6906C127.383 66.477 127.609 66.1002 127.471 65.3843C127.395 64.9824 127.27 64.6055 127.131 64.2287C126.654 62.9476 126.001 61.7669 125.411 60.536C125.323 60.3602 125.21 60.2848 125.009 60.2848C123.426 60.2848 121.831 60.2848 120.248 60.2848C120.047 60.2848 119.934 60.3602 119.846 60.5486C119.357 61.5911 118.829 62.6085 118.49 63.7138C118.402 64.0027 118.327 64.279 118.289 64.5804C118.138 65.6481 118.641 66.4017 119.696 66.6906C119.859 66.7408 120.16 66.678 120.135 66.9292C120.098 67.2432 119.784 67.0674 119.62 67.0674C117.9 66.992 116.166 66.9795 114.445 67.0674C114.408 67.0674 114.37 67.0674 114.345 67.0674C114.219 67.0548 114.044 67.1427 114.006 66.9418C113.968 66.7659 114.119 66.7157 114.245 66.6403C114.785 66.3389 115.224 65.9118 115.614 65.4471C116.443 64.4674 117.096 63.3746 117.686 62.2442C119.043 59.6317 120.374 57.0065 121.718 54.394C122.484 52.8867 123.25 51.3795 124.016 49.8848C124.067 49.7718 124.117 49.6587 124.192 49.5583C124.305 49.3824 124.431 49.3698 124.544 49.5457C124.619 49.6587 124.682 49.7843 124.745 49.9099C127.006 54.1177 129.267 58.3128 131.528 62.5205C131.98 63.3621 132.47 64.1911 132.985 64.9949C133.236 65.3969 133.512 65.7737 133.839 66.1128C134.052 66.3389 134.291 66.5398 134.58 66.678C134.718 66.7408 134.919 66.7534 134.856 66.9795C134.793 67.193 134.592 67.0925 134.454 67.0799C133.186 66.992 131.904 67.0171 130.887 67.0171L130.9 67.0046Z" fill="white"/>
  <path d="M31.2744 67.0045C29.2396 67.0045 27.1923 67.0045 25.1575 67.0045C24.6174 67.0045 24.0773 67.0547 23.5372 67.0798C23.4242 67.0798 23.2735 67.1426 23.2483 66.9542C23.2358 66.8161 23.2735 66.7281 23.4242 66.6905C24.4793 66.389 24.8058 65.56 24.9314 64.5803C25.0821 63.4248 25.1073 62.2567 25.1073 61.0885C25.1198 58.2499 25.1073 55.4113 25.1073 52.5726C25.1073 52.2712 25.0821 51.9823 25.0445 51.6934C24.9691 51.0528 24.6174 50.6007 24.0145 50.362C23.9392 50.3243 23.8512 50.2867 23.7759 50.2741C23.6126 50.2364 23.5372 50.1359 23.5623 49.9726C23.6 49.7842 23.7508 49.847 23.8512 49.847C24.7807 49.8722 25.6976 49.8973 26.6271 49.9224C27.9836 49.9601 29.3401 49.8722 30.7092 49.847C30.8599 49.847 31.086 49.7089 31.1362 49.9852C31.1739 50.2364 30.9478 50.2239 30.7971 50.2741C30.1188 50.5002 29.7169 50.9524 29.6416 51.6683C29.6164 51.9321 29.5788 52.1833 29.5788 52.447C29.5788 55.449 29.5788 58.4383 29.5913 61.4402C29.5913 62.4199 29.6667 63.3871 29.8551 64.3542C30.0435 65.2963 30.6213 65.8112 31.5382 65.962C33.4976 66.2885 35.3063 65.8489 36.9894 64.8315C38.371 63.99 39.4512 62.847 40.4058 61.5658C40.4937 61.4528 40.5691 61.3398 40.657 61.2267C40.7323 61.1262 40.8328 61.1514 40.9333 61.189C41.0463 61.2393 41.0966 61.3146 41.0589 61.4277C41.0338 61.4905 41.0212 61.5658 40.9961 61.6286C40.5063 63.2866 40.029 64.932 39.5391 66.59C39.4135 67.0045 39.4135 67.0045 38.9739 67.0045C36.4116 67.0045 33.8493 67.0045 31.287 67.0045H31.2744Z" fill="white"/>
  <path d="M95.1936 27.4525C95.1936 27.3143 95.1684 27.1762 95.1684 27.038C95.1684 24.1868 95.1684 21.3356 95.1684 18.4844C95.1684 17.8941 95.1308 17.9192 95.7336 17.9192C97.8187 17.9192 99.9162 17.9192 102.001 17.9192C102.127 17.9192 102.24 17.9192 102.366 17.9192C102.604 17.9192 102.705 17.8187 102.705 17.58C102.705 16.9018 102.705 16.2235 102.717 15.5453C103.295 15.2564 103.91 15.3443 104.501 15.4573C104.84 15.5202 104.852 15.8342 104.852 16.123C104.852 17.9694 104.852 19.8158 104.852 21.6622C104.852 22.0892 104.802 22.5288 104.89 22.9684C104.89 24.3124 104.903 25.6438 104.903 26.9877C104.903 29.1481 104.903 31.2959 104.903 33.4563C104.903 33.5317 104.903 33.5945 104.903 33.6698C104.903 34.055 104.718 34.2476 104.35 34.2476C104.224 34.2476 104.111 34.2476 103.986 34.2476C102.504 34.2476 101.022 34.2476 99.5394 34.2476C99.3762 34.2476 99.1877 34.323 99.0496 34.1597C99.2631 33.9587 99.5394 33.9964 99.7906 33.9964C101.172 33.9964 102.541 33.9964 103.923 33.9964C104.576 33.9964 104.614 33.9587 104.614 33.3307C104.614 31.1201 104.614 28.9095 104.614 26.6989C104.614 26.0457 104.538 25.9955 103.898 25.9578C103.483 25.9327 103.056 26.0457 102.667 25.8196C102.491 25.5935 102.529 25.3298 102.529 25.066C102.529 23.7974 102.529 22.5288 102.529 21.2602C102.529 20.6699 102.378 20.5694 101.8 20.6322C101.549 20.6573 101.423 20.7704 101.411 21.0216C101.411 21.21 101.411 21.3984 101.411 21.5994C101.411 24.6641 101.411 27.7162 101.411 30.781C101.411 31.0699 101.461 31.3713 101.273 31.6351C100.883 31.5848 100.984 31.2583 100.984 31.0447C100.959 29.7008 100.984 28.3694 100.984 27.0254C100.984 26.8496 100.984 26.6737 100.984 26.4979C100.984 26.1211 100.808 25.9578 100.444 25.9578C100.18 25.9578 99.9163 25.9578 99.665 25.9578C99.4515 25.9578 99.238 25.9578 99.0747 25.7945C99.0747 24.2873 99.0747 22.7675 99.0496 21.2602C99.0496 20.3182 99.1752 20.4312 98.2206 20.4312C97.266 20.4312 97.4042 20.3056 97.3916 21.2602C97.3916 23.1317 97.3916 25.0158 97.3916 26.8873C97.3916 27.0757 97.3791 27.2641 97.3665 27.465C97.0022 27.352 97.0525 27.0129 97.0022 26.7491C96.9269 26.3095 96.7259 26.1336 96.2738 26.1336C95.8216 26.1336 95.6206 26.3095 95.5452 26.7491C95.495 27.0129 95.5452 27.352 95.181 27.465L95.1936 27.4525Z" fill="white"/>
  <path d="M91.4531 8.99016C91.4531 6.16805 91.4531 3.36145 91.4531 0.539339C91.4531 0.213711 91.5286 0.0431442 91.8053 0.0741564C91.906 0.0741564 92.0192 0.0741564 92.1198 0.0741564C97.4531 0.0741564 102.774 0.0741564 108.107 0.0741564C108.145 0.0741564 108.183 0.0741564 108.208 0.0741564C108.585 0.0741564 108.778 0.306748 108.786 0.771931C108.786 1.37667 108.786 1.98141 108.786 2.58614C108.786 3.17538 108.786 3.17538 108.283 3.17538C108.183 3.17538 108.069 3.17538 107.969 3.17538C104.724 3.17538 101.466 3.17538 98.2204 3.17538C98.0946 3.17538 97.9814 3.17538 97.8556 3.17538C97.4657 3.17538 97.4531 3.17538 97.4531 3.68708C97.4531 5.5323 97.4531 7.39303 97.4531 9.23826C97.4531 9.50186 97.4531 9.74996 97.4405 10.0136C97.3022 10.0446 97.2644 9.90502 97.2015 9.81198C96.7236 8.88162 95.994 8.86611 95.4908 9.76547C95.4028 9.92053 95.3273 10.2151 95.1386 9.8585C95.0003 8.99016 95.0883 8.10631 95.0758 7.22247C95.0632 6.18356 95.0758 5.16016 95.0758 4.12125C95.0758 3.43898 95.0129 3.36145 94.4846 3.36145C93.9311 3.36145 93.8431 3.45448 93.8431 4.13675C93.8431 7.53259 93.8431 10.9284 93.8431 14.3243C93.8431 14.6809 93.8934 15.053 93.7173 15.3942C93.3022 15.3632 93.428 14.9445 93.428 14.6809C93.4028 13.4404 93.428 12.1844 93.428 10.9439C93.428 10.7734 93.428 10.6028 93.428 10.4322C93.428 9.31579 93.3148 9.19174 92.3965 9.17623C92.0821 9.17623 91.7676 9.25377 91.4909 8.97466L91.4531 8.99016Z" fill="white"/>
  <path d="M86.4031 31.3203C87.4582 32.4005 88.5258 33.4933 89.5809 34.5734C90.0959 35.101 90.6109 35.616 91.1007 36.156C91.3017 36.3821 91.5278 36.4701 91.8292 36.4701C93.0476 36.4575 94.2659 36.4701 95.4968 36.4701C99.7422 36.4701 103.975 36.4701 108.22 36.4701C108.585 36.4701 108.836 36.3696 109.087 36.1058C112.428 32.6266 115.794 29.1474 119.148 25.6682C119.311 25.5049 119.462 25.3416 119.65 25.1406C119.701 25.329 119.588 25.3918 119.525 25.4672C116.058 29.5493 112.604 33.6314 109.15 37.7135C108.911 38.0024 108.66 38.1406 108.271 38.1406C102.807 38.128 97.3432 38.1406 91.892 38.1406C91.578 38.1406 91.3394 38.0903 91.1258 37.8266C89.4553 35.8295 87.7722 33.8575 86.0891 31.873C86.0514 31.8353 86.0389 31.785 86.0012 31.7474C85.9384 31.3329 86.0012 31.2701 86.4283 31.3203H86.4031Z" fill="white"/>
  <path d="M91.4157 7.26828C91.8679 7.26828 92.3201 7.26828 92.7723 7.26828C93.2747 7.26828 93.4882 7.48181 93.5133 7.99678C93.5133 8.21031 93.5133 8.41128 93.5133 8.6248C93.5133 9.75523 93.5133 10.8857 93.5133 12.0035C93.5133 12.1668 93.4631 12.3552 93.6012 12.4934C93.8776 12.8074 93.752 13.1842 93.7645 13.5485C93.7897 14.1137 93.8776 14.2142 94.3926 14.2142C94.895 14.2142 95.008 14.1011 95.0206 13.5485C95.0206 11.9784 95.0206 10.4209 95.0206 8.85089C95.0206 8.59968 94.9703 8.32335 95.1839 8.10983C95.1839 8.10983 95.209 8.08471 95.2215 8.07215C95.3471 7.82094 95.3723 7.45669 95.6486 7.33109C95.9877 7.18036 96.3896 7.28085 96.7665 7.28085C96.9297 7.28085 97.0177 7.38133 97.0805 7.51949C97.1809 7.72046 97.2689 7.92142 97.3693 8.10983C97.3693 10.7224 97.3819 13.3349 97.3819 15.9475C97.3819 16.362 97.3819 16.362 96.9297 16.3745C96.0631 16.3745 95.1838 16.3745 94.3172 16.3745C93.5259 16.3745 93.6138 16.2741 93.6138 17.0528C93.6138 19.4769 93.6138 21.9011 93.6138 24.3127C93.6138 24.5262 93.6138 24.7272 93.5887 24.9407C93.237 24.79 93.3375 24.476 93.3375 24.2248C93.3375 22.2905 93.3375 20.3562 93.3375 18.4219C93.3375 18.246 93.3375 18.0702 93.3375 17.8943C93.3375 17.0402 93.2244 16.9523 92.3578 16.9272C92.0312 16.9272 91.6921 17.0026 91.4032 16.7639C91.4032 16.4122 91.3906 16.0731 91.3906 15.7214C91.3906 12.8953 91.3906 10.0692 91.4032 7.24316L91.4157 7.26828Z" fill="white"/>
  <path d="M102.728 25.782C103.255 25.782 103.77 25.782 104.298 25.782C104.725 25.782 104.813 25.8824 104.813 26.3095C104.813 28.7588 104.813 31.2206 104.813 33.6699C104.813 34.1346 104.813 34.1346 104.348 34.1346C102.59 34.1346 100.831 34.1346 99.0728 34.1346C99.0728 34.009 99.0352 33.8959 99.0352 33.7703C99.0352 31.1829 99.0352 28.608 99.0352 26.0206C99.0352 25.9327 99.0352 25.8448 99.0477 25.7568C99.5501 25.7568 100.053 25.7568 100.555 25.7568C101.045 25.7568 101.133 25.8448 101.133 26.3346C101.133 27.9172 101.133 29.4998 101.133 31.0699C101.133 31.2457 101.057 31.4592 101.233 31.61C101.447 31.4216 101.723 31.4467 101.987 31.4467C102.439 31.4718 102.539 31.2206 102.539 30.8312C102.539 29.3993 102.539 27.98 102.539 26.5481C102.539 26.2718 102.489 25.9829 102.703 25.7568L102.728 25.782Z" fill="white"/>
  <path d="M101.249 10.144C101.249 11.9778 101.249 13.7991 101.249 15.6329C101.249 15.7585 101.249 15.8715 101.249 15.9971C101.274 16.2484 101.186 16.374 100.897 16.374C100.369 16.3614 99.8544 16.3614 99.3269 16.374C99.0505 16.374 98.9626 16.2735 98.9626 16.0097C98.9626 14.8918 98.9501 13.774 98.9626 12.6687C99.0254 9.88026 99.0129 7.09186 99.0254 4.31603C99.0254 3.83873 99.0254 3.83873 99.5153 3.82617C99.9172 3.82617 100.319 3.82617 100.721 3.82617C101.223 3.82617 101.223 3.82617 101.223 4.35371C101.223 5.44646 101.223 6.55177 101.223 7.64452C101.223 8.48606 101.223 9.31504 101.223 10.1566L101.249 10.144Z" fill="white"/>
  <path d="M106.508 29.8631C106.508 29.6747 106.483 29.4863 106.496 29.2853C106.496 21.0081 106.496 12.7308 106.508 4.45354C106.508 3.75016 106.445 3.81297 107.149 3.81297C107.475 3.81297 107.815 3.81297 108.141 3.81297C108.694 3.81297 108.694 3.81297 108.694 4.3405C108.694 7.983 108.694 11.6255 108.694 15.268C108.694 15.3936 108.694 15.5066 108.681 15.6323C108.304 15.9086 107.877 15.783 107.463 15.7955C106.797 15.8207 106.759 15.8458 106.747 16.5115C106.747 19.1743 106.747 21.8496 106.747 24.5124C106.747 24.7259 106.747 24.9269 106.747 25.1404C106.772 26.5221 106.747 27.8911 106.747 29.2728C106.747 29.4486 106.747 29.6245 106.659 29.7878C106.621 29.8506 106.571 29.8882 106.496 29.8631H106.508Z" fill="white"/>
  <path d="M104.917 22.9545C104.766 22.7912 104.829 22.5902 104.829 22.4018C104.829 20.4047 104.829 18.3951 104.829 16.398C104.829 16.2724 104.829 16.1593 104.829 16.0337C104.804 15.6695 104.678 15.5313 104.314 15.5313C103.786 15.5313 103.271 15.5313 102.744 15.5313C102.744 15.3429 102.719 15.1545 102.719 14.9535C102.719 11.4492 102.719 7.94485 102.719 4.45308C102.719 4.32747 102.719 4.21443 102.719 4.08883C102.719 3.88786 102.819 3.8125 103.008 3.8125C103.548 3.8125 104.088 3.8125 104.628 3.8125C104.816 3.8125 104.929 3.8753 104.917 4.08883C104.917 4.18931 104.917 4.30235 104.917 4.40284C104.917 10.4318 104.917 16.4608 104.917 22.4897C104.917 22.6405 104.904 22.8037 104.892 22.9545H104.917Z" fill="white"/>
  <path d="M106.602 25.1545C106.602 22.1526 106.602 19.1507 106.602 16.1362C106.602 15.6338 106.602 15.6338 107.129 15.6338C107.657 15.6338 108.172 15.6338 108.699 15.6338C108.699 18.1333 108.712 20.6328 108.724 23.1198C108.724 23.798 108.712 24.4763 108.699 25.142C107.996 25.4057 107.305 25.3932 106.602 25.142V25.1545Z" fill="white"/>
  <path d="M91.4157 16.776C91.8177 16.776 92.2196 16.8011 92.6215 16.776C93.2872 16.7132 93.5384 17.0523 93.5259 17.6552C93.5008 19.9035 93.5259 22.1393 93.5259 24.3876C93.5259 24.576 93.4631 24.7769 93.6138 24.9402C93.6138 26.5228 93.6264 28.1054 93.6264 29.688C93.6264 31.0445 93.6264 32.4011 93.6264 33.7576C93.6264 34.2223 93.6264 34.2349 93.1742 34.2349C92.7095 34.2349 92.2322 34.2349 91.7674 34.2349C91.6544 34.2349 91.5162 34.2725 91.4283 34.1469C91.8051 33.8706 92.2322 34.0088 92.6467 33.9962C93.3124 33.9711 93.35 33.9585 93.35 33.3305C93.35 31.0194 93.35 28.6958 93.35 26.3846C93.35 25.6813 93.2119 25.5682 92.4834 25.5305C92.1191 25.518 91.7423 25.6185 91.4157 25.3673C91.4157 25.2291 91.3906 25.0909 91.3906 24.9528C91.3906 22.2272 91.4032 19.5141 91.4157 16.7885V16.776Z" fill="white"/>
  <path d="M106.602 25.1543C107.306 25.1543 107.997 25.1543 108.7 25.1543C108.7 26.5987 108.712 28.0306 108.725 29.4751C108.725 30.8441 108.725 32.2132 108.725 33.5823C108.725 33.7707 108.75 33.9591 108.687 34.1475C108.072 34.2605 107.444 34.1726 106.816 34.1977C106.653 34.1977 106.552 34.1475 106.552 33.9717C106.577 32.6026 106.489 31.2335 106.602 29.8644C106.602 28.2944 106.602 26.7243 106.602 25.1669V25.1543Z" fill="white"/>
  <path d="M91.4157 25.3545C91.8302 25.3545 92.2447 25.3545 92.6718 25.3545C92.8476 25.3545 93.0109 25.3671 93.1742 25.4424C93.4128 25.5429 93.5133 25.6811 93.5133 25.9574C93.5133 28.5448 93.5133 31.1322 93.5133 33.7197C93.5133 34.1216 93.5133 34.1342 93.0988 34.1342C92.5462 34.1342 91.981 34.1342 91.4283 34.1342C91.4157 34.0086 91.3906 33.8955 91.3906 33.7699C91.3906 31.0318 91.3906 28.2936 91.3906 25.5555C91.3906 25.4927 91.3906 25.4173 91.4032 25.3545H91.4157Z" fill="white"/>
  <path d="M95.2001 27.452C95.4387 27.1254 95.401 26.736 95.5015 26.3718C95.5894 26.0201 95.6522 25.9824 96.3179 25.9824C96.9208 25.9824 96.9836 26.0201 97.0841 26.3718C97.1846 26.736 97.1469 27.1254 97.3856 27.452C97.3856 29.5998 97.3856 31.7351 97.4107 33.8829C97.4107 34.1215 97.3353 34.2346 97.0841 34.222C96.5943 34.2094 96.1044 34.222 95.6145 34.222C95.1875 34.222 95.1875 34.222 95.1875 33.7824C95.1875 31.9737 95.1875 30.1525 95.1875 28.3438C95.1875 28.0423 95.1875 27.7534 95.2001 27.452Z" fill="white"/>
  <path d="M112.775 16.2606C112.775 16.0722 112.75 15.8838 112.75 15.6828C112.75 10.6964 112.75 5.70989 112.763 0.723437C112.763 0.648075 112.763 0.585274 112.763 0.509912C112.763 0.0577392 112.976 -0.0804246 113.428 0.0451789C113.529 0.0702996 113.579 0.133101 113.579 0.221024C113.579 0.359188 113.579 0.497351 113.579 0.635515C113.579 9.99297 113.592 19.3504 113.592 28.7204C113.592 28.9214 113.679 29.1475 113.491 29.3108C113.265 29.047 113.328 28.7204 113.328 28.4064C113.328 24.6886 113.328 20.9833 113.328 17.2654C113.328 16.7881 113.265 16.4113 112.763 16.2355L112.775 16.2606Z" fill="white"/>
  <path d="M89.0181 14.5776C89.0181 14.4017 88.993 14.2259 88.993 14.05C88.993 9.59112 88.993 5.1322 89.0056 0.673276C89.0056 0.635595 89.0056 0.597914 89.0056 0.572793C89.0056 0.0452588 89.1186 -0.0301033 89.6085 0.0452588C89.7592 0.0703795 89.822 0.145742 89.822 0.283905C89.822 0.384388 89.822 0.497431 89.822 0.597914C89.822 11.0481 89.822 21.5109 89.8346 31.9611C89.8346 32.0993 89.8471 32.25 89.8095 32.3756C89.7718 32.5012 89.6839 32.451 89.6211 32.3756C89.5708 32.1244 89.5582 31.8606 89.5582 31.5968C89.5582 26.2713 89.5582 20.9331 89.5582 15.6075C89.5582 15.1302 89.4829 14.7534 88.9805 14.5901L89.0181 14.5776Z" fill="white"/>
  <path d="M84.1751 26.8498C84.0244 26.7116 84.0872 26.5232 84.0872 26.36C84.0872 17.7687 84.0872 9.18997 84.0998 0.598689C84.0998 0.561008 84.0998 0.523327 84.0998 0.498206C84.0998 0.0585938 84.1123 0.0585938 84.5394 0.0585938C84.9036 0.0585938 84.9162 0.0585938 84.9287 0.435404C84.9287 0.523327 84.9287 0.611249 84.9287 0.699171C84.9287 5.17065 84.9287 9.6547 84.9287 14.1262C84.9287 14.3146 84.9162 14.503 84.9036 14.704C84.4012 14.8672 84.3384 15.2566 84.3384 15.7339C84.351 19.1503 84.3384 22.5542 84.3384 25.9706C84.3384 26.272 84.4138 26.5986 84.1626 26.8624L84.1751 26.8498Z" fill="white"/>
  <path d="M110.493 32.3764C110.43 32.4644 110.342 32.4895 110.304 32.3764C110.267 32.2634 110.279 32.1378 110.279 32.0122C110.279 22.7552 110.279 13.4982 110.304 4.24126C110.304 2.98523 110.33 1.72919 110.355 0.485717C110.355 0.0837859 110.568 -0.0543779 110.958 0.0712256C111.058 0.0963463 111.108 0.159148 111.108 0.259631C111.108 0.360114 111.108 0.473157 111.108 0.573639C111.196 4.98232 111.184 9.391 111.184 13.7997C111.184 19.59 111.184 25.3803 111.184 31.1581C111.184 31.359 111.259 31.5726 111.096 31.7484C110.932 31.5851 110.932 31.3716 110.932 31.1581C110.932 28.2566 110.907 25.3552 110.932 22.4538C110.907 18.6731 110.932 14.8924 110.932 11.1118C110.932 10.8982 110.932 10.6973 110.907 10.4838C110.895 10.3833 110.87 10.2577 110.744 10.2577C110.618 10.2577 110.581 10.3707 110.568 10.4712C110.531 10.6722 110.543 10.8857 110.543 11.0992C110.543 14.8799 110.556 18.6605 110.543 22.4412C110.568 25.6064 110.543 28.7591 110.556 31.9243C110.556 32.0875 110.505 32.2383 110.505 32.389L110.493 32.3764Z" fill="white"/>
  <path d="M89.0151 14.577C89.8189 14.577 89.7436 14.4891 89.7436 15.3055C89.7436 20.7944 89.7436 26.2832 89.7436 31.7721C89.7436 31.9731 89.8315 32.1991 89.6305 32.3624C89.1156 32.0107 88.9648 31.5334 88.9648 30.9054C89.0025 25.6426 88.99 20.3673 89.0025 15.1045C89.0025 14.9287 89.0025 14.7528 89.0025 14.577H89.0151Z" fill="white"/>
  <path d="M81.697 20.2293C81.697 20.0408 81.6719 19.8524 81.6719 19.6515C81.6719 13.3336 81.6719 7.00321 81.6844 0.685358C81.6844 0.635116 81.6844 0.584875 81.6844 0.534634C81.6844 0.0950215 81.9733 -0.0933836 82.3878 0.0699008C82.4632 0.0950215 82.5009 0.145263 82.5009 0.220625C82.5009 0.321108 82.5009 0.434151 82.5009 0.534634C82.5009 5.11916 82.5009 9.69112 82.5009 14.2756C82.5009 14.3761 82.5009 14.4892 82.4757 14.5897C82.0487 14.5269 82.2371 14.0747 82.011 13.8486C81.8477 14.0621 81.9105 14.3008 81.9105 14.5143C81.9105 16.1974 81.9105 17.893 81.9105 19.5761C81.9105 19.8148 81.9984 20.1162 81.6719 20.2418L81.697 20.2293Z" fill="white"/>
  <path d="M79.2799 12.9066C79.2799 12.7307 79.2548 12.5549 79.2548 12.379C79.2548 8.47278 79.2548 4.57907 79.2548 0.672804C79.2548 0.622563 79.2548 0.572321 79.2548 0.52208C79.2548 0.0322265 79.2799 0.0322266 79.7572 0.0322266C80.0084 0.0322266 80.1089 0.120149 80.0837 0.371356C80.0837 0.471839 80.0837 0.584882 80.0837 0.685365C80.0837 7.80708 80.0837 14.9288 80.0837 22.0631C80.0837 22.2138 80.0963 22.3771 80.0586 22.5278C80.0209 22.666 79.933 22.5906 79.8702 22.5278C79.7948 22.2892 79.8074 22.0505 79.8074 21.7993C79.8074 18.8099 79.8074 15.8206 79.8074 12.8312C79.8074 12.6303 79.8451 12.4167 79.7572 12.2032C79.4683 12.3665 79.619 12.8312 79.2422 12.9066H79.2799Z" fill="white"/>
  <path d="M86.6045 29.323C86.4161 29.1597 86.4914 28.9336 86.4914 28.7326C86.4914 23.3191 86.4914 17.893 86.4914 12.4795C86.4914 8.57326 86.4914 4.67955 86.4914 0.773287C86.4914 0.672804 86.4914 0.559761 86.4914 0.459278C86.4914 0.182951 86.6254 0.0406001 86.8934 0.0322266C87.3958 0.0322266 87.3958 0.0322266 87.4084 0.610003C87.4084 6.90274 87.4084 13.1829 87.4084 19.4756C87.4084 22.8041 87.4084 26.1326 87.4084 29.4611C87.4084 29.6118 87.4084 29.7751 87.3958 29.9258C87.3707 30.0515 87.2827 30.0263 87.2199 29.9384C87.1446 29.549 87.1446 29.1471 87.1446 28.7452C87.1446 25.2785 87.132 21.8119 87.1571 18.3452C87.132 14.5771 87.1571 10.8216 87.1571 7.05346C87.1571 6.83993 87.1571 6.63897 87.1195 6.42544C87.0943 6.33752 87.0567 6.2496 86.9562 6.2496C86.8557 6.2496 86.8055 6.32496 86.7929 6.42544C86.7427 6.62641 86.7552 6.83993 86.7552 7.05346C86.7552 10.608 86.7552 14.1626 86.7552 17.7172C86.7552 17.9307 86.7552 18.1317 86.7552 18.3452C86.7803 21.7993 86.7552 25.266 86.7552 28.7201C86.7552 28.921 86.7552 29.1471 86.5919 29.3104L86.6045 29.323Z" fill="white"/>
  <path d="M118.431 11.5503C118.431 13.7232 118.443 15.9087 118.443 18.0817C118.443 19.928 118.431 21.7744 118.456 23.6208C118.456 24.1358 118.355 24.5377 117.941 24.8391C117.853 24.9145 117.803 25.0401 117.602 25.0527V22.8295C117.677 22.6411 117.639 22.4527 117.639 22.2643C117.639 18.6218 117.639 14.9793 117.639 11.3368C117.639 11.2112 117.639 11.0981 117.639 10.9725C117.639 10.8092 117.639 10.6334 117.828 10.5957C118.054 10.5455 118.192 10.6962 118.267 10.8846C118.355 11.0981 118.33 11.3368 118.405 11.5503H118.431Z" fill="white"/>
  <path d="M118.431 11.5501C118.28 11.3742 118.267 11.1356 118.179 10.9346C118.117 10.809 118.041 10.6708 117.878 10.6834C117.689 10.7085 117.715 10.8718 117.715 11.01C117.715 11.1356 117.715 11.2486 117.715 11.3742C117.715 14.9916 117.715 18.6215 117.715 22.2389C117.715 22.4399 117.777 22.6534 117.627 22.8418C117.627 22.666 117.602 22.4901 117.602 22.3143C117.602 15.1046 117.602 7.895 117.602 0.685365C117.602 0.597442 117.602 0.50952 117.602 0.421597C117.614 0.0447869 117.627 0.0447869 117.991 0.0322266C118.418 0.0322266 118.431 0.0322265 118.431 0.459278C118.431 0.848649 118.431 1.22546 118.431 1.61483C118.431 4.71724 118.431 7.81964 118.431 10.922C118.431 11.1356 118.431 11.3365 118.405 11.5501H118.431Z" fill="white"/>
  <path d="M112.779 16.2609C113.607 16.2609 113.494 16.1981 113.494 16.9894C113.494 21.0967 113.494 25.2165 113.494 29.3237C113.281 29.5498 113.067 29.7759 112.866 29.9894C112.703 29.914 112.753 29.7884 112.753 29.7005C112.753 25.2667 112.753 20.8455 112.753 16.4117C112.753 16.3614 112.753 16.3112 112.753 16.2609H112.779Z" fill="white"/>
  <path d="M120.216 22.5285C120.153 22.6038 120.065 22.6541 120.027 22.5285C119.989 22.4029 120.002 22.2521 120.002 22.114C120.002 14.9546 120.002 7.79518 120.002 0.635785C120.002 0.598104 120.002 0.560423 120.002 0.535302C120.002 0.0831294 120.278 -0.105276 120.705 0.0580088C120.781 0.0831295 120.818 0.133371 120.831 0.208733C120.831 0.309216 120.844 0.422259 120.844 0.522742C120.844 3.49954 120.844 6.47635 120.844 9.46571C120.844 9.54107 120.844 9.60387 120.831 9.67923C120.329 9.84252 120.253 10.2193 120.253 10.6966C120.266 14.3894 120.253 18.0821 120.253 21.7623C120.253 22.0261 120.253 22.2898 120.19 22.541L120.216 22.5285Z" fill="white"/>
  <path d="M120.218 22.5296C120.067 22.4166 120.117 22.2407 120.117 22.09C120.117 18.0958 120.117 14.1142 120.117 10.12C120.117 9.66783 120.117 9.66783 120.582 9.65527C120.67 9.65527 120.758 9.65527 120.846 9.65527C120.846 13.0089 120.858 16.3625 120.871 19.7161C120.871 20.2562 120.846 20.7963 120.871 21.3364C120.896 21.7509 120.783 22.0775 120.444 22.3287C120.356 22.3915 120.281 22.4668 120.205 22.5296H120.218Z" fill="white"/>
  <path d="M84.1844 26.85C84.1844 23.3205 84.1844 19.791 84.197 16.2616C84.197 15.8848 84.197 15.4954 84.197 15.1186C84.197 14.7167 84.197 14.7167 84.6115 14.7041C84.712 14.7041 84.825 14.7041 84.9255 14.7041C84.9255 16.6007 84.9381 18.4848 84.9381 20.3814C84.9381 22.592 84.9381 24.7901 84.9381 27.0007C84.9381 27.164 84.9757 27.3398 84.8753 27.5533C84.6115 27.3272 84.3854 27.1012 84.1719 26.85H84.1844Z" fill="white"/>
  <path d="M116.02 12.2782C116.02 13.5467 116.033 14.8153 116.033 16.0839C116.033 18.9477 116.033 21.8115 116.033 24.6752C116.033 24.8636 116.02 25.052 116.008 25.253C115.656 25.1023 115.769 24.7883 115.769 24.5371C115.769 22.5023 115.769 20.4801 115.769 18.4453C115.769 18.2066 115.807 17.9554 115.694 17.7293C115.505 17.9303 115.568 18.3071 115.204 18.3448C115.204 18.3071 115.191 18.282 115.191 18.2443C115.191 14.7525 115.191 11.2733 115.204 7.78155C115.267 7.6685 115.267 7.55546 115.304 7.42986C115.355 7.25401 115.443 7.09073 115.656 7.11585C115.857 7.14097 115.92 7.31681 115.958 7.49266C115.995 7.6685 115.97 7.84435 115.983 8.00763C116.008 9.42695 115.932 10.8463 116.02 12.2656V12.2782Z" fill="white"/>
  <path d="M81.6916 20.2298C81.8423 20.0665 81.7795 19.8655 81.7795 19.6771C81.7795 17.8182 81.7795 15.9592 81.7795 14.1003C81.7795 13.9119 81.7418 13.7109 81.9051 13.5602C82.0307 13.4346 82.1312 13.4221 82.2317 13.5979C82.2945 13.7235 82.307 13.8617 82.307 13.9998C82.307 14.2134 82.3447 14.4143 82.508 14.565C82.508 16.3612 82.5206 18.1447 82.5206 19.9409C82.5206 21.4732 82.5206 23.0056 82.5206 24.5254C82.5206 24.7012 82.5582 24.8645 82.4577 25.1157C82.2065 24.8645 81.9805 24.6384 81.7544 24.4124C81.6413 24.2993 81.6664 24.1612 81.6664 24.023C81.6664 22.7544 81.6664 21.4858 81.679 20.2172L81.6916 20.2298Z" fill="white"/>
  <path d="M86.6063 29.3243C86.6063 25.6692 86.6063 22.0141 86.6063 18.3591C86.845 18.1707 87.0836 18.1707 87.3097 18.3591C87.3097 22.1021 87.3097 25.8325 87.3222 29.5755C87.3222 29.7136 87.3599 29.8644 87.2218 29.9648C87.0082 29.7513 86.8073 29.5503 86.5938 29.3368L86.6063 29.3243Z" fill="white"/>
  <path d="M79.2781 12.9076C79.3786 12.6313 79.4666 12.355 79.567 12.0787C79.5922 12.0033 79.6298 11.9154 79.6675 11.84C79.7052 11.7772 79.7806 11.7646 79.8559 11.7646C79.9313 11.7646 79.9815 11.8274 79.9815 11.9028C79.9815 12.0284 79.9815 12.1415 79.9815 12.2671C79.9815 15.5202 79.9815 18.7608 79.9815 22.0139C79.9815 22.1772 80.0443 22.3656 79.881 22.5037C79.7429 22.3781 79.6047 22.24 79.454 22.1144C79.2907 21.9636 79.2153 21.7878 79.2279 21.5617C79.2279 18.6728 79.2405 15.784 79.253 12.8825L79.2781 12.9076Z" fill="white"/>
  <path d="M115.191 18.3473C115.417 18.0835 115.48 17.7695 115.505 17.4304C115.505 17.3676 115.543 17.2922 115.618 17.2671C115.731 17.242 115.769 17.3299 115.794 17.4052C115.895 17.6564 115.907 17.9077 115.907 18.1714C115.907 20.3444 115.907 22.5173 115.907 24.6902C115.907 24.8786 115.844 25.0796 115.995 25.2429C115.995 25.5192 115.97 25.8081 116.02 26.0719C116.158 26.7753 115.706 27.1395 115.242 27.5038C115.129 27.3782 115.166 27.2525 115.166 27.1395C115.166 24.2757 115.166 21.412 115.166 18.5357C115.166 18.4603 115.166 18.3975 115.179 18.3221L115.191 18.3473Z" fill="white"/>
  <path d="M110.495 32.3762C110.332 32.2632 110.382 32.0999 110.382 31.9492C110.382 28.7839 110.382 25.6062 110.382 22.441C110.621 22.24 110.847 22.2526 111.086 22.441C111.086 25.5434 111.086 28.6458 111.098 31.7356C110.897 31.9492 110.684 32.1627 110.483 32.3762H110.495Z" fill="white"/>
  <path d="M116.022 12.2792C115.871 12.1159 115.934 11.915 115.934 11.7391C115.934 10.4705 115.934 9.21449 115.934 7.94589C115.934 7.71981 115.934 7.49372 115.783 7.30532C115.695 7.19227 115.595 7.15459 115.494 7.30532C115.394 7.4686 115.356 7.65701 115.205 7.79517C115.205 6.22513 115.205 4.65508 115.193 3.0976C115.193 2.23094 115.193 1.35171 115.193 0.485048C115.193 0.346884 115.117 0.145919 115.331 0.0831171C115.532 0.0328757 115.745 0.0328757 115.946 0.0956774C115.984 0.0956774 116.009 0.1836 116.022 0.221281C116.034 0.321764 116.034 0.434807 116.034 0.535289C116.034 4.36619 116.034 8.1971 116.034 12.028C116.034 12.1159 116.034 12.2039 116.022 12.2918V12.2792Z" fill="white"/>
  <path d="M86.4031 31.3197C86.1518 31.3574 85.9509 31.4453 85.976 31.7467C85.2726 31.0434 84.6697 30.2521 84.0292 29.4984C82.8862 28.167 81.7432 26.8105 80.6127 25.4666C80.5499 25.3912 80.4495 25.3284 80.462 25.2028C80.5876 25.1777 80.6379 25.2907 80.7007 25.3535C82.5722 27.2878 84.4311 29.2095 86.29 31.1438C86.3403 31.1941 86.3654 31.2569 86.4031 31.3071V31.3197Z" fill="white"/>
  <path d="M106.604 29.8516C106.604 31.1202 106.604 32.3888 106.604 33.6699C106.604 34.1346 106.604 34.1346 107.068 34.1472C107.608 34.1472 108.148 34.1472 108.689 34.1472C108.613 34.2477 108.513 34.2351 108.412 34.2351C107.91 34.2351 107.407 34.2351 106.905 34.2351C106.528 34.2351 106.516 34.2351 106.516 33.8709C106.516 32.5395 106.516 31.2081 106.528 29.8641C106.553 29.8641 106.591 29.8641 106.616 29.8641L106.604 29.8516Z" fill="white"/>
  <path d="M6.51953 59.3929C7.28571 57.7852 7.98909 56.2779 8.74271 54.6953C9.49633 56.2779 10.1997 57.7852 10.9533 59.3678C9.45865 59.418 8.03933 59.3678 6.51953 59.3929Z" fill="#07060A"/>
  <path d="M99.8889 57.459C99.4995 57.459 99.1227 57.4465 98.7333 57.459C98.4696 57.4716 98.4068 57.3711 98.4068 57.1325C98.4068 56.2407 98.4068 55.3615 98.4068 54.4697C98.4068 53.3769 98.4068 52.2716 98.4068 51.1789C98.4068 50.9779 98.3816 50.8021 98.6831 50.7895C99.8512 50.7895 101.019 50.7267 102.175 50.9905C102.326 51.0281 102.476 51.0658 102.627 51.1161C104.436 51.719 105.265 53.3895 104.662 55.1982C104.398 56.002 103.833 56.5547 103.092 56.9315C102.25 57.3586 101.346 57.4967 100.404 57.4842C100.228 57.4842 100.052 57.4842 99.8763 57.4842C99.8763 57.4842 99.8763 57.4716 99.8763 57.459H99.8889Z" fill="#07060A"/>
  <path d="M79.861 59.3435C79.2078 59.4188 75.917 59.4063 75.4648 59.3184C76.1808 57.7986 76.8967 56.3039 77.6503 54.6836C78.404 56.2788 79.1199 57.7986 79.8484 59.3309L79.861 59.3435Z" fill="#07060A"/>
  <path d="M122.639 54.6953C123.393 56.2905 124.109 57.7977 124.85 59.3552H120.441C121.17 57.8103 121.898 56.2905 122.652 54.6953H122.639Z" fill="#07060A"/>
  <path d="M111.086 22.4399C110.848 22.4399 110.621 22.4399 110.383 22.4399C110.383 21.3095 110.383 20.1791 110.383 19.0486C110.383 16.2853 110.383 13.5095 110.383 10.7462C110.383 10.6206 110.383 10.5076 110.383 10.382C110.395 10.0303 110.571 9.90469 110.923 10.0052C111.011 10.0303 111.074 10.0805 111.086 10.181C111.086 10.2815 111.086 10.3945 111.086 10.495C111.086 14.4013 111.086 18.295 111.086 22.2013C111.086 22.2892 111.086 22.3771 111.074 22.465L111.086 22.4399Z" fill="white"/>
  <path d="M87.3167 18.3595C87.078 18.3595 86.8394 18.3595 86.6133 18.3595C86.6133 14.3904 86.6133 10.4214 86.6133 6.45231C86.6133 6.03782 86.651 6.0127 87.0026 6.0127C87.2539 6.0127 87.3543 6.11318 87.3292 6.35182C87.3292 6.40207 87.3292 6.45231 87.3292 6.50255C87.3292 10.3837 87.3292 14.2648 87.3292 18.146C87.3292 18.2213 87.3292 18.2842 87.3292 18.3595H87.3167Z" fill="white"/>
</svg>