<svg xmlns="http://www.w3.org/2000/svg" width="160" height="84" viewBox="0 0 160 84" fill="none">
  <path d="M142.349 28.5873C143.786 27.3555 145.214 27.4488 146.632 28.8672C150.887 33.1223 155.114 37.3773 159.397 41.5764C160.153 42.3322 160.237 42.7242 159.425 43.536C154.75 48.127 150.103 52.774 145.512 57.4489C144.616 58.3727 144.057 58.4567 143.301 57.4489C143.049 57.113 142.685 56.8891 142.377 56.6091C142.237 56.4971 142.125 56.3852 142.069 56.2172C141.733 54.2296 141.985 52.2421 141.901 50.2545C141.845 48.7148 141.761 48.6589 140.221 48.6029C138.234 48.5469 136.246 48.7988 134.259 48.4349C134.091 48.3789 133.951 48.2669 133.867 48.099C132.663 46.8673 131.487 45.6355 130.284 44.4038C128.464 42.5842 128.464 42.5842 130.34 40.7086C131.571 39.4489 132.803 38.1892 134.035 36.9294C134.147 36.7895 134.287 36.7055 134.455 36.6495C136.386 36.3696 138.346 36.5655 140.305 36.5095C141.789 36.4535 141.873 36.3696 141.929 34.9139C141.985 32.9263 141.761 30.9107 142.069 28.9232C142.125 28.7552 142.237 28.6432 142.377 28.5313L142.349 28.5873Z" fill="white"/>
  <path d="M142.35 28.5874C142.35 28.6714 142.294 28.7833 142.266 28.8673C141.902 29.7071 141.202 30.267 140.587 30.8829C138.935 32.5625 137.255 34.2142 135.576 35.8938C135.184 36.2857 134.792 36.6776 134.232 36.8736C134.148 36.9016 134.064 36.9296 133.98 36.9576C131.097 36.9576 128.213 36.9016 125.33 36.9576C124.35 36.9576 124.07 36.6496 124.07 35.6978C124.098 31.8347 124.07 27.9715 124.07 24.1084C124.014 23.9964 123.986 23.8564 124.042 23.7445C125.582 21.9248 127.346 20.3012 129.053 18.6496C129.221 18.5376 129.417 18.4816 129.613 18.5376C133.42 18.5376 137.255 18.5936 141.063 18.5376C142.042 18.5376 142.35 18.8175 142.322 19.7973C142.266 22.7367 142.322 25.648 142.322 28.5874H142.35Z" fill="white"/>
  <path d="M142.267 56.2734C142.267 56.3854 142.323 56.4974 142.323 56.5813C142.323 58.7649 142.295 60.9484 142.295 63.1319C142.295 65.2594 141.203 66.3232 139.019 66.3232C135.996 66.3232 132.973 66.3512 129.949 66.3792C129.809 66.4352 129.697 66.4352 129.557 66.3792C127.598 64.6436 125.75 62.796 124.015 60.8364C123.959 60.6964 123.959 60.5845 124.015 60.4445C124.015 56.7213 124.071 52.9981 124.015 49.3029C124.015 48.3232 124.295 48.0432 125.274 48.0712C128.102 48.1272 130.957 48.0712 133.785 48.0712C133.896 48.0712 134.008 48.1272 134.12 48.1552C134.876 48.4911 135.38 49.079 135.94 49.6389C137.676 51.3745 139.411 53.1101 141.147 54.8457C141.567 55.2656 141.959 55.7135 142.211 56.2734H142.267Z" fill="white"/>
  <path d="M129.612 18.5097C129.472 18.5937 129.304 18.6777 129.164 18.7617C128.1 19.0136 127.036 18.9296 125.972 18.8737C124.881 18.8457 124.517 19.3216 124.517 20.3573C124.517 21.5051 124.769 22.6808 124.125 23.7726C124.125 23.8566 124.097 23.9685 124.069 24.0525C121.969 26.348 119.87 28.6435 117.742 30.939C117.574 30.799 117.406 30.6591 117.238 30.5471V0.00578643C117.658 -0.0502013 117.798 0.313719 117.994 0.509676C122.641 5.15666 127.26 9.80364 131.935 14.4226C132.663 15.1225 132.635 15.5144 131.935 16.1303C131.095 16.8581 130.367 17.7259 129.612 18.5097Z" fill="white"/>
  <path d="M129.696 66.2948C129.78 66.3228 129.892 66.3508 129.975 66.3788C130.031 66.4628 130.059 66.5468 130.115 66.6028C130.815 67.3586 132.019 68.0864 132.047 68.8423C132.075 69.8501 130.731 70.4939 129.947 71.2777C126.112 75.1409 122.249 79.0041 118.386 82.8392C118.05 83.1751 117.714 83.4831 117.238 83.931V53.8096C119.534 56.0491 121.773 58.2326 124.013 60.4161C124.041 60.5001 124.069 60.6121 124.097 60.6961C124.741 61.8718 124.461 63.1595 124.461 64.3913C124.461 65.455 124.853 65.8749 125.944 65.8749C127.176 65.8749 128.464 65.595 129.64 66.2389L129.696 66.2948Z" fill="white"/>
  <path d="M71.832 24.8643C71.832 27.1038 71.804 29.3153 71.832 31.5548C71.832 32.3946 71.58 32.6745 70.7402 32.6745C69.8164 32.6745 69.8164 32.1987 69.8164 31.5268C69.8164 26.5999 69.8164 21.645 69.8164 16.718C69.8164 15.9342 70.0124 15.6263 70.8242 15.6823C72.1399 15.7383 73.4276 15.6823 74.7433 15.7383C77.6547 15.8222 79.1664 17.2779 79.3063 20.1053C79.4463 22.7367 78.1306 24.1644 75.2472 24.6123C75.0793 24.6123 74.9113 24.6683 74.5754 24.7243C76.5069 27.1598 78.3825 29.4553 80.3421 31.9187C82.8056 26.2919 85.213 20.7772 87.7605 14.9824C89.4401 18.7896 90.9798 22.3168 92.5194 25.816C93.3033 27.6077 94.1151 29.3993 94.8429 31.1909C95.0109 31.6108 95.7947 32.2546 94.9829 32.5626C94.311 32.8145 93.3033 32.9825 92.8834 31.8347C92.4634 30.659 91.8756 29.5392 91.4557 28.3635C91.2037 27.6357 90.7838 27.3837 90.028 27.4117C88.5443 27.4677 87.0326 27.4677 85.549 27.4117C84.7371 27.3837 84.3732 27.6636 84.1213 28.3915C83.8133 29.2593 83.4494 30.1271 83.0295 30.9669C82.6936 31.6108 82.7776 32.7305 81.6578 32.6186C80.2301 32.5066 78.6345 33.2904 77.4587 31.6388C75.7791 29.2593 73.9315 26.9918 72.1679 24.6963C72.0559 24.7523 71.9719 24.8083 71.86 24.8643H71.832Z" fill="white"/>
  <path d="M64.4728 44.4599C64.4728 39.505 68.5319 35.5579 73.5148 35.6139C78.6097 35.6699 82.4449 39.561 82.4169 44.5999C82.4169 49.4988 78.4138 53.39 73.4308 53.362C68.4199 53.362 64.4448 49.4148 64.4728 44.4599Z" fill="white"/>
  <path d="M60.2695 64.8399C60.2695 59.829 64.1607 55.9658 69.2276 55.9658C74.3225 55.9658 78.2136 59.801 78.2136 64.8119C78.2136 69.8228 74.2945 73.602 69.1716 73.602C64.1887 73.602 60.2695 69.7388 60.2695 64.8119V64.8399Z" fill="white"/>
  <path d="M41.9906 64.4204C42.5505 64.4204 43.1103 64.4204 43.6702 64.4204C44.9953 64.4204 45.5925 65.0922 45.4618 66.4359C45.0979 70.4951 42.0466 73.4344 38.0435 73.6024C33.0605 73.8263 29.4773 71.2509 28.6935 66.8838C27.9097 62.3768 29.7013 58.4297 33.2845 56.7501C36.7837 55.1264 41.4027 55.9382 43.7262 58.5977C44.2021 59.1575 44.538 59.5774 43.7262 60.1373C43.1383 60.5012 42.8024 61.0611 42.0746 60.1373C40.3389 57.8698 37.9035 57.4499 35.3001 58.2057C32.6966 58.9336 31.3249 60.8372 30.905 63.4406C30.5691 65.4842 30.793 67.4157 32.0248 69.1514C33.6484 71.4189 35.9439 72.0627 38.5473 71.6428C40.7869 71.2789 42.2985 69.9352 43.0264 67.7237C43.3623 66.7439 43.3063 66.212 42.0746 66.352C41.2068 66.4359 40.311 66.352 39.4151 66.38C38.6593 66.4359 38.4914 66.1 38.4914 65.4002C38.4914 64.6723 38.7433 64.3924 39.4711 64.4484C40.311 64.5044 41.1508 64.4484 41.9906 64.4484V64.4204Z" fill="white"/>
  <path d="M16.7396 44.4876C16.7396 42.0242 16.7396 39.5607 16.7396 37.0692C16.7396 36.5374 16.7396 36.0335 17.4954 36.0615C19.6789 36.1175 21.8905 35.9495 24.046 36.2014C27.9371 36.6493 30.3166 39.4207 30.5686 43.5358C30.7085 45.5514 30.4846 47.5669 29.3928 49.3306C27.8811 51.766 25.5577 52.7458 22.7863 52.8298C21.1626 52.8858 19.511 52.8298 17.8873 52.8858C16.9635 52.9418 16.6836 52.6618 16.6836 51.71C16.7396 49.3026 16.6836 46.8671 16.6836 44.4316L16.7396 44.4876Z" fill="white"/>
  <path d="M104.641 23.6332C106.909 24.9209 107.748 26.7685 107.16 29.036C106.545 31.3875 105.033 32.4793 102.29 32.5352C100.89 32.5632 99.4902 32.6192 98.1185 32.6752C97.3346 32.7312 97.0547 32.4233 97.0547 31.6394C97.0547 26.6565 97.0827 21.6736 97.0547 16.6907C97.0547 15.8789 97.3626 15.6549 98.1185 15.6829C99.4062 15.7389 100.722 15.6829 102.038 15.7389C104.361 15.8229 105.705 16.7467 106.321 18.6223C106.993 20.6379 106.489 22.1215 104.669 23.6052L104.641 23.6332Z" fill="white"/>
  <path d="M53.0474 65.2318C55.2029 67.9192 57.1905 70.4386 59.29 73.042C57.8623 73.406 56.7986 73.406 55.9027 72.1462C54.2511 69.8227 52.4875 67.6112 50.4439 65.3997C50.4439 66.7994 50.4439 68.1991 50.4439 69.5708C50.4439 70.4106 50.4159 71.2504 50.4439 72.0902C50.4999 72.9021 50.276 73.266 49.3802 73.266C48.4564 73.266 48.3164 72.8461 48.3164 72.0623C48.3164 67.2193 48.3444 62.3764 48.3164 57.5334C48.3164 56.5257 48.6523 56.2457 49.6041 56.3017C51.1438 56.3857 52.6834 56.2457 54.1951 56.4417C56.6586 56.7496 57.8063 58.3733 57.7783 61.0887C57.7503 63.5241 56.5746 64.8398 54.1111 65.1758C53.8312 65.2038 53.5513 65.2038 53.0194 65.2318H53.0474Z" fill="white"/>
  <path d="M96.5524 52.7736C94.8447 53.1936 93.725 52.8576 92.7732 51.4019C91.3175 49.1904 89.5819 47.1469 87.6783 44.6834C87.6783 46.699 87.6783 48.3226 87.6783 49.9743C87.6783 50.5901 87.6503 51.178 87.6783 51.7939C87.7343 52.5777 87.5943 52.9976 86.6425 52.9696C85.7747 52.9696 85.5508 52.6617 85.5508 51.8219C85.5788 46.9229 85.5788 42.024 85.5508 37.1251C85.5508 36.3412 85.7747 36.0333 86.5865 36.0613C88.0422 36.1173 89.4699 36.0613 90.9256 36.0893C93.529 36.1733 94.9567 37.7129 95.0407 40.4004C95.0967 43.1997 93.837 44.6274 91.1496 44.8234C90.9256 44.8234 90.7016 44.8514 90.2537 44.8794C92.4093 47.5668 94.4248 50.0862 96.5244 52.7457L96.5524 52.7736Z" fill="white"/>
  <path d="M94.4514 62.936C94.3115 64.7276 94.6754 66.9391 94.2275 69.0947C93.7236 71.4181 92.3799 72.9018 90.0284 73.4057C88.3488 73.7696 86.6971 73.7416 85.0735 73.2098C82.778 72.4539 81.4343 70.4384 81.3783 67.387C81.2943 64.0278 81.3783 60.6965 81.3503 57.3372C81.3503 56.4134 81.7422 56.2735 82.5261 56.2735C83.3379 56.2735 83.5618 56.5534 83.5618 57.3372C83.5338 60.5565 83.5618 63.7478 83.5618 66.9671C83.5618 70.6063 85.5774 72.258 89.1606 71.6141C91.0362 71.2782 92.2119 70.0744 92.2679 68.0589C92.3799 64.5597 92.3519 61.0884 92.3519 57.5892C92.3519 56.8053 92.3519 56.2455 93.4437 56.2735C94.3395 56.2735 94.5634 56.5814 94.5354 57.3932C94.4794 59.1008 94.5354 60.8365 94.5354 62.936H94.4514Z" fill="white"/>
  <path d="M15.0607 52.7182C13.4091 53.2781 12.6812 52.6622 12.1213 51.2345C10.7776 47.7353 10.6937 47.9032 6.94248 47.7073C4.75896 47.5673 3.52723 48.1832 3.07933 50.3387C3.02334 50.6466 2.77139 50.9266 2.7154 51.2345C2.37948 52.7742 1.48368 53.3061 0 52.7742C0.195957 51.7384 6.63455 36.8457 7.53035 35.502C10.0778 41.2967 12.5692 47.0074 15.0607 52.7182Z" fill="white"/>
  <path d="M60.4954 15.0107C63.0429 20.8335 65.4503 26.3483 67.8578 31.891C67.9698 32.143 68.3057 32.6189 67.7458 32.6469C67.046 32.6469 66.1222 33.1228 65.6743 32.087C65.1704 30.8833 64.6105 29.7075 64.1906 28.4758C63.9107 27.692 63.4628 27.44 62.6229 27.468C61.1953 27.524 59.7396 27.552 58.2839 27.468C57.4161 27.412 57.0522 27.7759 56.7722 28.5318C56.3523 29.6795 55.7924 30.7433 55.4005 31.891C54.9806 33.0388 54.0568 32.8148 53.329 32.6469C52.6011 32.4789 53.161 31.8631 53.329 31.5271C54.9246 27.8039 56.5483 24.1088 58.1719 20.4136C58.9278 18.7059 59.6556 17.0263 60.5234 15.0667L60.4954 15.0107Z" fill="white"/>
  <path d="M57.5567 35.6139C58.8724 35.6419 60.2721 36.1458 61.2519 37.5175C61.5038 37.8534 61.8397 38.2454 61.2239 38.4973C60.72 38.6933 60.3281 39.729 59.6282 38.8052C59.0124 37.9934 58.2565 37.4335 57.1648 37.4335C56.017 37.4335 55.1212 37.8814 54.7573 38.9732C54.3934 40.0929 54.7013 41.1007 55.7091 41.8006C56.8288 42.5844 58.1446 42.9763 59.3483 43.5362C61.7838 44.7119 62.7355 46.3076 62.5116 48.883C62.2876 51.3745 60.608 52.9421 57.7526 53.3061C55.2892 53.614 53.0217 52.3263 52.2099 50.2267C51.8459 49.3029 52.4338 49.163 53.0217 48.827C53.7495 48.4071 53.9175 48.7431 54.1974 49.3589C54.9533 51.0945 56.129 51.7384 57.8366 51.4865C59.2083 51.2905 60.1881 50.3387 60.468 48.967C60.72 47.5673 60.0481 46.2516 58.5085 45.4398C57.4447 44.8799 56.297 44.488 55.2052 43.9281C53.3296 42.9763 52.3218 41.2407 52.5178 39.4211C52.7697 37.1536 54.7013 35.5859 57.5567 35.5859V35.6139Z" fill="white"/>
  <path d="M102.651 35.6136C103.911 35.6976 105.31 36.0615 106.262 37.3772C106.57 37.7971 106.99 38.245 106.206 38.581C105.702 38.8049 105.254 39.6727 104.61 38.6929C104.079 37.8531 103.267 37.4332 102.259 37.4052C101.111 37.4052 100.243 37.8251 99.8515 38.9449C99.4596 40.0926 99.7955 41.0724 100.775 41.7723C101.839 42.5281 103.099 42.92 104.275 43.4519C106.85 44.6276 107.802 46.1953 107.55 48.9667C107.354 51.3462 105.534 52.9698 102.707 53.3057C100.355 53.5857 98.0319 52.214 97.2761 50.2264C96.8842 49.1906 97.64 49.0787 98.2279 48.7427C98.9837 48.2948 99.0117 48.9107 99.2077 49.3586C99.9355 51.0102 101.055 51.6821 102.735 51.4861C104.107 51.3462 105.198 50.3944 105.478 49.0787C105.786 47.651 105.086 46.2513 103.519 45.4115C102.483 44.8796 101.391 44.4877 100.355 43.9558C98.1159 42.836 97.1641 40.9604 97.724 38.6929C98.1719 36.8453 100.047 35.5576 102.595 35.5576L102.651 35.6136Z" fill="white"/>
  <path d="M98.3717 64.812C98.3717 62.3485 98.3997 59.8851 98.3717 57.4216C98.3717 56.5818 98.5957 56.2459 99.4635 56.3019C101.171 56.4138 102.907 56.1899 104.614 56.5258C106.742 56.9737 107.974 58.6813 107.89 61.2008C107.834 63.4963 106.518 65.2039 104.474 65.4838C103.467 65.6238 102.431 65.6798 101.423 65.6518C100.639 65.6518 100.359 65.9317 100.387 66.7156C100.443 68.5352 100.387 70.3548 100.387 72.1744C100.387 72.9302 100.219 73.2661 99.3795 73.2661C98.5957 73.2661 98.3438 73.0142 98.3438 72.2304C98.3997 69.7669 98.3438 67.3034 98.3438 64.84L98.3717 64.812Z" fill="white"/>
  <path d="M38.2397 48.7426C39.8073 44.6275 41.235 40.9043 42.6627 37.1811C42.8027 36.8172 42.8307 36.2573 43.2786 36.1734C43.8664 36.0334 44.5943 35.8934 45.0422 36.2573C45.4061 36.5653 44.9302 37.0972 44.7622 37.5171C42.6347 42.7799 40.5072 48.0428 38.3796 53.2776C37.8477 53.2216 37.8477 52.7457 37.7358 52.4378C35.6922 47.4549 33.6487 42.444 31.6611 37.4331C31.4931 37.0412 30.8773 36.3693 31.5491 36.1734C32.221 35.9774 33.2288 35.6415 33.6487 36.7892C34.7684 39.7846 35.9442 42.7799 37.0919 45.7753C37.4278 46.6431 37.7638 47.4829 38.2397 48.7146V48.7426Z" fill="white"/>
  <path d="M46.9739 44.3757C46.9739 41.9682 47.0019 39.5328 46.9739 37.1253C46.9739 36.2015 47.3658 36.0895 48.1496 36.0615C48.9615 36.0615 49.1574 36.3415 49.1574 37.1253C49.1294 42.0522 49.1294 46.9791 49.1574 51.9061C49.1574 52.6619 48.9615 52.9698 48.1496 52.9418C47.3938 52.9418 46.9459 52.8578 46.9739 51.9061C47.0299 49.3866 46.9739 46.8952 46.9739 44.3757Z" fill="white"/>
  <path d="M142.263 56.2741C139.463 53.6707 136.748 50.9833 134.145 48.1559C136.468 48.1559 138.792 48.1559 141.087 48.1279C142.011 48.1279 142.291 48.4079 142.291 49.3317C142.235 51.6552 142.263 53.9787 142.235 56.2741H142.263Z" fill="white"/>
  <path d="M134.258 36.8451C136.861 34.1017 139.493 31.4143 142.264 28.8389C142.264 31.1624 142.264 33.4858 142.292 35.8093C142.292 36.5092 142.208 36.9571 141.34 36.9291C138.989 36.8731 136.609 36.8731 134.258 36.8451Z" fill="white"/>
  <path d="M124.123 23.8005C124.123 22.3728 124.123 20.9172 124.123 19.4895C124.123 19.0696 124.067 18.5377 124.654 18.5377C126.166 18.5937 127.678 18.2017 129.161 18.7616C127.566 20.5252 125.914 22.2329 124.123 23.7725V23.8005Z" fill="white"/>
  <path d="M129.696 66.2957C128.129 66.2957 126.561 66.2957 124.993 66.3517C124.35 66.3517 124.098 66.1278 124.098 65.4559C124.126 63.8882 124.126 62.3206 124.154 60.7529C126.085 62.5165 127.933 64.3641 129.696 66.2957Z" fill="white"/>
  <path d="M71.832 20.3018C71.832 17.2505 71.944 17.1665 75.0513 17.6424C76.535 17.8664 77.1509 18.5942 77.2068 20.2178C77.2628 21.8415 76.675 22.6253 75.2193 22.9053C75.1353 22.9053 75.0233 22.9332 74.9393 22.9332C71.888 23.3532 71.832 23.3252 71.832 20.3018Z" fill="#07060A"/>
  <path d="M87.7597 19.6572C88.6275 21.6448 89.2993 23.2964 90.0552 24.9481C90.3071 25.5359 90.1112 25.7039 89.5513 25.6759C89.4673 25.6759 89.3553 25.6759 89.2714 25.6759C87.9836 25.6199 86.136 26.2358 85.5762 25.452C84.9883 24.6121 86.332 23.1845 86.7519 21.9807C87.0039 21.3089 87.3398 20.637 87.7877 19.6572H87.7597Z" fill="#07060A"/>
  <path d="M80.2014 44.5439C80.2014 48.3791 77.234 51.3464 73.3989 51.3464C69.5637 51.3464 66.6523 48.3791 66.6523 44.4879C66.6523 40.6528 69.6197 37.6014 73.3989 37.5734C77.178 37.5454 80.2294 40.6528 80.2294 44.5439H80.2014Z" fill="#07060A"/>
  <path d="M76.0061 64.8115C76.0061 68.6467 73.0107 71.67 69.2315 71.67C65.4244 71.67 62.457 68.6746 62.457 64.8395C62.457 60.8924 65.3964 57.897 69.2875 57.925C73.0947 57.925 76.0061 60.9483 76.0061 64.8115Z" fill="#07060A"/>
  <path d="M18.8405 44.4319C18.8405 42.7242 18.8965 40.9886 18.8405 39.281C18.7845 38.1892 19.1764 37.8813 20.1842 37.9933C21.192 38.0773 22.2278 38.0773 23.2355 38.1053C23.9354 38.1053 24.6072 38.3292 25.2511 38.5812C27.5466 39.5329 28.7783 42.3603 28.3584 45.7196C27.9945 48.603 26.3988 50.3386 23.7954 50.7585C22.4517 50.9824 21.108 50.9264 19.7643 50.9824C19.0085 51.0104 18.8125 50.7305 18.8125 50.0306C18.8405 48.183 18.8125 46.3075 18.8125 44.4599L18.8405 44.4319Z" fill="#07060A"/>
  <path d="M99.153 27.7478C99.153 27.5238 99.069 27.2439 99.153 27.0479C99.5169 26.2641 98.2572 24.8084 100.077 24.6964C103.212 24.4725 104.808 25.3123 105.06 27.2719C105.284 29.0915 104.444 30.2952 102.736 30.6311C99.349 31.331 99.153 31.163 99.153 27.7478Z" fill="#07060A"/>
  <path d="M100.945 23.0173C99.7692 23.1106 99.1814 22.5787 99.1814 21.4216C99.1814 20.4978 99.2374 19.574 99.1814 18.6502C99.1254 17.7544 99.4893 17.5025 100.301 17.5865C100.749 17.6425 101.225 17.6145 101.701 17.6425C103.688 17.7824 104.5 18.5943 104.5 20.3579C104.5 22.0375 103.576 22.9053 101.645 23.0453C101.421 23.0453 101.169 23.0453 100.945 23.0453V23.0173Z" fill="#07060A"/>
  <path d="M50.4727 60.9204C50.4727 57.8411 50.6126 57.7291 53.636 58.233C55.1196 58.485 55.8195 59.3808 55.8195 60.9764C55.8195 62.5161 55.1196 63.2999 53.608 63.5239C53.552 63.5239 53.524 63.5239 53.468 63.5239C51.4711 63.7665 50.4727 62.8893 50.4727 60.8925V60.9204Z" fill="#07060A"/>
  <path d="M87.703 40.5128C87.703 40.4288 87.703 40.3168 87.703 40.2329C87.899 39.449 87.1711 38.1333 88.1509 37.9094C89.5506 37.6014 91.2303 37.4895 92.378 38.6652C93.2738 39.617 93.2738 40.8767 92.7419 42.0805C92.434 42.7803 91.7901 43.0323 91.0623 43.1722C87.787 43.7881 87.703 43.7601 87.703 40.5128Z" fill="#07060A"/>
  <path d="M4.87109 45.8322C5.68292 43.9566 6.46674 42.165 7.39054 39.9814C8.31434 42.081 9.09817 43.8726 9.96598 45.8322H4.87109Z" fill="#07060A"/>
  <path d="M60.4934 19.7132C61.3332 21.6168 62.061 23.3244 62.8169 25.0041C62.9848 25.396 62.9009 25.6199 62.4529 25.6479C62.369 25.6479 62.257 25.6479 62.173 25.6479C59.1683 25.9279 58.2539 24.7148 59.4296 22.0087C59.7375 21.3089 60.0735 20.609 60.4934 19.6572V19.7132Z" fill="#07060A"/>
  <path d="M100.357 61.0048C100.357 60.8648 100.357 60.7248 100.357 60.5849C100.524 59.801 99.8806 58.8492 100.72 58.2894C101.504 57.7575 104.472 58.4573 105.059 59.1852C105.815 60.137 105.843 61.2567 105.395 62.3485C104.975 63.3563 101.532 64.3081 100.608 63.7202C100.329 63.5242 100.357 63.2443 100.357 62.9643C100.357 62.3205 100.357 61.6766 100.357 61.0048Z" fill="#07060A"/>
</svg>