<svg xmlns="http://www.w3.org/2000/svg" width="160" height="90" viewBox="0 0 160 34" fill="none">
  <path d="M159.962 13.3159C159.962 17.1567 159.974 21.0103 160 24.8511C160 25.2977 159.859 25.4509 159.413 25.4253C158.826 25.3998 158.226 25.3871 157.626 25.4253C157.001 25.4764 156.848 25.1574 156.848 24.6214C156.848 22.5798 156.848 20.5382 156.823 18.5093C156.797 17.0036 156.988 15.4979 156.771 13.9921C156.44 11.6825 154.883 10.1513 152.356 10.3555C150.302 10.5086 148.248 12.882 148.324 14.9364C148.452 18.1648 148.35 21.3931 148.375 24.6214C148.375 25.2212 148.209 25.4764 147.584 25.4253C147.035 25.3743 146.474 25.3871 145.925 25.4253C145.377 25.4636 145.16 25.2467 145.172 24.698C145.198 23.4475 145.185 22.1842 145.185 20.9337C145.185 14.2218 145.185 7.49717 145.172 0.785271C145.172 0.185539 145.3 -0.0441466 145.938 0.00689443C146.704 0.0706958 147.469 0.0324173 148.235 0.0451776C148.465 0.274862 148.375 0.568346 148.375 0.836312C148.375 3.75841 148.375 6.69328 148.375 9.61538C148.375 9.78126 148.375 9.9599 148.375 10.1258C148.375 10.2662 148.375 10.432 148.567 10.4831C148.72 10.5214 148.809 10.4065 148.873 10.3044C149.332 9.57709 150.009 9.13048 150.723 8.70939C151.923 7.99482 153.199 7.76514 154.589 7.9055C155.827 8.02034 156.874 8.45419 157.805 9.2198C158.762 10.0109 159.298 11.0573 159.592 12.244C159.681 12.614 159.796 12.9713 159.949 13.3159H159.962Z" fill="white"/>
  <path d="M103.095 15.9569C103.095 17.4626 103.095 18.9683 103.095 20.4868C103.095 21.0355 103.146 21.5714 103.439 22.0818C103.848 22.7964 104.358 23.2941 105.238 23.243C105.455 23.243 105.66 23.243 105.876 23.243C107.357 23.2303 107.446 23.3068 107.42 24.8253C107.42 25.2719 107.204 25.5526 106.757 25.6292C105.519 25.8206 104.269 25.8971 103.018 25.6292C101.819 25.374 100.466 23.8172 100.262 22.5795C99.8664 20.1678 100.045 17.7433 100.007 15.3316C99.9812 13.9535 99.994 12.5754 100.007 11.1846C100.007 10.6741 99.8026 10.4445 99.2794 10.47C98.8073 10.4955 98.3479 10.47 97.8758 10.47C97.493 10.47 97.3398 10.3041 97.3398 9.93405C97.3909 7.91793 97.0974 8.16038 99.037 8.17314C99.9685 8.17314 100.007 8.13485 99.994 7.1906C99.994 6.6419 99.994 6.08045 99.994 5.53176C99.994 5.22551 100.071 4.97031 100.377 4.86822C101.13 4.61302 101.895 4.35781 102.661 4.14089C103.031 4.03881 103.069 4.3323 103.069 4.60026C103.069 5.49348 103.069 6.3867 103.069 7.27992C103.069 8.09658 103.133 8.16037 103.937 8.16037C104.932 8.16037 105.94 8.16038 106.936 8.14762C107.382 8.14762 107.561 8.30074 107.561 8.73458C107.535 10.8273 107.842 10.4317 105.94 10.4572C105.264 10.4572 104.575 10.4572 103.899 10.4572C103.107 10.4572 103.082 10.47 103.082 11.2866C103.082 12.8434 103.082 14.3874 103.082 15.9441L103.095 15.9569Z" fill="white"/>
  <path d="M94.1601 19.1601C94.1601 20.9466 94.1473 22.733 94.1601 24.5194C94.1601 25.0171 94.0325 25.183 93.5093 25.1702C92.3864 25.1319 91.2507 25.1702 90.1278 25.1575C89.2219 25.1575 89.1836 25.1064 89.1836 24.226C89.1836 21.1252 89.2601 18.0117 89.1453 14.9237C89.0687 12.7545 87.6141 11.287 85.2151 11.8995C84.3474 12.1292 83.7732 12.7672 83.3266 13.5584C82.88 14.3495 82.9055 15.1789 82.9055 16.0211C82.9055 18.8028 82.8928 21.5846 82.9183 24.3791C82.9183 24.9405 82.7014 25.1575 82.191 25.1575C80.9404 25.1575 79.6772 25.1575 78.4267 25.1575C77.9673 25.1575 77.9163 24.8767 77.9418 24.5322C78.0821 22.5799 78.1332 20.6276 78.0311 18.6752C77.8652 15.3448 78.0821 12.0271 77.8652 8.69671C77.8397 8.3139 78.0694 8.19905 78.3629 8.19905C79.3837 8.19905 80.4045 8.17353 81.4253 8.19905C81.8847 8.19905 82.1782 8.4415 82.1399 8.96467C82.1144 9.21988 82.1399 9.47508 82.1399 9.73029C82.1399 10.0238 82.2037 10.3045 82.4844 10.4321C82.8034 10.5725 83.0076 10.3555 83.1863 10.1259C84.2581 8.72223 85.7383 8.0587 87.4227 7.86729C89.2857 7.65037 91.0721 8.08422 92.3609 9.48785C93.4583 10.6746 94.0708 12.2058 94.109 13.8646C94.1601 15.6255 94.109 17.3864 94.109 19.1601H94.1601Z" fill="white"/>
  <path d="M46.053 14.8208C46.0658 14.9995 45.9892 15.2036 46.1679 15.3312C46.3465 15.7396 46.4103 16.1862 46.5507 16.6073C46.8059 17.5643 47.0611 18.5341 47.3418 19.4911C47.4567 19.8866 47.7501 19.8867 48.0436 19.657C48.235 19.5038 48.3116 19.2869 48.3371 19.0445C48.4902 17.5005 49.1027 16.0713 49.3835 14.5529C49.728 12.6261 50.4681 10.7758 50.7871 8.83626C50.8509 8.42793 51.1061 8.19824 51.5272 8.19824C52.867 8.19824 54.2068 8.19824 55.5467 8.19824C56.0443 8.19824 56.2612 8.51725 56.0443 8.96386C55.4318 10.2016 55.1639 11.5414 54.6152 12.8047C54.041 14.1445 53.7602 15.6247 53.1605 16.9645C52.6628 18.0747 52.4204 19.2486 51.8972 20.3588C51.5017 21.1754 51.2337 22.0814 50.9147 22.9491C50.5319 24.021 49.9959 25.029 49.5366 26.0626C49.2176 26.8155 48.7454 27.5045 48.3371 28.2191C48.1712 28.5892 47.8395 28.8571 47.6991 29.2399C47.2525 29.8524 46.64 30.3118 46.1424 30.886C46.1041 30.9243 46.0658 30.9626 46.0275 31.0008C45.6702 31.1922 45.3767 31.4857 45.0067 31.6644C44.6494 31.9323 44.2793 32.1493 43.871 32.3151C43.5775 32.4555 43.2713 32.5576 42.965 32.6852C42.5822 32.7873 42.1994 32.8894 41.8294 33.0042C41.2934 33.1828 41.0255 33.0297 40.9617 32.4555C40.9362 32.2641 40.9234 32.0855 40.8213 31.9196C40.7703 31.205 40.6299 30.516 40.3109 29.8652C40.1323 29.342 40.094 28.9975 40.8086 28.755C41.9697 28.3722 43.0033 27.6959 43.871 26.8027C44.3304 26.2668 44.9301 25.8074 45.0194 25.029C45.0194 24.4421 44.7515 23.9317 44.4963 23.434C44.3687 23.166 44.2411 22.9108 44.2411 22.6046C44.0752 22.3239 43.9348 22.0304 43.8583 21.7114C43.3478 20.4736 42.8374 19.2359 42.327 18.0109C42.2505 17.6919 42.1994 17.3729 41.9442 17.1177C41.9059 16.5562 41.4466 16.1479 41.4338 15.5864C41.2424 15.2547 41.2679 14.8208 40.9362 14.5529C40.2854 13.0344 39.775 11.4521 39.0476 9.97192C38.9966 9.86984 39.0221 9.71671 39.0094 9.60187C38.9328 9.42323 38.818 9.27011 38.7542 9.10423C38.6265 8.7597 38.5627 8.40241 39.0094 8.19824C39.0476 8.19824 39.0859 8.19824 39.1242 8.19824C39.7239 8.44069 40.3492 8.30032 40.9617 8.32584C42.008 8.36413 43.0544 8.23652 44.0879 8.45345C44.2921 9.39771 44.5856 10.3292 44.8536 11.2607C44.9812 11.6818 45.1088 12.1156 45.2364 12.5367C45.4533 12.9323 45.5554 13.3662 45.6192 13.8128C45.7595 14.1445 45.8106 14.5146 46.002 14.8336L46.053 14.8208Z" fill="white"/>
  <path d="M14.1536 24.5059C13.9877 24.5952 13.8218 24.6973 13.656 24.7866C12.9924 25.0801 12.3289 25.3864 11.6016 25.5267C10.6828 25.5012 9.76408 25.7054 8.83258 25.565C7.41619 25.3481 6.22949 24.7994 5.38731 23.6127C5.34903 23.5616 5.28523 23.5361 5.23419 23.4978C5.11934 23.2809 4.96622 23.1023 4.69825 23.1278C4.35373 23.1661 4.46857 23.4851 4.39201 23.6892C4.22612 24.1231 4.53237 24.7101 4.0092 25.0291C3.56259 25.3098 3.05218 25.1312 2.58005 25.1439C1.90376 25.1694 1.2147 25.1567 0.538407 25.1439C0.104558 25.1439 -0.0740862 25.0418 0.0279959 24.4931C0.193879 23.5872 0.23216 22.6429 0.23216 21.7114C0.244921 14.8336 0.23216 7.94308 0.23216 1.06529C0.23216 0.444291 0.534153 0.133789 1.13814 0.133789C2.22276 0.133789 3.30739 0.133789 4.39201 0.133789C4.9407 0.133789 5.22143 0.286915 5.22143 0.937688C5.18315 3.69391 5.20867 6.46288 5.22143 9.2191C5.22143 9.4743 5.11934 9.80608 5.47663 9.93368C5.8084 10.0485 5.97428 9.78055 6.16569 9.58915C7.76072 7.96859 9.80236 7.56027 11.9078 7.86651C13.8729 8.14724 15.4424 9.28291 16.5525 10.98C17.3947 12.6516 17.8669 14.438 17.8158 16.301C17.752 18.6362 17.382 20.8947 15.8252 22.8343C15.3148 23.4723 14.5492 23.8041 14.1281 24.4931L14.1536 24.5059Z" fill="white"/>
  <path d="M118.84 17.143C117.028 17.143 115.229 17.143 113.417 17.143C112.842 17.143 112.638 17.3472 112.638 17.9341C112.638 20.3331 114.195 22.464 116.326 23.2041C117.781 23.7145 119.312 23.8294 120.83 23.4466C121.519 23.2679 122.26 23.2552 122.923 22.9361C123.229 22.783 123.421 22.8723 123.561 23.2807C124.084 24.7609 123.957 24.8374 122.425 25.2202C120.881 25.603 119.337 25.7051 117.768 25.6796C115.624 25.6413 113.672 25.0161 112.179 23.4338C110.775 21.9409 109.997 20.1417 109.984 18.049C109.984 17.2834 109.933 16.5177 109.997 15.7521C110.239 13.0342 111.324 10.7118 113.621 9.1423C115.139 8.10872 116.875 7.91732 118.699 8.0194C120.575 8.13424 122.03 8.89986 123.191 10.278C123.995 11.2222 124.442 12.3579 124.671 13.5829C124.824 14.4123 125.029 15.2417 125.016 16.0966C125.003 17.1302 124.977 17.1557 123.944 17.1557C122.247 17.1557 120.537 17.1557 118.84 17.1557V17.143Z" fill="white"/>
  <path d="M60.6128 12.015C59.9237 12.1681 59.8089 12.0915 59.6175 11.0324C59.5537 10.6751 59.4516 10.3434 59.3112 10.0116C59.0432 9.38634 59.2091 9.09286 59.8599 8.87593C61.1614 8.45485 62.4758 8.11032 63.8283 7.93167C63.9559 7.91891 64.0708 7.85511 64.1856 7.80407C65.3851 7.70199 66.5846 7.6637 67.7585 8.07203C68.2434 8.31448 68.8304 8.13584 69.2897 8.44208C69.966 8.88869 70.7189 9.15666 71.2931 9.82019C72.3267 10.9941 72.8498 12.3212 72.9902 13.8524C73.2582 16.8001 73.054 19.7477 73.1051 22.7081C73.1051 23.3078 73.2582 23.882 73.2454 24.4817C73.2454 24.9411 73.0923 25.1836 72.5691 25.158C71.4717 25.0942 70.3616 25.0687 69.2642 25.0304C68.8431 25.0304 68.7921 24.788 68.7793 24.4435C68.7793 24.1627 68.8942 23.8054 68.5241 23.6523C68.1413 23.4992 67.8606 23.7034 67.5671 23.9713C66.1635 25.3112 64.4791 25.7195 62.5651 25.4643C61.876 25.375 61.2253 25.2091 60.5617 25.0177C60.1917 24.9156 60.0513 24.4052 59.5919 24.4945C59.1453 24.2138 58.9156 23.7289 58.5584 23.3588C57.4737 21.3555 57.4354 19.3521 58.5584 17.3615C59.1708 16.4045 60.0003 15.741 61.0338 15.2688C62.9479 14.3884 64.9512 13.98 67.0567 14.0311C67.8733 14.0438 68.1158 13.661 67.8989 12.8827C67.6054 11.8108 66.559 11.2621 65.283 11.1217C63.6369 10.9431 62.1057 11.4025 60.6 12.0022L60.6128 12.015Z" fill="white"/>
  <path d="M26.6667 25.5401C25.9011 25.5401 25.1355 25.6549 24.3954 25.4125C22.4559 24.8 20.797 23.5112 20.6694 21.0485C20.6056 19.7852 20.6949 18.573 21.384 17.4373C21.8051 16.7483 22.3921 16.2506 23.0301 15.8168C23.2342 15.6764 23.4767 15.5743 23.5915 15.3319C25.4928 14.4259 27.4834 13.9921 29.5888 14.0559C29.8058 14.0559 30.0099 14.0176 30.2141 13.9793C30.6862 13.89 30.8521 13.5965 30.7245 13.1116C30.431 11.9887 29.525 11.2614 28.3511 11.172C26.7816 11.0572 25.2759 11.2741 23.8084 11.8483C23.7446 11.8483 23.6808 11.8483 23.617 11.8611C22.7111 12.2567 22.7238 12.2567 22.4048 11.3124C22.2262 10.7892 22.1624 10.2405 21.8944 9.74289C21.703 9.3856 21.8434 9.10487 22.2262 8.92623C23.6681 8.26269 25.2121 7.98197 26.7688 7.80333C28.6956 7.5864 30.6352 7.714 32.4599 8.4541C33.7232 8.96451 34.6802 9.89601 35.2034 11.2103C35.6882 12.4098 35.7776 13.673 35.7776 14.9491C35.7776 17.3225 35.8159 19.7087 35.752 22.0821C35.7393 22.8604 36.0711 23.5623 36.0328 24.3406C35.9945 24.9914 35.9179 25.1062 35.2544 25.1318C34.2336 25.1573 33.2255 25.0424 32.2047 25.1318C31.8091 25.17 31.605 24.9914 31.6305 24.5703C31.6305 24.3534 31.605 24.1492 31.4774 23.9706C31.2349 23.6133 30.9414 23.5623 30.6352 23.8557C29.5506 24.8893 28.2745 25.4508 26.7688 25.4635C26.7305 25.4635 26.6923 25.5018 26.654 25.5146L26.6667 25.5401Z" fill="white"/>
  <path d="M132.837 25.1437C131.918 24.5823 130.986 24.0846 130.208 23.2807C128.855 21.8643 128.217 20.1545 128.001 18.2787C127.886 17.2834 127.873 16.2371 128.077 15.229C128.294 14.1827 128.511 13.1363 129.149 12.2431C129.213 12.1538 129.213 12.0007 129.238 11.8731C129.966 11.0819 130.565 10.1887 131.522 9.60173C132.352 9.09132 133.181 8.67023 134.125 8.37674C135.912 7.82805 137.686 8.03222 139.472 8.15982C139.931 8.1981 140.391 8.32571 140.825 8.49159C141.399 8.70851 141.309 8.83612 140.99 10.1504C140.888 10.5588 140.646 10.9416 140.187 10.6608C139.676 10.3546 139.127 10.3673 138.604 10.2397C137.443 9.95901 136.256 10.0483 135.146 10.3801C133.513 10.865 132.288 11.9496 131.548 13.5319C130.999 14.7314 130.68 15.9819 130.808 17.2834C130.91 18.3808 131.076 19.5037 131.79 20.4224C132.556 21.9664 133.845 22.8086 135.478 23.2425C137.086 23.6635 138.63 23.4339 140.148 22.8979C140.671 22.7193 140.965 22.8214 141.042 23.4083C141.08 23.7273 141.195 24.0336 141.207 24.3398C141.233 24.7864 140.876 24.9651 140.531 25.0672C138.451 25.7179 136.32 25.7307 134.176 25.4755C133.717 25.4245 133.347 25.0161 132.849 25.1055L132.837 25.1437Z" fill="white"/>
  <path d="M117.366 15.1908C116.026 15.1908 114.699 15.1908 113.359 15.1908C112.926 15.1908 112.683 15.0249 112.798 14.5911C113.232 13.0343 113.832 11.6052 115.273 10.6737C117.353 9.32107 120.633 9.95908 121.615 12.6132C121.832 13.2002 121.909 13.7999 122.036 14.3869C122.177 15.0249 122.036 15.1908 121.373 15.1908C120.033 15.1908 118.706 15.1908 117.366 15.1908Z" fill="#07060A"/>
  <path d="M68.1388 18.5345C68.343 20.5762 66.9394 21.865 65.5485 22.0691C64.4766 22.2222 63.4558 21.7629 63.1113 20.9973C62.6902 20.053 62.8689 18.8918 63.5834 18.3048C64.3363 17.6923 65.204 17.3351 66.1738 17.2585C66.5055 17.233 66.8501 17.2075 67.1818 17.1692C67.9474 17.0799 68.1261 17.233 68.1261 18.0114C68.1261 18.2028 68.1261 18.3942 68.1261 18.5345H68.1388Z" fill="#07060A"/>
  <path d="M7.91486 21.4449C7.00888 20.96 6.29431 20.2709 5.74561 19.4032C5.43937 19.0204 5.64353 18.5355 5.49041 18.1272C5.38833 16.647 5.26072 15.1541 5.89874 13.7377C6.17946 13.1252 6.61331 12.6531 7.14924 12.2702C8.06798 11.8236 8.99948 11.696 9.99478 12.0533C10.2245 12.1426 10.3904 12.283 10.5818 12.3851C11.8195 13.3166 12.3554 14.5926 12.381 16.1111C12.3937 17.0809 12.3937 18.0251 12.0875 18.9821C11.6536 20.2582 10.7732 20.9983 9.57369 21.4576C9.025 21.547 8.46355 21.5597 7.91486 21.4576V21.4449Z" fill="#07060A"/>
  <path d="M30.7512 18.8414C30.8788 19.6198 30.5981 20.4109 29.9601 21.0872C29.5645 21.4955 29.0796 21.7252 28.5437 21.8401C28.3651 21.8784 28.1609 21.8401 27.9695 21.8528C26.2469 22.0698 25.5961 20.6661 25.9406 19.2497C26.1065 18.5479 26.77 18.063 27.4463 17.7951C28.2757 17.4761 29.1434 17.3229 30.0494 17.3357C30.6109 17.3357 30.8278 17.5016 30.7512 18.063C30.7257 18.2672 30.7512 18.4841 30.7512 18.8414Z" fill="#07060A"/>
</svg>
