<svg xmlns="http://www.w3.org/2000/svg" width="120" height="90" viewBox="0 0 120 90" fill="none">
  <path d="M51.951 24.5854C50.2643 23.3709 48.7799 22.1227 47.3293 20.8071C45.6763 19.289 44.0908 17.6697 43.2137 15.5107C40.4811 8.83118 44.9004 1.24081 52.0185 0.262495C54.7173 -0.108589 57.2474 0.431171 59.5414 1.88177C59.8787 2.08418 60.0811 2.05045 60.3848 1.88177C64.0619 -0.479672 67.9076 -0.648347 71.6522 1.54442C75.3968 3.7372 77.3872 7.07696 77.2522 11.4625C77.1848 13.9926 76.1727 16.2191 74.6884 18.2095C74.3848 18.6143 73.9799 18.783 73.4739 18.5806C71.7197 17.8721 69.9992 17.1637 68.245 16.4553C68.0763 16.3878 67.9414 16.2866 67.8064 16.1854C67.233 15.7806 67.1992 15.4095 67.7052 14.9035C68.0426 14.5661 68.4474 14.2625 68.7848 13.9252C69.9317 12.8119 70.3703 11.4625 69.8305 9.9107C69.2908 8.35889 68.0763 7.58298 66.5245 7.4143C65.5462 7.3131 64.6691 7.65045 63.9607 8.35888C63.3872 8.93238 62.8811 9.57334 62.3414 10.1806C60.6546 12.2047 59.5076 12.2384 57.7534 10.2818C57.2474 9.70828 56.7751 9.10105 56.2016 8.59503C54.9872 7.44804 53.2667 7.11069 51.8835 7.75165C50.5341 8.39262 49.6908 9.80949 49.792 11.3276C49.8595 12.2721 50.2643 13.0818 50.9052 13.7902C54.0763 17.1637 57.8884 19.5926 62.1052 21.448C66.086 23.1685 70.2016 24.4505 74.2835 25.8673C80.9631 28.1613 87.1366 31.3324 92.5004 36.0215C100.867 43.342 106.264 52.4505 108.659 63.3131C109.672 67.8336 109.806 72.4216 109.739 77.0095C109.739 77.3469 109.604 77.4481 109.334 77.4143C109.199 77.4143 109.064 77.4143 108.929 77.4143C76.2739 77.4143 43.6185 77.4143 10.963 77.4143C10.0859 77.4143 10.0859 77.4143 10.0859 76.5035C10.0859 73.13 10.0859 69.7565 10.592 66.4167C11.6715 59.0963 14.2353 52.3155 18.3847 46.1758C26.0763 34.8408 36.6353 27.7565 50.0281 24.8553C50.5679 24.7203 51.1414 24.6529 51.8498 24.5179L51.951 24.5854Z" fill="#FEFEFE"/>
  <path d="M59.9459 82.1377C78.6013 82.1377 97.2905 82.1377 115.946 82.1377C118.881 82.1377 120.568 84.6341 119.825 87.0293C119.353 88.4799 117.97 89.5256 116.418 89.5931C116.216 89.5931 116.013 89.5931 115.811 89.5931C78.6013 89.5931 41.3579 89.5931 4.14829 89.5931C2.19166 89.5931 0.876 88.8172 0.268771 87.2654C-0.675808 84.8702 0.977209 82.3064 3.54107 82.1714C3.94589 82.1714 4.38444 82.1714 4.78926 82.1714C23.1748 82.1714 41.5604 82.1714 59.9459 82.1714V82.1377Z" fill="#FEFEFE"/>
  <path d="M59.9782 70.0605C46.1468 70.0605 32.2818 70.0605 18.4504 70.0605C17.9444 70.0605 17.742 70.0605 17.8095 69.4196C18.5516 62.3689 20.9131 55.8918 24.8938 50.022C29.0432 43.9159 34.4071 39.193 40.9854 35.887C48.0023 32.3448 55.4239 30.8942 63.2167 31.5015C80.7926 32.8171 95.771 44.928 100.73 61.7955C101.438 64.2244 101.911 66.687 102.214 69.1834C102.316 70.0605 102.316 70.0605 101.405 70.0605C87.6071 70.0605 73.8095 70.0605 60.0119 70.0605H59.9782Z" fill="#07060A"/>
  <path d="M62.2379 35.9535C70.1994 36.0209 77.1488 38.686 83.1199 43.9824C85.5488 46.1077 87.5391 48.6041 89.1922 51.3703C90.3054 53.2595 89.8331 55.3848 88.0114 56.4306C86.2909 57.4426 84.1656 56.8017 83.0524 54.98C79.0379 48.4691 73.2693 44.4884 65.6789 43.274C63.3174 42.9029 60.9897 42.9366 58.6283 43.274C56.4692 43.5776 54.6813 42.2282 54.4114 40.1029C54.1753 38.18 55.6596 36.4258 57.7174 36.1896C58.4933 36.0884 59.2355 35.9872 60.0114 35.9535C60.7536 35.9197 61.4958 35.9535 62.2379 35.9535Z" fill="white"/>
  <path d="M60.8574 66.417C59.2381 66.417 57.8212 65.27 57.5176 63.7182C57.1803 62.0652 57.9224 60.4459 59.4743 59.8386C61.1273 59.1639 62.8477 58.6242 64.5345 58.017C67.7393 56.9037 70.9104 55.7567 74.1152 54.6772C76.0718 54.0025 78.0622 54.9808 78.6357 56.87C79.1755 58.7254 78.2984 60.4796 76.4092 61.1543C73.3393 62.2676 70.2357 63.3134 67.1321 64.4266C65.5465 64.9664 63.961 65.5399 62.3755 66.0796C61.8694 66.2483 61.3971 66.417 60.8911 66.3832L60.8574 66.417Z" fill="#FEFEFE"/>
</svg>