<svg xmlns="http://www.w3.org/2000/svg" width="120" height="90" viewBox="0 0 120 49" fill="none">
  <path d="M10.243 19.1651C11.5639 17.919 12.6355 16.9221 13.6822 15.8754C16.0498 13.5078 18.4174 11.1402 20.785 8.77259C23.2773 6.28038 25.7695 3.81309 28.2118 1.32087C29.0343 0.473521 29.8567 3.04151e-06 31.1277 0.0498473C34.7414 0.124614 38.3551 0.0747671 41.9688 0.0747671C42.4174 0.0747671 42.866 0.124612 43.3146 0.149534C43.3894 0.274145 43.4891 0.373832 43.5639 0.498442C35.838 8.24922 28.0872 16 20.3115 23.8255C28.162 31.676 35.9128 39.4517 43.9128 47.4517C43.1651 47.5514 42.8162 47.6262 42.4673 47.6262C38.5296 47.6262 34.567 47.6511 30.6293 47.5763C29.9813 47.5763 29.1838 47.2025 28.7103 46.7539C22.7788 40.8972 16.8972 34.9907 10.9907 29.109C10.7913 28.9097 10.567 28.7601 10.1682 28.4611V47.5265H0C0 46.5296 0 45.5327 0 44.5608C0 30.2804 0 16 0 1.6947C0 0.049845 0 0.0498473 1.61994 0.0498473C3.98754 0.0498473 6.35514 0.0498442 8.72274 0C9.81932 0 10.1931 0.398757 10.1682 1.54517C10.0935 6.90343 10.1184 12.2617 10.1184 17.6199C10.1184 17.9938 10.1682 18.3676 10.2181 19.19L10.243 19.1651Z" fill="white"/>
  <path d="M105.047 47.6012C102.106 47.6012 99.315 47.5514 96.5486 47.6012C95.5268 47.6012 95.2028 47.2274 95.2776 46.2803C95.3274 45.757 95.2776 45.2087 95.2776 44.5856C94.1561 45.3084 93.1592 46.0062 92.0875 46.5794C87.8508 48.8473 83.4645 48.8722 79.1031 47.1028C73.6203 44.8598 72.0751 39.4517 73.1467 34.6168C74.2682 29.5327 77.9318 27.3395 82.6421 26.4673C86.4801 25.7445 90.3181 25.894 94.1062 27.0155C94.505 27.1401 94.9287 27.1401 95.3773 27.19C95.1779 22.7289 92.4863 21.1588 88.6483 20.9345C85.533 20.7601 82.5424 21.433 79.6265 22.4299C78.6545 22.7539 78.2308 22.6292 77.9318 21.6074C77.4084 19.7881 76.7854 17.9688 76.1125 16.1744C75.7885 15.3271 76.0626 14.8535 76.8601 14.5296C80.2495 13.1588 83.7636 12.2118 87.452 12.2616C89.5953 12.2866 91.7636 12.2616 93.8819 12.5607C100.561 13.5077 104.748 18.0436 105.047 24.8473C105.346 31.7757 105.371 38.704 105.471 45.6324C105.471 46.2554 105.197 46.9034 105.047 47.6012ZM95.7013 35.0654C95.3773 34.4673 95.1779 33.5202 94.7044 33.3458C91.5143 32.2243 88.2495 31.7757 85.0595 33.3458C83.5143 34.0934 82.6919 35.4891 82.7667 37.1838C82.8165 38.704 83.614 39.8255 85.1094 40.5483C86.9785 41.4454 88.8227 41.2461 90.6919 40.8224C93.6327 40.1246 95.452 37.9065 95.7013 35.0903V35.0654Z" fill="white"/>
  <path d="M71.4036 17.8944C69.36 20.0626 67.441 22.1062 65.4721 24.1249C65.2977 24.2994 64.6497 24.1747 64.3756 24.0003C63.4534 23.3772 62.6809 22.505 61.7338 21.9567C57.5967 19.6389 53.1357 20.6109 50.4939 24.5237C48.0017 28.237 48.4503 33.5953 51.3413 36.885C53.7587 39.6514 58.8179 40.4489 61.9581 38.48C62.8553 37.9068 63.603 37.1342 64.4752 36.5361C64.9488 36.2121 65.4721 35.7635 66.0952 36.4364C67.6404 38.0314 69.2104 39.6015 70.8304 41.1218C71.5033 41.7698 71.3288 42.1934 70.7805 42.7666C68.3133 45.4084 65.3974 47.5019 61.8834 48.0501C54.5562 49.2215 47.7774 47.9505 42.793 41.7947C38.5562 36.586 37.8086 30.5797 39.7525 24.2994C41.7463 17.8944 46.2323 13.9318 52.712 12.4613C58.469 11.1654 64.0267 11.7885 68.8865 15.5517C69.7587 16.2246 70.5064 17.047 71.4285 17.8944H71.4036Z" fill="white"/>
  <path d="M119.975 47.6012C117.408 47.6012 114.891 47.6012 112.374 47.6012C109.956 47.6012 109.906 47.5513 109.906 45.1588C109.906 31.0778 109.906 17.0217 109.906 2.94073C109.906 2.04353 109.906 1.12142 109.906 0.0996094H120V47.6261L119.975 47.6012Z" fill="white"/>
</svg>