<svg xmlns="http://www.w3.org/2000/svg" width="160" height="90" viewBox="0 0 160 30" fill="none">
  <path d="M0 0.187041H22.9147C22.5788 1.26222 22.3772 2.203 22.0076 3.04298C21.6044 3.98377 21.8732 4.18536 22.8139 4.18536C26.2747 4.15176 29.7354 4.18536 33.1961 4.18536C33.3977 4.18536 33.6329 4.25256 33.8345 4.28616C33.9017 5.19334 33.4649 5.96613 33.1289 6.70531C32.625 7.84769 32.8265 8.21728 34.1369 8.18368C37.6984 8.11648 41.2936 8.18368 45.1575 8.18368C43.2423 13.4588 41.3608 18.5995 39.4456 23.8746C41.26 23.8746 42.8727 23.8074 44.4855 23.8746C45.4263 23.9082 45.5943 23.337 45.8295 22.6986C47.1399 19.4731 48.4166 16.2475 49.727 13.022C51.239 9.32606 53.0533 8.11648 56.9845 8.11648C61.386 8.11648 65.8211 8.11648 70.2226 8.11648C71.365 8.11648 71.533 8.31808 71.1298 9.42686C69.3826 14.198 67.7362 19.0027 66.0227 23.7738C66.2243 23.8074 66.3251 23.8746 66.4259 23.8746C68.2066 23.8746 70.3234 24.4122 71.701 23.6394C72.9777 22.9338 73.0785 20.649 73.6833 19.0699C75.9345 13.2572 78.1856 7.4109 80.3696 1.56461C80.7728 0.489435 81.3104 0.153442 82.4192 0.220641C84.1999 0.321439 85.9807 0.220641 87.9966 0.220641C86.1823 5.32774 84.4351 10.3004 82.688 15.3067C82.7551 15.3739 82.8223 15.4075 82.9231 15.4747C85.2079 13.3244 87.4926 11.2076 89.7438 9.02367C90.3822 8.41888 90.987 8.08288 91.9278 8.08288C94.2125 8.15008 96.4637 8.08288 99.2188 8.08288C98.1436 9.12446 97.3709 9.86365 96.5981 10.6364C95.0189 12.182 93.4061 13.7276 91.827 15.3403C90.8862 16.2811 89.2734 17.0539 89.2062 18.2299C89.139 19.9098 89.9118 21.657 90.3486 23.3706C90.4494 23.8074 90.6846 24.0426 91.155 24.009C91.3902 24.009 91.5918 24.009 91.827 24.009C93.5069 23.9418 95.5229 24.4122 96.7325 23.6394C97.8412 22.9338 98.11 20.8842 98.6812 19.4059C100.059 15.9787 101.47 12.5516 102.78 9.05727C103.116 8.18368 103.52 7.88129 104.46 7.91489C106.342 7.98209 108.257 7.91489 110.34 7.91489C108.425 13.2572 106.543 18.4987 104.628 23.8746C107.215 23.8746 109.668 23.8746 112.121 23.8746C112.759 23.8746 113.028 23.6058 113.196 23.1018C114.406 19.8426 115.649 16.5835 116.926 13.19H112.155C112.759 11.51 113.364 10.0316 113.835 8.51968C114.07 7.71329 114.675 7.81409 115.145 7.91489C118.068 8.58687 119.311 7.0749 120.05 4.52135C120.487 3.04298 120.89 1.12782 121.966 0.422237C123.074 -0.316948 124.989 0.220641 126.535 0.187041C127.308 0.187041 128.114 0.187041 129.089 0.187041C128.148 2.67339 127.274 5.09254 126.3 7.74689C127.476 7.74689 128.484 7.78049 129.525 7.74689C130.399 7.67969 130.634 7.98209 130.332 8.78847C130.265 8.99007 130.164 9.19166 130.097 9.39326C129.335 11.678 127.767 12.854 125.393 12.9212C124.788 12.9212 124.25 12.854 123.982 13.694C122.839 17.0203 121.596 20.313 120.319 23.8074C122.974 23.8074 125.393 23.7738 127.845 23.8074C128.719 23.8074 128.82 23.2026 129.021 22.6986C130.164 19.6411 131.306 16.5835 132.449 13.526C133.961 9.52766 136.077 8.08288 140.378 8.08288C144.511 8.08288 148.643 8.15008 152.776 8.04928C154.288 8.01569 154.255 8.48608 153.818 9.62845C152.205 13.862 150.727 18.1627 149.114 22.3962C148.61 23.673 148.946 23.8746 150.155 23.841C153.381 23.8074 156.64 23.841 159.866 23.841V29.1833C157.48 29.5529 155.094 29.2841 152.709 29.3177C150.189 29.3849 147.669 29.3177 145.183 29.3177C143.402 29.5529 142.024 28.8809 141.117 27.4025C140.546 26.5289 140.143 26.8313 139.605 27.4025C138.832 28.1753 138.127 29.0153 137.085 29.5193H136.749C135.103 29.1497 133.423 29.4521 131.777 29.3513C129.761 29.4857 128.786 28.2089 128.013 26.6297C126.737 27.5369 126.132 29.3177 124.217 29.3513C121.428 29.3513 118.673 29.3513 115.884 29.3513C114.473 29.5529 113.599 28.7465 112.894 27.7385C112.323 26.8985 111.819 26.9657 111.214 27.6377C110.475 28.4441 109.702 29.2505 108.593 29.5193H108.257C105.435 29.1161 102.579 29.4521 99.7564 29.3513C98.4124 29.5193 97.4717 28.8473 96.9341 27.7385C96.3629 26.4953 95.8925 26.8313 95.1869 27.5705C94.3805 28.3769 93.7421 29.4521 92.331 29.3513C89.9454 29.3513 87.5599 29.3513 85.1743 29.3513C84.0991 29.1497 84.0655 28.2089 83.8639 27.4361C83.1919 24.9833 82.184 22.6314 81.5792 19.809C80.336 22.6314 79.4624 25.2521 78.4208 27.8057C78.152 28.4441 78.0176 29.2169 77.1105 29.3177C74.9601 29.3177 72.7761 29.3177 70.6258 29.3177C68.9122 28.9145 70.525 27.9065 70.0882 27.2681C69.2482 28.0409 68.2402 28.8809 67.0643 29.4857H66.7283C64.7459 29.1161 62.7635 29.4185 60.8148 29.3177C58.866 29.5193 58.362 28.0409 57.7572 26.6633C56.1109 27.4025 55.2373 29.3177 53.2549 29.3177C51.5078 29.3177 49.7606 29.3177 48.0134 29.3177C46.2663 28.9817 45.4935 28.1081 45.2247 26.3273C43.5447 27.3689 42.3016 29.1497 40.0504 29.3177C36.8921 29.2505 33.7001 29.4521 30.5418 29.2169C29.8026 28.2761 30.441 27.4025 30.7434 26.5625C32.121 23.0682 33.4649 19.5403 34.8761 16.0459C35.5817 14.366 35.5145 14.2652 33.7001 14.2652C31.9306 14.2652 30.7322 15.0827 30.105 16.7179C28.761 20.2458 27.4507 23.7738 26.1067 27.3017C25.8043 28.1081 25.6363 29.0489 24.7627 29.5193H24.4267C22.7803 29.1497 21.134 29.4521 19.4876 29.3513C18.8828 29.3177 18.278 29.4857 17.7068 29.2169C17.1693 28.4441 17.606 27.7049 17.8412 26.9993C19.4204 22.3626 21.2012 17.8267 22.7803 13.19C23.0155 12.5516 23.9227 11.6444 22.7467 11.0732C21.47 10.4684 19.5548 11.0732 19.118 12.1484C18.2108 14.366 17.3709 16.5835 16.5309 18.8347C15.3885 21.8586 14.2125 24.8489 13.0365 27.8729C12.7677 28.5449 12.5997 29.2841 11.6926 29.3849C9.44141 29.3849 7.15666 29.3849 4.9055 29.3849C3.93112 28.7129 4.67031 27.9737 4.9055 27.3353C6.98866 21.5898 9.23981 15.9115 11.3902 10.1996C12.4654 7.3437 12.499 7.3437 9.44141 7.3437C6.98866 7.3437 4.53591 7.3437 2.08316 7.3437C1.37757 7.3437 0.604788 7.4445 0 6.87331V0.187041Z" fill="#FE0007"/>
  <path d="M0 0.187041H22.9147C22.5788 1.26222 22.3772 2.203 22.0076 3.04298C21.6044 3.98377 21.8732 4.18536 22.8139 4.18536C26.2747 4.15176 29.7354 4.18536 33.1961 4.18536C33.3977 4.18536 33.6329 4.25256 33.8345 4.28616C33.9017 5.19334 33.4649 5.96613 33.1289 6.70531C32.625 7.84769 32.8265 8.21728 34.1369 8.18368C37.6984 8.11648 41.2936 8.18368 45.1575 8.18368C43.2423 13.4588 41.3608 18.5995 39.4456 23.8746C41.26 23.8746 42.8727 23.8074 44.4855 23.8746C45.4263 23.9082 45.5943 23.337 45.8295 22.6986C47.1399 19.4731 48.4166 16.2475 49.727 13.022C51.239 9.32606 53.0533 8.11648 56.9845 8.11648C61.386 8.11648 65.8211 8.11648 70.2226 8.11648C71.365 8.11648 71.533 8.31808 71.1298 9.42686C69.3826 14.198 67.7362 19.0027 66.0227 23.7738C66.2243 23.8074 66.3251 23.8746 66.4259 23.8746C68.2066 23.8746 70.3234 24.4122 71.701 23.6394C72.9777 22.9338 73.0785 20.649 73.6833 19.0699C75.9345 13.2572 78.1856 7.4109 80.3696 1.56461C80.7728 0.489435 81.3104 0.153442 82.4192 0.220641C84.1999 0.321439 85.9807 0.220641 87.9966 0.220641C86.1823 5.32774 84.4351 10.3004 82.688 15.3067C82.7551 15.3739 82.8223 15.4075 82.9231 15.4747C85.2079 13.3244 87.4926 11.2076 89.7438 9.02367C90.3822 8.41888 90.987 8.08288 91.9278 8.08288C94.2125 8.15008 96.4637 8.08288 99.2188 8.08288C98.1436 9.12446 97.3709 9.86365 96.5981 10.6364C95.0189 12.182 93.4061 13.7276 91.827 15.3403C90.8862 16.2811 89.2734 17.0539 89.2062 18.2299C89.139 19.9098 89.9118 21.657 90.3486 23.3706C90.4494 23.8074 90.6846 24.0426 91.155 24.009C91.3902 24.009 91.5918 24.009 91.827 24.009C93.5069 23.9418 95.5229 24.4122 96.7325 23.6394C97.8412 22.9338 98.11 20.8842 98.6812 19.4059C100.059 15.9787 101.47 12.5516 102.78 9.05727C103.116 8.18368 103.52 7.88129 104.46 7.91489C106.342 7.98209 108.257 7.91489 110.34 7.91489C108.425 13.2572 106.543 18.4987 104.628 23.8746C107.215 23.8746 109.668 23.8746 112.121 23.8746C112.759 23.8746 113.028 23.6058 113.196 23.1018C114.406 19.8426 115.649 16.5835 116.926 13.19H112.155C112.759 11.51 113.364 10.0316 113.835 8.51968C114.07 7.71329 114.675 7.81409 115.145 7.91489C118.068 8.58687 119.311 7.0749 120.05 4.52135C120.487 3.04298 120.89 1.12782 121.966 0.422237C123.074 -0.316948 124.989 0.220641 126.535 0.187041C127.308 0.187041 128.114 0.187041 129.089 0.187041C128.148 2.67339 127.274 5.09254 126.3 7.74689C127.476 7.74689 128.484 7.78049 129.525 7.74689C130.399 7.67969 130.634 7.98209 130.332 8.78847C130.265 8.99007 130.164 9.19166 130.097 9.39326C129.335 11.678 127.767 12.854 125.393 12.9212C124.788 12.9212 124.25 12.854 123.982 13.694C122.839 17.0203 121.596 20.313 120.319 23.8074C122.974 23.8074 125.393 23.7738 127.845 23.8074C128.719 23.8074 128.82 23.2026 129.021 22.6986C130.164 19.6411 131.306 16.5835 132.449 13.526C133.961 9.52766 136.077 8.08288 140.378 8.08288C144.511 8.08288 148.643 8.15008 152.776 8.04928C154.288 8.01569 154.255 8.48608 153.818 9.62845C152.205 13.862 150.727 18.1627 149.114 22.3962C148.61 23.673 148.946 23.8746 150.155 23.841C153.381 23.8074 156.64 23.841 159.866 23.841V29.1833C157.48 29.5529 155.094 29.2841 152.709 29.3177C150.189 29.3849 147.669 29.3177 145.183 29.3177C143.402 29.5529 142.024 28.8809 141.117 27.4025C140.546 26.5289 140.143 26.8313 139.605 27.4025C138.832 28.1753 138.127 29.0153 137.085 29.5193H136.749C135.103 29.1497 133.423 29.4521 131.777 29.3513C129.761 29.4857 128.786 28.2089 128.013 26.6297C126.737 27.5369 126.132 29.3177 124.217 29.3513C121.428 29.3513 118.673 29.3513 115.884 29.3513C114.473 29.5529 113.599 28.7465 112.894 27.7385C112.323 26.8985 111.819 26.9657 111.214 27.6377C110.475 28.4441 109.702 29.2505 108.593 29.5193H108.257C105.435 29.1161 102.579 29.4521 99.7564 29.3513C98.4124 29.5193 97.4717 28.8473 96.9341 27.7385C96.3629 26.4953 95.8925 26.8313 95.1869 27.5705C94.3805 28.3769 93.7421 29.4521 92.331 29.3513C89.9454 29.3513 87.5599 29.3513 85.1743 29.3513C84.0991 29.1497 84.0655 28.2089 83.8639 27.4361C83.1919 24.9833 82.184 22.6314 81.5792 19.809C80.336 22.6314 79.4624 25.2521 78.4208 27.8057C78.152 28.4441 78.0176 29.2169 77.1105 29.3177C74.9601 29.3177 72.7761 29.3177 70.6258 29.3177C68.9122 28.9145 70.525 27.9065 70.0882 27.2681C69.2482 28.0409 68.2402 28.8809 67.0643 29.4857H66.7283C64.7459 29.1161 62.7635 29.4185 60.8148 29.3177C58.866 29.5193 58.362 28.0409 57.7572 26.6633C56.1109 27.4025 55.2373 29.3177 53.2549 29.3177C51.5078 29.3177 49.7606 29.3177 48.0134 29.3177C46.2663 28.9817 45.4935 28.1081 45.2247 26.3273C43.5447 27.3689 42.3016 29.1497 40.0504 29.3177C36.8921 29.2505 33.7001 29.4521 30.5418 29.2169C29.8026 28.2761 30.441 27.4025 30.7434 26.5625C32.121 23.0682 33.4649 19.5403 34.8761 16.0459C35.5817 14.366 35.5145 14.2652 33.7001 14.2652C31.9306 14.2652 30.7322 15.0827 30.105 16.7179C28.761 20.2458 27.4507 23.7738 26.1067 27.3017C25.8043 28.1081 25.6363 29.0489 24.7627 29.5193H24.4267C22.7803 29.1497 21.134 29.4521 19.4876 29.3513C18.8828 29.3177 18.278 29.4857 17.7068 29.2169C17.1693 28.4441 17.606 27.7049 17.8412 26.9993C19.4204 22.3626 21.2012 17.8267 22.7803 13.19C23.0155 12.5516 23.9227 11.6444 22.7467 11.0732C21.47 10.4684 19.5548 11.0732 19.118 12.1484C18.2108 14.366 17.3709 16.5835 16.5309 18.8347C15.3885 21.8586 14.2125 24.8489 13.0365 27.8729C12.7677 28.5449 12.5997 29.2841 11.6926 29.3849C9.44141 29.3849 7.15666 29.3849 4.9055 29.3849C3.93112 28.7129 4.67031 27.9737 4.9055 27.3353C6.98866 21.5898 9.23981 15.9115 11.3902 10.1996C12.4654 7.3437 12.499 7.3437 9.44141 7.3437C6.98866 7.3437 4.53591 7.3437 2.08316 7.3437C1.37757 7.3437 0.604788 7.4445 0 6.87331V0.187041Z" fill="white"/>
  <path d="M144.577 29.5196C144.544 29.4188 144.51 29.3516 144.477 29.2508C149.651 29.2508 154.825 29.2172 159.999 29.1836C159.865 29.8892 159.327 29.486 158.991 29.486C154.187 29.486 149.382 29.486 144.577 29.486V29.5196Z" fill="#FE253C"/>
  <path d="M40.5877 29.1831C40.5877 29.2839 40.5877 29.4183 40.5877 29.5191H30.1719C30.1719 29.2167 30.1719 28.9479 30.4743 28.8135C30.9111 29.4183 31.583 29.1831 32.1542 29.1831C34.943 29.1831 37.7653 29.1831 40.5541 29.1831H40.5877Z" fill="#FE1937"/>
  <path d="M115.381 29.5196C115.381 29.4188 115.381 29.318 115.381 29.1836C118.506 29.1836 121.631 29.1836 124.755 29.1836C124.755 29.2844 124.755 29.4188 124.755 29.5196H115.348H115.381Z" fill="#FE0631"/>
  <path d="M99.2852 29.5194C99.3188 29.4186 99.3188 29.3178 99.2852 29.217C101.839 29.217 104.426 29.217 106.979 29.217C107.45 29.217 107.987 29.0826 108.391 29.553H99.3187L99.2852 29.5194Z" fill="#FE032A"/>
  <path d="M92.9709 29.2172C92.9709 29.318 92.9373 29.4188 92.9037 29.5196H84.8398C84.8398 29.4188 84.907 29.2844 84.907 29.1836C87.595 29.1836 90.2829 29.1836 92.9373 29.2172H92.9709Z" fill="#FE062D"/>
  <path d="M69.7852 29.5196C69.886 29.4188 70.0204 29.2844 70.1211 29.1836C72.5739 29.1836 75.0267 29.1836 77.4794 29.1836C77.4794 29.2844 77.4794 29.4188 77.513 29.5196H69.7852Z" fill="#FE1A38"/>
  <path d="M17.4398 29.5191C17.4398 29.2167 17.507 28.9815 17.7422 28.8135C18.683 29.5527 19.7582 29.0151 20.7662 29.1831C22.0094 29.3511 23.2861 28.8135 24.4621 29.5191H17.4062H17.4398Z" fill="#FE1937"/>
  <path d="M12.0278 29.1836C12.0278 29.2844 12.0278 29.4188 12.0614 29.5196H4.70312C4.70312 29.4188 4.70312 29.2844 4.70312 29.1836C7.15588 29.1836 9.57503 29.1836 12.0278 29.1836Z" fill="#FE1635"/>
  <path d="M60.3797 29.5195C60.3797 29.4187 60.3797 29.3179 60.3125 29.2171C62.4629 29.3515 64.6468 28.8139 66.7636 29.5195H60.3797Z" fill="#FE0229"/>
  <path d="M53.7245 29.2172C53.7245 29.318 53.6909 29.4188 53.6573 29.5196H47.6094C47.6094 29.4188 47.6094 29.2844 47.6094 29.1836C49.6253 29.1836 51.6749 29.1836 53.6909 29.1836L53.7245 29.2172Z" fill="#FE0F35"/>
  <path d="M131.506 29.519C131.573 29.4182 131.54 29.3174 131.473 29.2166C133.287 29.351 135.101 28.847 136.882 29.519H131.506Z" fill="#FE2840"/>
  <path d="M104.059 6.03332C104.059 5.73092 104.059 5.59653 104.092 5.52933C104.764 3.78216 104.932 1.26221 106.209 0.489428C107.654 -0.417754 110.073 0.220634 112.089 0.187034C112.862 0.187034 113.164 0.187034 112.828 1.16141C111.215 6.03332 111.282 6.03332 106.175 6.03332C105.503 6.03332 104.831 6.03332 104.092 6.03332H104.059Z" fill="white"/>
  <path d="M145.016 13.9627C143.705 17.2555 142.462 20.2458 141.286 23.2698C141.051 23.8745 140.681 24.0089 140.144 23.9753C138.8 23.9753 137.456 23.9753 135.91 23.9753C137.221 20.6826 138.43 17.5915 139.673 14.4667C139.875 13.9627 140.278 13.8955 140.748 13.9291C142.092 13.9291 143.436 13.9291 145.016 13.9291V13.9627Z" fill="#07060A"/>
  <path d="M53.2227 23.9753C54.533 20.7498 55.7426 17.8939 56.8178 14.9371C57.221 13.8283 57.9602 13.9291 58.7665 13.9291C61.1409 13.9291 61.9025 15.0043 61.0513 17.1547C60.3121 19.0362 59.4721 20.9178 58.8001 22.833C58.4977 23.7065 58.0274 24.0425 57.1202 23.9753C55.9106 23.9081 54.701 23.9753 53.2227 23.9753Z" fill="#07060A"/>
</svg>