<svg xmlns="http://www.w3.org/2000/svg" width="201" height="90" viewBox="0 0 201 53" fill="none">
  <path d="M18.3955 0C21.3758 1.07861 22.4828 3.17906 22.4544 6.30135C22.3693 19.4433 22.4261 32.6137 22.4261 45.7557C22.4261 49.8715 20.5243 51.7448 16.3518 51.7448C12.7753 51.7448 9.17052 51.7448 5.59408 51.7448C2.13118 51.7448 0.0591122 49.6444 0.0591122 46.2099C0.0591122 33.0111 0.115881 19.8123 0.00234333 6.61358C-0.0544256 3.43452 0.910646 1.16376 3.94778 0H18.3955Z" fill="white"/>
  <path d="M199.973 3.37787C198.355 7.40846 196.993 11.5526 195.857 15.7535C195.346 17.5985 195.687 19.6705 195.772 21.6575C195.829 22.9348 194.977 22.509 194.381 22.5658C193.757 22.5941 193.019 22.7928 193.161 21.6575C193.757 17.0876 192.338 12.8583 190.805 8.65738C190.152 6.86916 189.584 5.02417 188.988 3.20756C189.159 3.17918 189.244 3.12241 189.329 3.12241C190.748 3.06564 191.666 3.71848 192.082 5.08094C192.849 7.49361 193.587 9.90629 194.466 12.6312C195.318 9.87791 196.198 7.43684 196.822 4.93901C197.191 3.46302 197.816 2.83856 199.292 3.12241C199.519 3.17918 199.774 3.12241 200.001 3.12241V3.40625L199.973 3.37787Z" fill="white"/>
  <path d="M79.3128 43.741C77.8936 40.9593 78.3478 38.0641 80.4766 36.3042C82.5203 34.6296 86.1251 34.4592 88.1688 35.9352C90.2124 37.4112 90.5531 40.3348 89.0771 43.7977C91.1491 43.5707 93.2496 43.9113 95.2649 43.4287C95.8042 43.3152 96.3719 43.3152 96.9112 42.9178C95.8042 41.6689 94.5837 40.5903 93.1077 39.8523C92.0858 39.3414 91.8304 37.5815 92.767 36.9571C95.0946 35.4527 97.564 34.2606 100.459 34.7147C103.723 35.2256 105.029 37.7518 103.638 40.7322C103.241 41.5837 102.645 42.3217 101.793 43.0881C103.865 44.0532 105.881 43.599 107.868 43.6274C108.492 43.6274 108.208 42.9462 108.208 42.5772C108.208 38.6318 108.265 34.6863 108.208 30.7409C108.208 29.8042 108.378 29.4352 109.429 29.492C111.359 29.5771 111.359 29.492 111.359 31.4221C111.359 35.992 111.359 40.5335 111.359 45.1034C111.359 45.9549 111.189 46.2388 110.28 46.2104C108.151 46.1253 106.023 46.2104 103.922 46.2104C102.815 46.2104 101.708 46.0969 100.771 45.5292C99.6361 44.848 98.671 44.9047 97.4789 45.3305C95.6623 45.9833 93.7321 46.182 91.7736 46.182C85.4155 46.182 79.029 46.182 72.6709 46.2104C71.6206 46.2104 71.3368 45.9549 71.3652 44.9047C71.4219 40.1645 71.4503 35.4243 71.3652 30.6841C71.3368 29.0662 72.3586 29.6339 73.125 29.5771C73.9482 29.492 74.601 29.4352 74.5726 30.7125C74.4591 34.6012 74.5726 38.5182 74.5159 42.4069C74.5159 43.4003 74.6578 43.8545 75.7932 43.741C76.9569 43.6274 78.1491 43.741 79.3696 43.741H79.3128Z" fill="white"/>
  <path d="M187.513 43.7404C185.951 40.3058 186.689 37.2403 189.528 35.7359C191.373 34.7709 193.331 34.6573 195.29 35.3669C197.39 36.1333 198.128 37.8932 198.213 39.9368C198.299 41.7534 198.213 43.5984 198.242 45.4434C198.242 46.0679 198.043 46.2666 197.447 46.2382C190.834 46.2382 184.22 46.2382 177.635 46.1814C176.585 46.1814 175.534 45.9827 174.825 45.1028C174.427 44.6487 174.285 44.9609 173.973 45.2163C172.071 46.8626 169.716 46.8343 167.899 45.1312C167.558 44.819 167.473 44.7906 167.189 45.1312C166.48 46.0395 165.458 46.2098 164.408 46.2098C162.79 46.2098 161.2 46.1814 159.582 46.2098C158.873 46.2098 158.617 46.0679 158.617 45.3015C158.646 40.3626 158.646 35.4237 158.617 30.5132C158.617 29.8036 158.759 29.463 159.525 29.5765C159.894 29.6333 160.292 29.6333 160.661 29.5765C161.512 29.463 161.768 29.7468 161.768 30.6267C161.711 34.6289 161.768 38.6028 161.711 42.605C161.711 43.57 161.995 43.7687 162.903 43.7404C166.48 43.6552 166.565 43.5984 166.565 39.9652C166.565 39.4543 166.622 38.915 166.565 38.4041C166.338 36.9849 166.82 36.4739 168.353 36.5591C169.432 36.6159 169.801 36.8145 169.744 37.9499C169.63 39.3408 169.716 40.76 169.744 42.1792C169.772 43.0875 170.113 43.8539 171.191 43.939C172.298 44.0242 173.008 43.4849 173.207 42.4063C173.547 40.5329 173.377 38.6595 173.32 36.7862C173.292 35.6508 173.803 35.5372 174.654 35.6508C175.392 35.7359 176.443 35.225 176.329 36.7294C176.216 38.4041 176.244 40.1071 176.329 41.8102C176.386 43.343 177.947 44.2513 179.395 43.712C179.877 43.5133 179.792 43.1443 179.82 42.7753C179.962 40.4194 179.849 38.0918 179.395 35.7643C179.281 35.1399 179.082 34.4586 180.076 34.6006C180.871 34.6857 182.091 33.4936 182.432 35.2534C182.886 37.6661 183.141 40.0788 182.943 42.5482C182.858 43.5984 183.198 43.8539 184.163 43.7687C185.27 43.6836 186.406 43.7687 187.513 43.7687V43.7404Z" fill="white"/>
  <path d="M59.1257 44.7629C56.9117 46.9769 54.2436 46.9769 52.1999 44.7913C51.4619 45.8699 50.3833 46.2389 49.1344 46.2105C47.6584 46.2105 46.2108 46.1821 44.7348 46.2105C44.0536 46.2105 43.8549 46.0118 43.8549 45.3306C43.9116 43.6275 43.8833 41.9528 43.8549 40.2498C43.8549 37.8655 42.4357 36.8436 40.1365 37.4113C39.4837 37.5816 39.6256 37.979 39.6256 38.3764C39.6256 40.6188 39.5688 42.8895 39.6256 45.1319C39.6256 46.0402 39.3701 46.2389 38.5186 46.2105C36.2478 46.097 34.0055 46.3524 31.7347 45.955C26.9377 45.1319 24.4967 40.7039 26.37 36.1624C26.512 35.8502 26.6539 35.5663 27.0229 35.5096C27.9028 35.396 28.7827 35.2541 29.7762 35.1122C29.5207 36.503 29.0666 37.7519 29.095 39.0576C29.1517 41.8677 30.429 43.2869 33.2391 43.5991C35.4909 43.8451 36.6168 42.8611 36.6168 40.6471C36.6168 39.1995 36.6168 37.7236 36.6168 36.2759C36.6168 35.7934 36.5601 35.2825 37.2413 35.1973C39.3134 34.9703 41.357 34.6013 43.4291 35.1122C45.3876 35.5947 46.4662 36.7017 46.6649 38.6886C46.8069 40.0511 46.7785 41.4135 46.7785 42.776C46.7785 43.4004 46.9204 43.7694 47.63 43.6843C48.0842 43.6275 48.5667 43.6843 49.0492 43.6843C50.4117 43.7694 51.0929 43.0598 51.1497 41.7825C51.2064 40.3633 51.2348 38.9725 51.1781 37.5532C51.1781 36.8152 51.32 36.3895 52.1715 36.5314C52.5405 36.5882 52.9379 36.5882 53.3069 36.5314C54.1017 36.4179 54.3855 36.7017 54.3287 37.5249C54.272 38.9441 54.272 40.3349 54.3287 41.7541C54.3571 42.8328 54.5558 43.883 55.975 43.9114C57.1104 43.9397 57.8484 43.2017 57.9336 41.7825C58.0187 40.0511 58.0471 38.2912 57.9336 36.5598C57.8768 35.3393 58.6148 35.5663 59.296 35.6231C59.9489 35.6799 60.9991 35.1122 60.9423 36.5882C60.8572 38.2345 60.8855 39.8808 60.9423 41.5271C60.9991 43.2585 62.248 44.1384 63.9227 43.6843C64.5187 43.514 64.4052 43.0882 64.4336 42.6908C64.5755 40.3349 64.4904 38.0074 64.0078 35.6799C63.8375 34.8851 63.9511 34.3174 64.8594 34.431C65.6257 34.5161 66.7611 33.4091 67.0734 35.1122C67.6978 38.5183 67.7262 41.9244 67.3572 45.359C67.3004 45.8131 67.3004 46.1821 66.676 46.1537C64.9729 46.097 63.2698 46.1253 61.5952 46.0402C60.5733 45.9834 59.7218 45.5009 59.0689 44.6777L59.1257 44.7629Z" fill="white"/>
  <path d="M34.7429 17.9958C35.339 15.2993 35.9351 12.6311 36.5312 9.93462C36.9853 7.91932 37.4678 5.90402 37.8652 3.88873C38.1491 2.38435 39.2845 3.29265 40.0224 3.12235C40.8456 2.92366 40.7321 3.66165 40.7321 4.14419C40.8456 9.963 40.9307 15.7818 41.0727 21.6006C41.0727 22.4805 40.7321 22.5941 39.9941 22.5657C39.2845 22.5657 38.7735 22.5941 38.8019 21.5722C38.8587 17.5416 38.8019 13.5111 38.7168 9.48046C37.922 10.8429 37.7801 12.4041 37.4111 13.8801C36.7866 16.3211 36.2757 18.8189 35.6229 21.26C35.4809 21.7709 35.6796 22.5941 34.601 22.5941C33.5508 22.5941 33.6643 21.8845 33.5224 21.3168C32.6425 17.712 31.8193 14.1071 30.9678 10.5023C30.911 10.2468 30.9962 9.90623 30.3433 9.65077C30.3433 13.653 30.3433 17.5416 30.3433 21.4303C30.3433 22.2251 30.2582 22.5657 29.2931 22.5657C28.2713 22.5657 28.0442 22.2535 28.0726 21.2884C28.2145 15.6115 28.2997 9.93462 28.4132 4.25773C28.4132 3.74681 28.1861 2.95204 29.1228 3.09396C29.9176 3.2075 31.0246 2.46951 31.3368 4.00227C32.2451 8.37347 33.2102 12.7163 34.1469 17.0875C34.2036 17.3997 34.2888 17.6836 34.3739 17.9958C34.4875 17.9958 34.601 17.9958 34.7429 17.9958Z" fill="white"/>
  <path d="M99.5764 22.4795C97.8355 22.593 96.7569 21.8739 96.3406 20.3222C95.8013 18.3921 95.1768 16.4619 94.7511 14.5034C94.4956 13.3113 93.7292 13.5384 92.9628 13.5384C91.9126 13.5384 92.3668 14.3047 92.3668 14.7589C92.31 17.058 92.2816 19.3572 92.3668 21.6563C92.4235 22.7633 91.7707 22.6214 91.1178 22.5646C90.4934 22.5078 89.5567 23.0471 89.5567 21.6563C89.6135 15.7807 89.5567 9.93353 89.5567 4.05794C89.5567 3.60379 89.4148 3.06449 90.2095 3.09287C92.0829 3.17803 93.9563 2.89418 95.8297 3.34833C97.845 3.83087 98.952 4.99463 99.1223 7.03831C99.2926 9.19553 99.4913 11.4095 97.1637 12.7436C96.6244 13.0558 97.0502 13.51 97.1637 13.879C97.9585 16.7174 98.7816 19.5559 99.6048 22.4795H99.5764Z" fill="white"/>
  <path d="M73.6848 12.858C73.6848 15.6397 73.6564 18.393 73.6848 21.1747C73.6848 22.1965 73.5429 22.6507 72.3507 22.5939C71.3005 22.5371 70.8747 22.3952 70.9315 21.2314C71.045 19.0174 70.9315 16.8318 70.9883 14.6179C70.9883 13.7379 70.7612 13.4541 69.8813 13.5109C68.6324 13.596 66.9577 13.1135 66.1913 13.7663C65.3965 14.4192 65.9926 16.1506 65.9642 17.3995C65.9358 18.8471 65.8791 20.3231 65.9642 21.7707C66.021 22.7358 65.4249 22.679 64.914 22.5655C64.3179 22.4236 63.2109 23.2183 63.2109 21.8559C63.2109 15.8384 63.2109 9.84926 63.2109 3.83176C63.2109 2.55446 64.2612 3.29245 64.8289 3.17892C65.283 3.09376 65.9926 2.89507 65.9642 3.88853C65.9075 6.10252 65.9926 8.28812 65.9358 10.5021C65.9075 11.4672 66.2197 11.7226 67.128 11.6375C68.3769 11.4956 70.0516 12.1768 70.7612 11.3536C71.3857 10.644 70.9599 9.02611 70.9599 7.80558C70.9599 6.52828 71.0167 5.27937 70.9599 4.00207C70.9031 2.69638 71.8398 3.23569 72.4075 3.17892C73.0036 3.12215 73.7132 2.92346 73.6848 4.05883C73.5996 7.01082 73.6848 9.9628 73.6848 12.9432V12.858Z" fill="white"/>
  <path d="M130.427 35.1676C130.029 36.6436 129.689 37.8357 129.717 39.1414C129.774 41.9515 131.051 43.3707 133.861 43.6829C136.113 43.9289 137.239 42.9449 137.239 40.7309C137.239 39.2833 137.239 37.8073 137.239 36.3597C137.239 35.8772 137.182 35.3663 137.835 35.2811C139.935 35.0541 142.036 34.6851 144.165 35.196C145.981 35.6501 147.032 36.7855 147.259 38.6021C147.429 39.9362 147.344 41.327 147.401 42.6895C147.401 43.2288 147.23 43.3707 146.691 43.4275C144.449 43.5978 144.449 43.6262 144.449 41.4122C144.449 41.0432 144.449 40.6742 144.449 40.2768C144.392 37.9209 142.973 36.8707 140.702 37.4667C140.049 37.637 140.219 38.0628 140.219 38.4318C140.219 40.7309 140.219 43.0301 140.219 45.3292C140.219 45.8118 140.304 46.2659 139.538 46.2375C137.125 46.124 134.741 46.4078 132.328 45.9821C127.531 45.1589 125.09 40.7026 126.964 36.1894C127.106 35.8772 127.248 35.5934 127.645 35.5366C128.525 35.4231 129.405 35.2811 130.427 35.1392V35.1676Z" fill="white"/>
  <path d="M76.0742 22.4801C77.0109 18.0805 77.9476 13.7377 78.8559 9.36646C79.2533 7.52147 79.7074 5.70486 80.0197 3.85987C80.1616 2.8948 80.7577 3.00834 81.3253 3.09349C81.9214 3.17864 82.7446 2.63934 83 3.8031C84.2489 9.82061 85.5546 15.8097 86.8603 21.7988C86.9738 22.3382 86.8887 22.5085 86.2926 22.5652C85.0153 22.7071 84.0786 22.5085 84.107 20.9473C84.107 20.8622 84.107 20.7486 84.107 20.6635C83.5677 17.6263 83.5677 17.6547 80.5022 17.7115C79.7926 17.7115 79.4803 17.9102 79.3952 18.5914C79.2817 19.4145 79.0262 20.2377 78.9694 21.0892C78.8843 22.253 78.3734 22.7639 77.1812 22.5368C76.869 22.4801 76.5284 22.4801 76.1026 22.4517L76.0742 22.4801Z" fill="white"/>
  <path d="M130.882 22.3954C130.769 22.4521 130.712 22.4805 130.684 22.4805C129.151 22.613 128.243 21.9317 127.959 20.4368C127.448 17.7119 127.448 17.7403 124.581 17.7119C123.673 17.7119 123.332 17.9958 123.219 18.8189C123.077 19.784 122.821 20.7491 122.679 21.7141C122.594 22.2818 122.424 22.5089 121.828 22.5373C119.954 22.6508 119.954 22.6792 120.352 20.8058C121.515 15.2992 122.708 9.82105 123.843 4.31446C124.013 3.43455 124.269 2.92363 125.347 3.03716C126.256 3.12232 126.823 3.12232 127.05 4.28608C128.271 10.332 129.605 16.3779 130.882 22.3954Z" fill="white"/>
  <path d="M153.481 22.4526C151.853 22.6229 150.898 21.9511 150.614 20.4373C150.103 17.7407 150.103 17.7975 147.378 17.7124C146.328 17.684 145.987 18.053 145.874 18.9897C145.76 19.8696 145.476 20.7211 145.391 21.601C145.306 22.2822 145.079 22.5377 144.341 22.5377C142.666 22.5377 142.666 22.5945 143.007 20.9198C144.171 15.3848 145.363 9.84986 146.498 4.28651C146.697 3.34982 146.981 2.95244 148.031 3.00921C148.968 3.06598 149.507 3.15113 149.734 4.28651C150.926 10.2189 152.232 16.0944 153.509 21.9984C153.509 22.1119 153.509 22.2539 153.509 22.3958L153.481 22.4526Z" fill="white"/>
  <path d="M164.746 22.4801C165.683 18.0805 166.619 13.7377 167.528 9.36646C167.925 7.52147 168.379 5.70486 168.692 3.85987C168.833 2.8948 169.43 3.00834 169.997 3.09349C170.593 3.17864 171.416 2.63934 171.672 3.8031C172.921 9.82061 174.227 15.8097 175.532 21.7988C175.646 22.3382 175.561 22.5085 174.964 22.5652C173.687 22.7071 172.751 22.5085 172.779 20.9473C172.779 20.8622 172.779 20.7486 172.779 20.6635C172.24 17.6263 172.24 17.6547 169.174 17.7115C168.464 17.7115 168.152 17.9102 168.067 18.5914C167.954 19.4145 167.698 20.2377 167.641 21.0892C167.556 22.253 167.045 22.7639 165.853 22.5368C165.541 22.4801 165.2 22.4801 164.774 22.4517L164.746 22.4801Z" fill="white"/>
  <path d="M52.7952 16.5773C52.9939 17.4288 53.1358 18.252 53.4197 19.0468C53.9022 20.3808 54.9524 20.9201 56.173 20.6647C57.5922 20.3524 57.8193 19.3306 57.7909 18.1101C57.7625 17.1166 57.3367 16.2935 56.6271 15.6122C55.2647 14.3349 53.8454 13.086 52.4546 11.8087C51.4328 10.9004 50.7799 9.82181 50.6096 8.43097C50.0987 4.25846 53.2777 1.8174 57.2516 3.29339C58.7559 3.86108 60.1752 6.04668 59.9765 7.55105C59.8346 8.51613 58.8695 8.14713 58.2734 8.43097C57.7341 8.68643 57.7341 8.17551 57.6206 7.8349C57.4786 7.29559 57.3935 6.72791 57.1664 6.21699C56.6555 5.08161 55.6053 4.9113 54.5267 5.10999C53.4481 5.30868 52.9939 6.07506 52.9655 7.15367C52.9371 8.23228 53.3629 9.05543 54.1577 9.73666C55.293 10.7301 56.4284 11.6952 57.5354 12.717C59.0398 14.0795 60.2036 15.6122 60.3171 17.7411C60.459 20.7498 58.6708 22.7651 55.7756 22.8219C52.7952 22.8787 50.4677 20.6079 50.5245 17.7411C50.5245 17.2585 50.7515 17.0598 51.1489 16.9747C51.6882 16.8328 52.2559 16.7192 52.7952 16.5773Z" fill="white"/>
  <path d="M182.287 2.95221C185.126 2.95221 186.715 4.37144 187.141 7.1815C187.34 8.51556 186.233 8.0898 185.693 8.37364C184.927 8.77102 184.899 8.11818 184.785 7.60726C184.671 7.15311 184.586 6.69896 184.388 6.27319C183.848 5.05266 182.798 4.85397 181.663 5.08105C180.584 5.30812 180.187 6.10289 180.158 7.1815C180.158 8.2601 180.612 9.08325 181.379 9.76448C182.514 10.7579 183.65 11.723 184.785 12.7448C186.346 14.1925 187.538 15.8104 187.538 18.0811C187.538 21.0331 185.636 22.9065 182.628 22.8213C179.874 22.7362 177.519 20.3235 177.746 17.6837C177.859 16.5484 178.966 16.9174 179.647 16.6619C180.385 16.3781 180.102 17.1444 180.187 17.4567C180.414 18.2514 180.499 19.1313 181.067 19.8126C181.748 20.6357 182.571 20.8628 183.593 20.579C184.615 20.2951 184.955 19.5571 185.012 18.5637C185.069 17.3715 184.7 16.3497 183.82 15.5265C182.486 14.2776 181.123 13.0287 179.733 11.8365C177.888 10.247 177.462 8.23172 177.944 5.96096C178.342 4.05921 180.016 2.95221 182.316 2.92383L182.287 2.95221Z" fill="white"/>
  <path d="M112.661 3.17949C111.838 5.64894 111.157 8.11838 110.22 10.5027C108.858 13.9656 108.148 17.5136 108.546 21.2036C108.659 22.3674 108.177 22.5093 107.155 22.5661C105.963 22.6228 105.821 22.0835 105.934 21.1752C106.672 15.7254 104.203 10.9284 102.67 5.96117C102.386 5.02448 102.074 4.08779 101.762 3.15111C101.932 3.12272 102.017 3.06595 102.102 3.06595C103.522 3.00918 104.439 3.65256 104.856 4.99609C105.622 7.40877 106.36 9.82145 107.24 12.5464C108.063 9.87822 108.801 7.49393 109.539 5.13802C109.993 3.66203 111.043 2.99972 112.69 3.15111L112.661 3.17949Z" fill="white"/>
  <path d="M156.178 12.801C156.178 9.93414 156.206 7.06732 156.178 4.20049C156.178 3.37734 156.32 3.03672 157.256 3.06511C159.13 3.15026 161.031 3.15026 162.905 3.06511C163.813 3.03672 163.728 3.49087 163.756 4.08695C163.785 4.76817 163.671 5.19394 162.876 5.05202C162.82 5.05202 162.791 5.05202 162.734 5.05202C161.514 5.0804 159.811 4.62625 159.186 5.25071C158.392 6.04548 158.959 7.72016 158.931 9.02584C158.903 11.5237 158.931 11.5237 161.372 11.5237C162.11 11.5237 162.678 11.4101 162.678 12.5455C162.678 13.7377 161.968 13.4822 161.315 13.5106C159.726 13.5106 158.931 14.3243 158.931 15.9516C158.931 17.7966 158.846 19.6132 158.959 21.4582C159.045 22.622 158.448 22.5936 157.625 22.5652C156.802 22.5652 156.121 22.6788 156.149 21.4015C156.263 18.5346 156.178 15.6678 156.178 12.801Z" fill="white"/>
  <path d="M133.494 12.8297C133.494 10.0765 133.551 7.29478 133.466 4.54149C133.438 3.37772 133.75 3.06549 134.913 3.03711C136.077 3.03711 136.276 3.40611 136.248 4.45633C136.191 9.42361 136.248 14.3909 136.191 19.3582C136.191 20.3516 136.418 20.6922 137.411 20.5787C138.291 20.4935 139.2 20.5787 140.079 20.5503C140.903 20.4935 141.243 20.6639 141.243 21.6005C141.243 22.5088 140.846 22.5656 140.136 22.5372C138.263 22.5088 136.361 22.4805 134.488 22.5372C133.693 22.5372 133.438 22.3385 133.438 21.5154C133.494 18.6202 133.438 15.6966 133.438 12.8014L133.494 12.8297Z" fill="white"/>
  <path d="M152.117 41.4698C152.117 39.7383 152.145 38.0069 152.117 36.2754C152.117 35.509 152.259 35.14 153.11 35.2536C153.536 35.3103 153.962 35.3103 154.388 35.2536C155.04 35.1968 155.296 35.3955 155.268 36.0767C155.239 39.6816 155.324 43.3148 155.211 46.9196C155.097 50.7515 152.088 52.9087 148.285 52.1139C146.923 51.8301 147.689 50.8934 147.604 50.2122C147.49 49.2755 148.143 49.5877 148.626 49.6161C151.322 49.8148 152.117 49.1052 152.145 46.3803C152.145 44.734 152.145 43.0877 152.145 41.4414L152.117 41.4698Z" fill="white"/>
  <path d="M118.395 37.8929C118.395 40.2771 118.338 42.6898 118.395 45.0741C118.395 45.9824 118.168 46.2663 117.231 46.2379C115.244 46.1811 115.244 46.2379 115.244 44.2226C115.244 39.7095 115.301 35.1963 115.216 30.7116C115.187 29.264 116.039 29.5762 116.805 29.5762C117.6 29.5762 118.48 29.264 118.395 30.7116C118.281 33.0959 118.366 35.5086 118.366 37.8929H118.395Z" fill="white"/>
  <path d="M44.71 12.6596C44.71 9.79277 44.7668 6.92594 44.6817 4.08749C44.6249 2.89534 45.3061 3.06565 45.9873 3.09404C46.6402 3.09404 47.3782 2.81019 47.3498 4.03072C47.293 9.9063 47.293 15.7535 47.3498 21.6291C47.3498 22.878 46.5834 22.509 45.959 22.5374C45.2494 22.5658 44.6249 22.7077 44.6533 21.5439C44.7668 18.5919 44.6817 15.64 44.6817 12.688L44.71 12.6596Z" fill="white"/>
  <path d="M84.3885 33.6634C83.3666 33.5783 82.7422 33.0674 82.7422 32.1023C82.7422 31.1372 83.3383 30.5128 84.3033 30.4844C85.2968 30.4844 85.8929 31.0804 85.9212 32.0455C85.9496 33.039 85.3536 33.5499 84.3885 33.6634Z" fill="white"/>
  <path d="M174.223 32.2729C174.138 33.2096 173.57 33.7773 172.662 33.7489C171.782 33.7489 171.129 33.1812 171.157 32.2445C171.157 31.2795 171.81 30.7686 172.718 30.7686C173.627 30.7686 174.166 31.3362 174.251 32.2729H174.223Z" fill="white"/>
  <path d="M176.188 29.1793C176.017 30.0876 175.535 30.6837 174.598 30.6553C173.69 30.6269 173.094 30.0024 173.122 29.0941C173.15 28.1858 173.747 27.6181 174.683 27.6465C175.62 27.6749 176.074 28.2994 176.159 29.1793H176.188Z" fill="white"/>
  <path d="M176.555 30.7119C177.435 30.8255 178.088 31.2796 178.088 32.2163C178.088 33.1814 177.492 33.7207 176.612 33.749C175.704 33.7774 175.107 33.1814 175.079 32.2731C175.051 31.3364 175.675 30.8538 176.555 30.7119Z" fill="white"/>
  <path d="M32.0501 47.9697C32.9584 48.0833 33.5829 48.5658 33.6113 49.4741C33.6113 50.3824 33.0436 50.9785 32.1353 51.0069C31.227 51.0069 30.6309 50.4676 30.6025 49.5593C30.5741 48.6226 31.1702 48.14 32.0501 47.9697Z" fill="white"/>
  <path d="M37.3887 49.5308C37.2468 50.4107 36.7642 51.0068 35.8559 51.0068C34.9476 51.0068 34.3516 50.4107 34.3516 49.5024C34.3516 48.5941 34.976 47.998 35.8843 47.998C36.7926 47.998 37.3035 48.6225 37.4171 49.5308H37.3887Z" fill="white"/>
  <path d="M134.206 49.5308C134.064 50.4107 133.582 51.0068 132.645 50.9784C131.737 50.9784 131.141 50.3823 131.169 49.474C131.169 48.5657 131.793 47.9697 132.673 47.998C133.582 47.998 134.093 48.6225 134.206 49.5308Z" fill="white"/>
  <path d="M137.952 49.4172C137.839 50.3539 137.385 50.95 136.448 50.9784C135.511 50.9784 134.915 50.4107 134.887 49.5308C134.887 48.6225 135.454 48.0264 136.363 47.998C137.271 47.9696 137.754 48.5941 137.952 49.4456V49.4172Z" fill="white"/>
  <path opacity="0.4" d="M21.2082 25.7733C21.2082 32.5004 21.2082 39.1992 21.2082 45.9263C21.2082 48.9918 19.6754 50.4678 16.5815 50.4962C12.8915 50.4962 9.22994 50.4962 5.53996 50.4962C2.81505 50.4962 1.25391 48.935 1.25391 46.2385C1.25391 32.6707 1.25391 19.0746 1.25391 5.50682C1.25391 2.8103 2.84344 1.22077 5.53996 1.19238C9.31509 1.19238 13.0902 1.19238 16.8654 1.19238C19.5335 1.19238 21.2082 2.86707 21.2082 5.50682C21.2082 12.2623 21.2082 19.0462 21.2082 25.8017V25.7733Z" fill="white"/>
  <path d="M86.9417 40.5608C86.9417 42.5761 85.9199 43.7398 84.1884 43.7398C82.5138 43.7398 81.6055 42.6328 81.6055 40.6175C81.6055 38.6306 82.6557 37.4385 84.3588 37.4385C86.0618 37.4385 86.9417 38.5455 86.9417 40.5608Z" fill="#07060A"/>
  <path d="M95.3477 38.3191C96.3979 37.5527 97.363 37.0702 98.4416 36.9283C99.5486 36.7863 100.514 37.0702 100.968 38.2056C101.337 39.1422 100.741 40.8169 99.9459 41.3562C99.4918 41.6685 99.2647 41.3562 99.0092 41.1292C97.9306 40.1073 96.7953 39.1422 95.3477 38.3191Z" fill="#07060A"/>
  <path d="M195.172 41.5548C195.172 43.8823 194.718 44.1945 192.106 43.6552C190.403 43.3146 189.523 41.867 189.836 39.8801C190.091 38.2338 191.255 37.2971 192.901 37.4106C193.895 37.4674 194.547 37.9783 194.916 38.8866C195.257 39.7382 195.172 40.6465 195.172 41.5264V41.5548Z" fill="#07060A"/>
  <path d="M92.3383 8.28843C92.3383 7.83428 92.2531 7.35174 92.3383 6.89759C92.4518 6.27313 91.8558 5.27968 92.7641 5.10937C93.9278 4.91068 95.347 4.74037 96.085 5.98929C96.9082 7.35174 96.8798 8.91288 96.227 10.3037C95.6593 11.5526 94.3536 11.4959 93.1614 11.5526C92.4518 11.581 92.2815 11.3256 92.3099 10.6727C92.3667 9.87796 92.3099 9.08319 92.3099 8.28843H92.3383Z" fill="#07060A"/>
  <path d="M81.6951 7.80664C82.1493 10.2761 82.6034 12.7455 83.0576 15.215C83.1427 15.6691 82.9724 15.7543 82.575 15.8111C80.134 16.1801 79.9069 15.953 80.361 13.5119C80.7016 11.6102 81.0423 9.73678 81.3829 7.83502C81.4964 7.83502 81.5816 7.83503 81.6951 7.80664Z" fill="#07060A"/>
  <path d="M125.347 7.5498C125.574 7.94719 125.659 8.06073 125.688 8.17426C126.142 10.6721 126.596 13.1415 127.079 15.6961C125.972 15.8381 124.95 15.8097 123.871 15.6961C124.354 13.028 124.836 10.4166 125.347 7.5498Z" fill="#07060A"/>
  <path d="M148.227 7.77741C148.567 9.53724 148.936 11.2971 149.248 13.0569C149.759 15.8954 149.759 15.8954 146.807 15.7534C146.751 15.7534 146.722 15.7251 146.523 15.6399C147.006 13.0569 147.46 10.4172 147.943 7.77741C148.028 7.77741 148.113 7.77741 148.227 7.74902V7.77741Z" fill="#07060A"/>
  <path d="M170.368 7.80573C170.851 10.4171 171.333 13.0285 171.844 15.6966C170.737 15.8385 169.715 15.8101 168.637 15.6966C169.119 13.0285 169.602 10.4171 170.084 7.77734C170.198 7.77734 170.283 7.77734 170.397 7.77734L170.368 7.80573Z" fill="#07060A"/>
  <path d="M16.6944 6.58478C15.3603 7.94724 14.3101 9.05423 13.2315 10.0761C12.6638 10.587 12.6638 10.9844 13.2599 11.3818C14.7926 12.432 14.9913 13.8796 14.9913 15.6394C14.9062 25.8862 14.9629 36.133 14.9345 46.3514C14.9345 46.9475 15.2468 47.6855 14.083 47.6855C13.2315 47.6855 12.976 47.4868 12.976 46.6069C13.0328 42.5763 12.976 38.5173 13.0328 34.4867C13.0328 33.4649 12.8625 33.1242 11.7555 33.1526C9.39957 33.2378 9.37118 33.1526 9.37118 35.5085C9.37118 38.9431 9.42795 42.3776 9.3428 45.7837C9.3428 46.4082 10.1092 47.6003 8.51965 47.6287C6.90174 47.6855 7.61135 46.4649 7.61135 45.8405C7.55458 35.5937 7.61135 25.3469 7.55458 15.1285C7.55458 13.5957 7.81004 12.3752 9.08734 11.4953C9.76857 11.0128 9.85372 10.6154 9.14411 9.99092C8.0655 9.02585 7.10043 7.97562 6.0502 6.89701C5.65282 7.52147 5.79474 8.03239 5.79474 8.51493C5.79474 21.1176 5.79474 33.6919 5.79474 46.2946C5.79474 46.7488 6.13536 47.4584 5.42575 47.5719C4.68775 47.6855 4.20521 47.0894 4.00652 46.4366C3.8646 46.0108 3.92137 45.4999 3.92137 45.0457C3.92137 32.2159 3.92137 19.3862 3.92137 6.58478C3.92137 6.21579 3.92137 5.8184 3.92137 5.44941C4.00652 4.71141 4.48906 4.31403 5.1419 4.03018C5.79474 3.74634 6.10697 4.22887 6.44759 4.56949C7.81004 5.93194 9.22926 7.26601 10.5349 8.65685C11.1026 9.25292 11.4149 9.22454 11.9542 8.65685C13.2599 7.2944 14.5939 5.98871 15.9564 4.65464C16.3254 4.28564 16.6376 3.71795 17.3756 4.05857C18.0284 4.3708 18.4542 4.79656 18.511 5.53456C18.511 5.8184 18.511 6.10225 18.511 6.38609C18.511 19.301 18.511 32.2159 18.511 45.1309C18.511 45.8405 18.6245 46.5501 18.0284 47.1178C17.7162 47.4016 17.3756 47.7422 16.9214 47.6003C16.4389 47.43 16.6944 46.9475 16.6944 46.6069C16.6944 44.1658 16.6944 41.7247 16.6944 39.2837C16.6944 28.9517 16.6944 18.6198 16.6944 8.28785V6.5564V6.58478Z" fill="#07060A"/>
  <path d="M11.185 12.2051C12.6326 13.1134 13.1151 14.334 13.0583 16.0654C12.9164 20.7205 13.0016 25.3755 13.0583 30.0022C13.0583 30.9389 12.9164 31.3079 11.8662 31.2795C9.39673 31.2227 9.39673 31.2795 9.39673 28.8668C9.39673 24.5808 9.51027 20.3231 9.33997 16.037C9.2832 14.2772 9.8225 13.0851 11.2133 12.1768L11.185 12.2051Z" fill="white"/>
</svg>