<svg width="480" height="500" viewBox="0 0 1440 500" fill="none" xmlns="http://www.w3.org/2000/svg">
<path opacity="0.0144928" d="M1310.72 1163.27C1319.77 1168.08 1330.91 1166.31 1338.04 1158.94L1506.87 984.325C1511.09 979.967 1513.41 974.122 1513.34 968.06L1509.08 614.934C1509.02 610.167 1507.48 605.536 1504.68 601.68L1323.73 352.941C1318.64 345.952 1310.07 342.403 1301.53 343.755L1093.53 376.699C1084.99 378.051 1077.93 384.076 1075.26 392.295L980.027 684.777C978.551 689.31 978.52 694.19 979.938 698.741L1085.01 1035.9C1086.82 1041.69 1090.83 1046.53 1096.19 1049.37L1310.72 1163.27Z" stroke="url(#paint0_linear_603_1403)" stroke-width="4"/>
<path opacity="0.0289855" d="M1271.63 1161.95C1280.41 1167.2 1291.59 1166.02 1299.08 1159.07L1475.79 995.02C1480.24 990.889 1482.87 985.167 1483.12 979.101L1497.38 629.534C1497.58 624.756 1496.28 620.037 1493.67 616.032L1327.11 360.648C1322.39 353.417 1314.02 349.436 1305.44 350.338L1097.28 372.217C1088.69 373.119 1081.33 378.753 1078.22 386.806L968.399 671.24C966.676 675.7 966.387 680.587 967.571 685.22L1054.2 1024.18C1055.71 1030.06 1059.47 1035.11 1064.68 1038.23L1271.63 1161.95Z" stroke="url(#paint1_linear_603_1403)" stroke-width="4"/>
<path opacity="0.0434783" d="M1232.86 1159.45C1241.34 1165.12 1252.53 1164.54 1260.37 1158.01L1444.3 1004.88C1448.97 1000.99 1451.91 995.404 1452.48 989.351L1484.88 644.305C1485.33 639.53 1484.28 634.734 1481.86 630.588L1329.89 369.377C1325.55 361.925 1317.41 357.524 1308.81 357.975L1101.07 368.862C1092.46 369.313 1084.82 374.541 1081.29 382.406L957.451 658.071C955.486 662.446 954.937 667.326 955.882 672.029L1024.17 1011.8C1025.37 1017.76 1028.88 1023 1033.93 1026.38L1232.86 1159.45Z" stroke="url(#paint2_linear_603_1403)" stroke-width="4"/>
<path opacity="0.057971" d="M1194.47 1155.8C1202.62 1161.88 1213.79 1161.88 1221.95 1155.8L1412.45 1013.88C1417.33 1010.24 1420.58 1004.82 1421.46 998.793L1471.57 659.201C1472.27 654.441 1471.46 649.581 1469.26 645.305L1332.02 379.086C1328.08 371.434 1320.19 366.625 1311.58 366.625L1104.84 366.625C1096.23 366.625 1088.34 371.434 1084.39 379.086L947.157 645.305C944.953 649.581 944.145 654.441 944.847 659.201L994.951 998.793C995.84 1004.82 999.081 1010.24 1003.96 1013.88L1194.47 1155.8Z" stroke="url(#paint3_linear_603_1403)" stroke-width="4"/>
<path opacity="0.0724638" d="M1156.5 1151.03C1164.32 1157.49 1175.44 1158.08 1183.89 1152.47L1380.3 1022.02C1385.38 1018.65 1388.91 1013.39 1390.12 1007.42L1457.44 674.177C1458.4 669.446 1457.84 664.535 1455.85 660.138L1333.46 389.731C1329.91 381.898 1322.29 376.697 1313.71 376.247L1108.53 365.494C1099.94 365.044 1091.82 369.421 1087.48 376.84L937.492 632.972C935.053 637.137 933.986 641.963 934.442 646.768L966.565 985.22C967.141 991.291 970.105 996.885 974.805 1000.77L1156.5 1151.03Z" stroke="url(#paint4_linear_603_1403)" stroke-width="4"/>
<path opacity="0.0869565" d="M1119.03 1145.18C1126.48 1152.01 1137.52 1153.17 1146.24 1148.04L1347.88 1029.29C1353.14 1026.19 1356.95 1021.13 1358.48 1015.21L1442.5 689.188C1443.71 684.499 1443.4 679.549 1441.63 675.043L1334.15 401.265C1331.01 393.272 1323.68 387.693 1315.14 386.796L1112.08 365.454C1103.54 364.556 1095.22 368.49 1090.49 375.655L928.427 621.102C925.759 625.143 924.434 629.922 924.641 634.759L939.04 971.128C939.301 977.23 941.979 982.978 946.483 987.103L1119.03 1145.18Z" stroke="url(#paint5_linear_603_1403)" stroke-width="4"/>
<path opacity="0.101449" d="M1082.1 1138.27C1089.18 1145.45 1100.11 1147.18 1109.06 1142.54L1315.25 1035.68C1320.68 1032.87 1324.76 1028.01 1326.6 1022.17L1426.75 704.189C1428.2 699.557 1428.16 694.581 1426.62 689.975L1334.05 413.637C1331.33 405.507 1324.31 399.567 1315.84 398.226L1115.44 366.486C1106.97 365.144 1098.46 368.625 1093.36 375.515L919.932 609.724C917.041 613.628 915.461 618.346 915.417 623.203L912.397 956.569C912.342 962.686 914.726 968.573 919.021 972.929L1082.1 1138.27Z" stroke="url(#paint6_linear_603_1403)" stroke-width="4"/>
<path opacity="0.115942" d="M1045.77 1130.36C1052.46 1137.86 1063.24 1140.16 1072.4 1136.02L1282.45 1041.2C1288.04 1038.68 1292.39 1034.03 1294.53 1028.29L1410.19 719.138C1411.9 714.574 1412.11 709.585 1410.8 704.892L1333.13 426.798C1330.83 418.552 1324.14 412.268 1315.76 410.488L1118.55 368.569C1110.18 366.789 1101.51 369.808 1096.05 376.404L911.98 598.864C908.874 602.618 907.04 607.262 906.744 612.126L886.659 941.598C886.286 947.713 888.369 953.724 892.445 958.299L1045.77 1130.36Z" stroke="url(#paint7_linear_603_1403)" stroke-width="4"/>
<path opacity="0.130435" d="M1010.08 1121.48C1016.37 1129.29 1026.98 1132.13 1036.32 1128.51L1249.55 1045.83C1255.27 1043.61 1259.86 1039.2 1262.32 1033.57L1392.84 733.989C1394.8 729.507 1395.27 724.518 1394.2 719.749L1331.35 440.693C1329.47 432.353 1323.12 425.743 1314.86 423.53L1121.35 371.679C1113.09 369.466 1104.29 372.016 1098.49 378.3L904.539 588.545C901.224 592.139 899.14 596.696 898.59 601.554L861.839 926.265C861.149 932.363 862.924 938.484 866.769 943.266L1010.08 1121.48Z" stroke="url(#paint8_linear_603_1403)" stroke-width="4"/>
<path opacity="0.144928" d="M975.095 1111.68C980.955 1119.77 991.369 1123.16 1000.87 1120.05L1216.57 1049.59C1222.41 1047.68 1227.25 1043.51 1230 1038.01L1374.71 748.7C1376.9 744.313 1377.64 739.338 1376.81 734.504L1328.67 455.269C1327.22 446.856 1321.23 439.939 1313.11 437.301L1123.79 375.788C1115.68 373.15 1106.76 375.226 1100.65 381.179L897.575 578.792C894.059 582.214 891.729 586.67 890.926 591.509L837.949 910.627C836.942 916.691 838.404 922.905 842.009 927.883L975.095 1111.68Z" stroke="url(#paint9_linear_603_1403)" stroke-width="4"/>
<path opacity="0.15942" d="M940.843 1101.01C946.27 1109.36 956.457 1113.27 966.078 1110.7L1183.57 1052.47C1189.52 1050.88 1194.58 1046.97 1197.62 1041.61L1355.81 763.231C1358.24 758.951 1359.23 754.003 1358.64 749.116L1325.07 470.468C1324.05 462.006 1318.43 454.802 1310.48 451.747L1125.83 380.868C1117.87 377.814 1108.88 379.41 1102.46 385.016L891.055 569.626C887.347 572.864 884.776 577.206 883.72 582.014L815 894.738C813.678 900.751 814.823 907.043 818.177 912.206L940.843 1101.01Z" stroke="url(#paint10_linear_603_1403)" stroke-width="4"/>
<path opacity="0.173913" d="M907.372 1089.52C912.355 1098.1 922.287 1102.53 932.003 1100.48L1150.6 1054.48C1156.64 1053.21 1161.91 1049.57 1165.24 1044.38L1336.15 777.538C1338.81 773.378 1340.07 768.471 1339.73 763.543L1320.52 486.234C1319.93 477.745 1314.7 470.273 1306.93 466.812L1127.41 386.886C1119.63 383.424 1110.58 384.538 1103.88 389.782L884.947 561.063C881.057 564.107 878.25 568.322 876.941 573.086L793 878.652C791.367 884.598 792.189 890.951 795.283 896.285L907.372 1089.52Z" stroke="url(#paint11_linear_603_1403)" stroke-width="4"/>
<path opacity="0.188406" d="M874.714 1077.25C879.242 1086.05 888.893 1090.97 898.675 1089.46L1117.7 1055.64C1123.81 1054.7 1129.28 1051.34 1132.88 1046.33L1315.75 791.583C1318.64 787.556 1320.15 782.703 1320.06 777.746L1314.99 502.509C1314.83 494.014 1310 486.297 1302.43 482.439L1128.48 393.806C1120.91 389.949 1111.83 390.579 1104.86 395.446L879.21 553.122C875.147 555.962 872.109 560.038 870.551 564.744L771.946 862.423C770.004 868.286 770.502 874.685 773.328 880.177L874.714 1077.25Z" stroke="url(#paint12_linear_603_1403)" stroke-width="4"/>
<path opacity="0.202899" d="M842.909 1064.26C846.974 1073.25 856.32 1078.65 866.137 1077.67L1084.92 1055.96C1091.08 1055.35 1096.73 1052.29 1100.6 1047.46L1294.63 805.326C1297.74 801.444 1299.51 796.658 1299.67 791.686L1308.47 519.232C1308.74 510.753 1304.32 502.813 1296.98 498.571L1129.01 401.593C1121.66 397.351 1112.58 397.498 1105.37 401.974L873.816 545.818C869.59 548.443 866.329 552.368 864.522 557.003L751.847 846.106C749.601 851.871 749.771 858.297 752.32 863.935L842.909 1064.26Z" stroke="url(#paint13_linear_603_1403)" stroke-width="4"/>
<path opacity="0.217391" d="M811.986 1050.61C815.58 1059.77 824.596 1065.62 834.42 1065.18L1052.3 1055.45C1058.49 1055.17 1064.31 1052.41 1068.43 1047.79L1272.82 818.732C1276.14 815.007 1278.16 810.301 1278.58 805.325L1300.94 536.345C1301.64 527.905 1297.64 519.763 1290.54 515.15L1128.94 410.207C1121.84 405.595 1112.78 405.258 1105.35 409.332L868.723 539.164C864.345 541.566 860.868 545.326 858.817 549.879L732.695 829.755C730.149 835.405 729.99 841.844 732.256 847.613L811.986 1050.61Z" stroke="url(#paint14_linear_603_1403)" stroke-width="4"/>
<path opacity="0.231884" d="M781.972 1036.35C785.091 1045.65 793.754 1051.94 803.554 1052.03L1019.88 1054.13C1026.09 1054.19 1032.06 1051.74 1036.43 1047.33L1250.33 831.764C1253.86 828.207 1256.13 823.594 1256.8 818.627L1292.38 553.787C1293.51 545.407 1289.95 537.086 1283.11 532.116L1128.25 419.607C1121.41 414.638 1112.4 413.822 1104.78 417.482L863.897 533.169C859.38 535.339 855.694 538.925 853.402 543.381L714.485 813.423C711.645 818.944 711.158 825.378 713.133 831.263L781.972 1036.35Z" stroke="url(#paint15_linear_603_1403)" stroke-width="4"/>
<path opacity="0.246377" d="M752.892 1021.54C755.529 1030.95 763.819 1037.66 773.566 1038.29L987.703 1052.01C993.91 1052.41 1000.01 1050.28 1004.62 1046.1L1227.19 844.387C1230.92 841.009 1233.43 836.503 1234.35 831.558L1282.8 571.497C1284.35 563.2 1281.22 554.722 1274.67 549.411L1126.9 429.752C1120.34 424.44 1111.4 423.148 1103.6 426.385L859.299 527.844C854.653 529.774 850.768 533.173 848.239 537.521L697.207 797.163C694.08 802.539 693.264 808.952 694.943 814.939L752.892 1021.54Z" stroke="url(#paint16_linear_603_1403)" stroke-width="4"/>
<path opacity="0.26087" d="M724.767 1006.24C726.921 1015.73 734.816 1022.84 744.481 1023.99L955.811 1049.12C961.997 1049.86 968.217 1048.06 973.049 1044.12L1203.43 856.569C1207.34 853.382 1210.1 848.994 1211.28 844.083L1272.18 589.416C1274.14 581.222 1271.47 572.612 1265.21 566.974L1124.85 440.596C1118.59 434.958 1109.74 433.195 1101.8 436.001L854.894 523.195C850.133 524.876 846.058 528.078 843.297 532.306L680.853 781.028C677.446 786.243 676.301 792.618 677.679 798.693L724.767 1006.24Z" stroke="url(#paint17_linear_603_1403)" stroke-width="4"/>
<path opacity="0.275362" d="M697.616 990.497C699.284 1000.05 706.765 1007.53 716.319 1009.2L924.241 1045.49C930.389 1046.56 936.709 1045.09 941.75 1041.41L1179.08 868.279C1183.17 865.291 1186.16 861.035 1187.59 856.171L1260.53 607.483C1262.9 599.412 1260.67 590.693 1254.72 584.746L1122.07 452.093C1116.12 446.146 1107.4 443.919 1099.33 446.286L850.645 519.226C845.781 520.653 841.525 523.646 838.537 527.741L665.405 765.066C661.727 770.107 660.256 776.427 661.329 782.575L697.616 990.497Z" stroke="url(#paint18_linear_603_1403)" stroke-width="4"/>
<path opacity="0.289855" d="M671.45 974.378C672.631 983.97 679.682 991.8 689.097 993.977L893.028 1041.13C899.119 1042.54 905.521 1041.4 910.76 1037.99L1154.16 879.487C1158.42 876.71 1161.65 872.598 1163.32 867.793L1247.84 625.638C1250.61 617.712 1248.83 608.908 1243.22 602.669L1118.54 464.197C1112.92 457.959 1104.35 455.276 1096.18 457.199L846.513 515.941C841.559 517.106 837.132 519.882 833.925 523.832L650.847 749.329C646.906 754.182 645.111 760.431 645.875 766.636L671.45 974.378Z" stroke="url(#paint19_linear_603_1403)" stroke-width="4"/>
<path opacity="0.304348" d="M646.282 957.941C646.977 967.544 653.58 975.698 662.829 978.375L862.207 1036.07C868.224 1037.81 874.69 1037.02 880.112 1033.89L1128.71 890.167C1133.13 887.61 1136.58 883.653 1138.5 878.92L1234.12 643.823C1237.27 636.06 1235.96 627.195 1230.69 620.683L1114.22 476.861C1108.95 470.348 1100.55 467.22 1092.3 468.694L842.461 513.339C837.432 514.238 832.845 516.786 829.424 520.581L637.158 733.864C632.965 738.516 630.85 744.677 631.302 750.924L646.282 957.941Z" stroke="url(#paint20_linear_603_1403)" stroke-width="4"/>
<path opacity="0.318841" d="M622.118 941.244C622.329 950.834 628.47 959.286 637.525 962.45L831.813 1030.34C837.736 1032.41 844.248 1031.97 849.839 1029.12L1102.76 900.292C1107.33 897.963 1110.99 894.174 1113.16 889.525L1219.37 661.977C1222.91 654.398 1222.06 645.497 1217.14 638.73L1109.1 490.033C1104.19 483.267 1095.99 479.703 1087.69 480.725L838.454 511.42C833.363 512.047 828.627 514.359 825.001 517.986L624.317 718.718C619.881 723.156 617.45 729.213 617.588 735.486L622.118 941.244Z" stroke="url(#paint21_linear_603_1403)" stroke-width="4"/>
<path opacity="0.333333" d="M598.962 924.347C598.693 933.899 604.358 942.622 613.194 946.262L801.876 1023.97C807.688 1026.37 814.228 1026.28 819.972 1023.73L1076.35 909.838C1081.06 907.747 1084.93 904.136 1087.34 899.585L1203.62 680.045C1207.53 672.668 1207.13 663.754 1202.58 656.753L1103.17 503.667C1098.62 496.666 1090.64 492.678 1082.31 493.247L834.455 510.181C829.316 510.532 824.444 512.598 820.619 516.048L612.299 703.937C607.631 708.148 604.889 714.085 604.712 720.369L598.962 924.347Z" stroke="url(#paint22_linear_603_1403)" stroke-width="4"/>
<path opacity="0.347826" d="M576.815 907.307C576.07 916.797 581.248 925.765 589.838 929.865L772.425 1017C778.109 1019.71 784.656 1019.97 790.54 1017.73L1049.51 918.786C1054.34 916.94 1058.41 913.519 1061.06 909.075L1186.87 697.97C1191.13 690.813 1191.2 681.91 1187.03 674.695L1096.39 517.709C1092.23 510.494 1084.49 506.096 1076.16 506.212L830.428 509.616C825.255 509.687 820.258 511.5 816.244 514.762L601.075 689.564C596.186 693.535 593.14 699.337 592.648 705.615L576.815 907.307Z" stroke="url(#paint23_linear_603_1403)" stroke-width="4"/>
<path opacity="0.362319" d="M555.672 890.184C554.458 899.587 559.138 908.772 567.459 913.317L743.487 1009.45C749.025 1012.47 755.562 1013.09 761.568 1011.15L1022.27 927.115C1027.22 925.521 1031.47 922.3 1034.35 917.978L1169.14 715.696C1173.75 708.778 1174.27 699.909 1170.49 692.501L1088.77 532.112C1085 524.704 1077.52 519.91 1069.21 519.572L826.336 509.718C821.146 509.507 816.037 511.06 811.841 514.123L590.615 675.64C585.519 679.361 582.175 685.011 581.367 691.269L555.672 890.184Z" stroke="url(#paint24_linear_603_1403)" stroke-width="4"/>
<path opacity="0.376812" d="M535.528 873.034C533.851 882.327 538.025 891.701 546.053 896.673L715.088 1001.36C720.462 1004.68 726.97 1005.65 733.082 1004.04L994.678 934.807C999.722 933.472 1004.16 930.463 1007.27 926.272L1150.45 733.171C1155.39 726.507 1156.36 717.697 1152.99 710.117L1080.29 546.822C1076.91 539.243 1069.72 534.068 1061.46 533.281L822.146 510.478C816.952 509.983 811.744 511.268 807.378 514.123L580.888 662.204C575.597 665.664 571.963 671.149 570.84 677.37L535.528 873.034Z" stroke="url(#paint25_linear_603_1403)" stroke-width="4"/>
<path opacity="0.391304" d="M516.374 855.913C514.242 865.073 517.902 874.608 525.615 879.989L687.249 992.755C692.444 996.379 698.903 997.701 705.104 996.408L966.766 941.849C971.896 940.779 976.506 937.99 979.835 933.943L1130.83 750.343C1136.09 743.948 1137.51 735.22 1134.54 727.491L1070.93 561.791C1067.97 554.061 1061.07 548.523 1052.89 547.29L817.822 511.885C812.641 511.105 807.348 512.117 802.82 514.755L571.86 649.296C566.387 652.484 562.471 657.788 561.036 663.957L516.374 855.913Z" stroke="url(#paint26_linear_603_1403)" stroke-width="4"/>
<path opacity="0.405797" d="M498.196 838.878C495.621 847.882 498.762 857.548 506.138 863.319L659.994 983.683C664.993 987.593 671.385 989.265 677.658 988.301L938.574 948.226C943.776 947.427 948.547 944.867 952.091 940.975L1110.31 767.161C1115.87 761.051 1117.73 752.428 1115.17 744.571L1060.71 576.965C1058.16 569.108 1051.59 563.224 1043.5 561.55L813.335 513.928C808.18 512.862 802.816 513.595 798.137 516.007L563.496 636.948C557.855 639.856 553.666 644.965 551.921 651.067L498.196 838.878Z" stroke="url(#paint27_linear_603_1403)" stroke-width="4"/>
<path opacity="0.42029" d="M480.98 821.981C477.97 830.807 480.588 840.577 487.607 846.716L633.34 974.175C638.127 978.361 644.433 980.379 650.76 979.749L910.139 953.929C915.4 953.405 920.321 951.084 924.072 947.357L1088.9 783.577C1094.75 777.767 1097.04 769.271 1094.91 761.309L1049.62 592.297C1047.49 584.334 1041.26 578.122 1033.29 576.014L808.649 516.592C803.537 515.239 798.115 515.69 793.296 517.867L555.758 625.195C549.963 627.813 545.511 632.714 543.458 638.732L480.98 821.981Z" stroke="url(#paint28_linear_603_1403)" stroke-width="4"/>
<path opacity="0.434783" d="M464.706 805.277C461.275 813.904 463.367 823.748 470.011 830.234L607.304 964.269C611.863 968.72 618.064 971.081 624.429 970.787L881.501 958.948C886.808 958.704 891.866 956.63 895.817 953.079L1066.65 799.546C1072.77 794.048 1075.49 785.702 1073.78 777.657L1037.66 607.734C1035.95 599.689 1030.07 593.17 1022.25 590.635L803.734 519.861C798.68 518.224 793.216 518.387 788.268 520.322L548.606 614.067C542.672 616.388 537.967 621.066 535.613 626.987L464.706 805.277Z" stroke="url(#paint29_linear_603_1403)" stroke-width="4"/>
<path opacity="0.449275" d="M449.353 788.814C445.513 797.222 447.079 807.112 453.33 813.922L581.901 954.002C586.218 958.706 592.296 961.403 598.68 961.449L852.701 963.278C858.038 963.316 863.222 961.497 867.365 958.133L1043.59 815.023C1049.96 809.85 1053.09 801.675 1051.81 793.571L1024.83 623.229C1023.55 615.124 1018.04 608.317 1010.39 605.366L798.561 523.717C793.58 521.798 788.088 521.67 783.024 523.356L542.001 603.591C535.943 605.608 530.996 610.051 528.344 615.859L449.353 788.814Z" stroke="url(#paint30_linear_603_1403)" stroke-width="4"/>
<path opacity="0.463768" d="M434.896 772.644C430.661 780.812 431.702 790.719 437.543 797.829L557.141 943.412C561.201 948.356 567.138 951.384 573.523 951.771L823.775 966.914C829.128 967.238 834.426 965.681 838.753 962.512L1019.75 829.967C1026.36 825.131 1029.9 817.148 1029.04 809.007L1011.14 638.731C1010.29 630.59 1005.17 623.517 997.703 620.159L793.099 528.143C788.208 525.943 782.702 525.522 777.533 526.952L535.899 593.794C529.733 595.5 524.556 599.696 521.612 605.376L434.896 772.644Z" stroke="url(#paint31_linear_603_1403)" stroke-width="4"/>
<path opacity="0.478261" d="M421.31 756.813C416.695 764.724 417.214 774.619 422.63 782.004L533.036 932.538C536.827 937.707 542.604 941.06 548.973 941.787L794.765 969.855C800.12 970.466 805.519 969.178 810.02 966.215L995.182 844.34C1002 839.85 1005.93 832.08 1005.51 823.925L996.61 654.195C996.183 646.04 991.463 638.723 984.21 634.97L787.323 533.118C782.536 530.642 777.032 529.925 771.771 531.093L530.259 584.699C524.001 586.088 518.606 590.026 515.376 595.563L421.31 756.813Z" stroke="url(#paint32_linear_603_1403)" stroke-width="4"/>
<path opacity="0.492754" d="M408.563 741.366C403.584 749.001 403.584 758.857 408.563 766.493L509.592 921.417C513.101 926.798 518.7 930.466 525.034 931.534L765.709 972.1C771.049 973 776.536 971.987 781.203 969.239L969.911 858.105C976.931 853.971 981.24 846.432 981.24 838.286L981.24 669.572C981.24 661.426 976.931 653.888 969.911 649.754L781.203 538.62C776.536 535.872 771.049 534.858 765.709 535.758L525.034 576.325C518.7 577.393 513.101 581.061 509.592 586.442L408.563 741.366Z" stroke="url(#paint33_linear_603_1403)" stroke-width="4"/>
<path opacity="0.507246" d="M396.625 726.347C391.298 733.69 390.785 743.479 395.315 751.338L486.815 910.088C490.029 915.665 495.434 919.64 501.716 921.047L736.645 973.653C741.957 974.843 747.518 974.11 752.341 971.585L943.986 871.227C951.185 867.458 955.86 860.17 956.285 852.056L965.05 684.819C965.475 676.704 961.587 668.968 954.822 664.467L774.716 544.627C770.185 541.611 764.73 540.301 759.323 540.929L520.182 568.69C513.788 569.432 507.997 572.821 504.217 578.031L396.625 726.347Z" stroke="url(#paint34_linear_603_1403)" stroke-width="4"/>
<path opacity="0.521739" d="M385.462 711.798C379.805 718.833 378.786 728.526 382.857 736.583L464.709 898.59C467.618 904.348 472.811 908.619 479.022 910.362L707.614 974.519C712.881 975.998 718.504 975.55 723.471 973.256L917.451 883.678C924.809 880.28 929.836 873.261 930.683 865.201L948.058 699.89C948.905 691.83 945.448 683.919 938.957 679.066L767.84 551.115C763.458 547.838 758.052 546.231 752.592 546.582L515.656 561.81C509.219 562.224 503.251 565.322 499.208 570.349L385.462 711.798Z" stroke="url(#paint35_linear_603_1403)" stroke-width="4"/>
<path opacity="0.536232" d="M375.037 697.756C369.068 704.467 367.552 714.039 371.155 722.266L443.273 886.96C445.867 892.882 450.832 897.439 456.955 899.515L678.651 974.704C683.86 976.47 689.529 976.312 694.631 974.257L890.35 895.426C897.848 892.407 903.21 885.673 904.474 877.69L930.282 714.744C931.547 706.76 928.528 698.699 922.33 693.511L760.551 558.058C756.333 554.527 750.99 552.624 745.491 552.695L511.411 555.695C504.946 555.778 498.815 558.578 494.519 563.409L375.037 697.756Z" stroke="url(#paint36_linear_603_1403)" stroke-width="4"/>
<path opacity="0.550725" d="M365.314 684.257C359.052 690.631 357.049 700.056 360.176 708.426L422.509 875.236C424.777 881.305 429.5 886.136 435.515 888.541L649.796 974.216C654.93 976.269 660.632 976.404 665.858 974.595L862.73 906.449C870.347 903.812 876.028 897.381 877.704 889.496L911.747 729.339C913.423 721.454 910.849 713.268 904.963 707.761L752.828 565.431C748.79 561.654 743.526 559.457 738.001 559.244L507.399 550.357C500.925 550.107 494.646 552.6 490.105 557.222L365.314 684.257Z" stroke="url(#paint37_linear_603_1403)" stroke-width="4"/>
<path opacity="0.565217" d="M356.253 671.336C349.717 677.36 347.239 686.612 349.886 695.097L402.413 863.455C404.347 869.653 408.811 874.745 414.703 877.474L621.085 973.068C626.13 975.405 631.85 975.835 637.188 974.279L834.639 916.723C842.356 914.474 848.339 908.359 850.419 900.595L892.476 743.636C894.556 735.872 892.433 727.585 886.874 721.778L744.655 573.208C740.81 569.191 735.641 566.704 730.103 566.205L503.575 545.801C497.108 545.218 490.696 547.396 485.922 551.797L356.253 671.336Z" stroke="url(#paint38_linear_603_1403)" stroke-width="4"/>
<path opacity="0.57971" d="M347.812 659.023C341.023 664.686 338.082 673.739 340.245 682.312L382.98 851.654C384.572 857.963 388.763 863.303 394.513 866.35L592.553 971.271C597.493 973.889 603.218 974.617 608.656 973.32L806.125 926.229C813.921 924.37 820.187 918.586 822.664 910.964L872.495 757.598C874.972 749.976 873.302 741.613 868.088 735.527L736.012 581.36C732.374 577.114 727.315 574.338 721.78 573.552L499.891 542.031C493.448 541.115 486.919 542.972 481.922 547.141L347.812 659.023Z" stroke="url(#paint39_linear_603_1403)" stroke-width="4"/>
<path opacity="0.594203" d="M339.95 647.346C332.928 652.638 329.538 661.47 331.215 670.101L364.202 839.869C365.446 846.271 369.349 851.844 374.941 855.201L564.236 968.842C569.056 971.736 574.77 972.764 580.297 971.732L777.237 934.951C785.092 933.484 791.623 928.044 794.487 920.584L851.834 771.19C854.697 763.73 853.484 755.318 848.628 748.971L726.884 589.859C723.467 585.394 718.534 582.335 713.015 581.26L496.301 539.048C489.899 537.801 483.269 539.331 478.061 543.257L339.95 647.346Z" stroke="url(#paint40_linear_603_1403)" stroke-width="4"/>
<path opacity="0.608696" d="M332.62 636.331C325.387 641.242 321.564 649.83 322.754 658.491L346.069 828.135C346.959 834.61 350.562 840.402 355.979 844.061L536.165 965.796C540.851 968.961 546.539 970.29 552.142 969.527L748.023 942.874C755.917 941.8 762.693 936.717 765.933 929.439L830.518 784.378C833.759 777.1 833.002 768.664 828.518 762.078L717.256 598.676C714.073 594.002 709.28 590.664 703.792 589.3L492.757 536.851C486.413 535.275 479.698 536.472 474.29 540.144L332.62 636.331Z" stroke="url(#paint41_linear_603_1403)" stroke-width="4"/>
<path opacity="0.623188" d="M325.781 626.001C318.357 630.523 314.117 638.844 314.822 647.509L328.571 816.486C329.103 823.016 332.394 829.009 337.619 832.962L508.376 962.151C512.912 965.583 518.559 967.213 524.226 966.725L718.535 949.989C726.447 949.308 733.449 944.592 737.054 937.516L808.584 797.132C812.189 790.055 811.889 781.619 807.789 774.817L707.117 607.782C704.181 602.91 699.543 599.299 694.1 597.647L489.216 535.437C482.947 533.533 476.163 534.393 470.568 537.802L325.781 626.001Z" stroke="url(#paint42_linear_603_1403)" stroke-width="4"/>
<path opacity="0.637681" d="M319.386 616.375C311.793 620.501 307.154 628.536 307.377 637.175L311.697 804.955C311.866 811.52 314.833 817.699 319.85 821.936L480.899 957.929C485.271 961.621 490.862 963.551 496.581 963.341L688.822 956.29C696.734 955.999 703.94 951.661 707.898 944.805L786.062 809.421C790.02 802.565 790.174 794.155 786.47 787.159L696.456 617.147C693.778 612.09 689.312 608.212 683.928 606.272L485.631 534.796C479.453 532.57 472.618 533.09 466.848 536.226L319.386 616.375Z" stroke="url(#paint43_linear_603_1403)" stroke-width="4"/>
<path opacity="0.652174" d="M313.388 607.47C305.649 611.195 300.63 618.923 300.374 627.509L295.431 793.576C295.235 800.155 297.868 806.503 302.662 811.013L453.763 953.151C457.957 957.096 463.478 959.325 469.235 959.397L658.936 961.77C666.826 961.869 674.216 957.916 678.513 951.298L762.987 821.22C767.285 814.602 767.89 806.244 764.591 799.076L685.264 626.741C682.857 621.51 678.575 617.374 673.266 615.147L481.957 534.922C475.887 532.376 469.018 532.554 463.087 535.408L313.388 607.47Z" stroke="url(#paint44_linear_603_1403)" stroke-width="4"/>
<path opacity="0.666667" d="M307.74 599.299C299.875 602.62 294.497 610.023 293.769 618.528L279.756 782.377C279.194 788.951 281.481 795.449 286.038 800.221L426.997 947.84C430.998 952.03 436.433 954.556 442.216 954.912L628.924 966.429C636.772 966.913 644.325 963.353 648.947 956.991L739.393 832.503C744.016 826.141 745.067 817.858 742.181 810.543L673.532 636.532C671.406 631.143 667.325 626.754 662.103 624.244L478.151 535.8C472.205 532.941 465.317 532.774 459.239 535.34L307.74 599.299Z" stroke="url(#paint45_linear_603_1403)" stroke-width="4"/>
<path opacity="0.681159" d="M302.396 591.875C294.428 594.787 288.71 601.848 287.519 610.247L264.656 771.39C263.727 777.938 265.661 784.569 269.965 789.59L400.629 942.021C404.424 946.448 409.758 949.268 415.553 949.912L598.837 970.268C606.626 971.133 614.319 967.973 619.25 961.883L715.319 843.248C720.251 837.158 721.742 828.976 719.277 821.538L661.258 646.491C659.423 640.957 655.556 636.326 650.437 633.535L474.17 537.418C468.364 534.252 461.476 533.738 455.264 536.008L302.396 591.875Z" stroke="url(#paint46_linear_603_1403)" stroke-width="4"/>
<path opacity="0.695652" d="M297.308 585.205C289.26 587.707 283.224 594.41 281.578 602.676L250.112 760.643C248.816 767.144 250.39 773.888 254.428 779.146L374.685 935.72C378.26 940.374 383.478 943.486 389.272 944.418L568.725 973.293C576.434 974.534 584.246 971.778 589.471 965.975L690.801 853.437C696.026 847.634 697.95 839.577 695.91 832.039L648.436 656.588C646.903 650.923 643.263 646.058 638.26 642.99L469.973 539.758C464.323 536.292 457.451 535.432 451.121 537.4L297.308 585.205Z" stroke="url(#paint47_linear_603_1403)" stroke-width="4"/>
<path opacity="0.710145" d="M292.429 579.295C284.322 581.385 277.991 587.716 275.9 595.823L236.102 750.162C234.443 756.597 235.648 763.435 239.406 768.915L349.187 928.965C352.529 933.837 357.617 937.236 363.396 938.458L538.635 975.511C546.247 977.12 554.156 974.773 559.657 969.272L665.877 863.051C671.378 857.55 673.726 849.641 672.116 842.03L635.063 666.791C633.841 661.011 630.442 655.923 625.571 652.582L465.52 542.801C460.04 539.042 453.202 537.837 446.767 539.496L292.429 579.295Z" stroke="url(#paint48_linear_603_1403)" stroke-width="4"/>
<path opacity="0.724638" d="M287.712 574.146C279.568 575.826 272.965 581.772 270.442 589.695L222.606 739.973C220.586 746.321 221.416 753.233 224.884 758.921L324.159 921.784C327.255 926.862 332.198 930.544 337.95 932.057L508.616 976.931C516.111 978.902 524.095 976.965 529.855 971.779L640.587 872.076C646.346 866.89 649.107 859.152 647.93 851.492L621.141 677.07C620.238 671.191 617.093 665.891 612.366 662.282L460.772 546.526C455.478 542.483 448.69 540.934 442.166 542.28L287.712 574.146Z" stroke="url(#paint49_linear_603_1403)" stroke-width="4"/>
<path opacity="0.73913" d="M283.108 569.759C274.949 571.03 268.098 576.578 265.158 584.295L209.6 730.1C207.222 736.34 207.674 743.306 210.838 749.187L299.621 914.207C302.458 919.481 307.241 923.44 312.952 925.243L478.712 977.567C486.074 979.891 494.111 978.366 500.11 973.508L614.967 880.499C620.967 875.64 624.129 868.096 623.386 860.412L606.669 687.395C606.093 681.434 603.215 675.933 598.646 672.061L455.691 550.909C450.596 546.591 443.877 544.701 437.279 545.73L283.108 569.759Z" stroke="url(#paint50_linear_603_1403)" stroke-width="4"/>
<path opacity="0.753623" d="M278.574 566.129C270.421 566.995 263.346 572.136 260.002 579.622L197.061 720.566C194.331 726.678 194.4 733.677 197.25 739.735L275.59 906.264C278.158 911.722 282.766 915.953 288.423 918.045L448.971 977.435C456.182 980.102 464.249 978.99 470.469 974.471L589.06 888.31C595.28 883.791 598.831 876.462 598.522 868.779L591.651 697.737C591.409 691.71 588.809 686.02 584.412 681.892L450.242 555.925C445.361 551.343 438.726 549.115 432.069 549.822L278.574 566.129Z" stroke="url(#paint51_linear_603_1403)" stroke-width="4"/>
<path opacity="0.768116" d="M274.062 563.252C265.936 563.716 258.662 568.441 254.932 575.674L184.963 711.39C181.887 717.355 181.571 724.366 184.096 730.584L252.085 897.988C254.371 903.616 258.791 908.112 264.379 910.493L419.434 976.552C426.479 979.553 434.554 978.852 440.976 974.682L562.902 895.502C569.324 891.332 573.249 884.24 573.373 876.584L576.091 708.065C576.189 701.991 573.88 696.125 569.668 691.747L444.391 561.547C439.737 556.711 433.204 554.149 426.503 554.532L274.062 563.252Z" stroke="url(#paint52_linear_603_1403)" stroke-width="4"/>
<path opacity="0.782609" d="M269.527 561.117C261.45 561.186 254.001 565.486 249.903 572.447L173.279 702.593C169.866 708.391 169.162 715.393 171.354 721.754L229.119 889.409C231.113 895.195 235.33 899.948 240.838 902.616L390.146 974.94C397.007 978.264 405.07 977.971 411.672 974.159L536.535 902.07C543.138 898.258 547.422 891.422 547.975 883.817L559.995 718.351C560.438 712.247 558.43 706.218 554.416 701.599L438.105 567.745C433.692 562.666 427.276 559.775 420.548 559.832L269.527 561.117Z" stroke="url(#paint53_linear_603_1403)" stroke-width="4"/>
<path opacity="0.797101" d="M264.926 559.714C256.918 559.393 249.319 563.265 244.872 569.933L161.985 694.191C158.242 699.802 157.151 706.774 159 713.261L206.706 880.562C208.397 886.492 212.398 891.494 217.812 894.447L361.146 972.621C367.81 976.256 375.837 976.368 382.6 972.922L509.997 908.011C516.76 904.565 521.387 898.004 522.364 890.477L543.369 728.567C544.163 722.452 542.467 716.274 538.664 711.421L431.355 574.489C427.195 569.18 420.913 565.965 414.173 565.694L264.926 559.714Z" stroke="url(#paint54_linear_603_1403)" stroke-width="4"/>
<path opacity="0.811594" d="M260.215 559.03C252.295 558.327 244.573 561.765 239.796 568.121L151.05 686.199C146.987 691.605 145.509 698.526 147.009 705.12L184.855 871.479C186.234 877.538 190.005 882.781 195.311 886.016L332.472 969.621C338.924 973.554 346.895 974.067 353.798 970.993L483.326 913.324C490.228 910.251 495.181 903.983 496.575 896.558L526.223 738.684C527.37 732.577 525.997 726.266 522.416 721.187L424.112 581.746C420.215 576.219 414.083 572.687 407.347 572.089L260.215 559.03Z" stroke="url(#paint55_linear_603_1403)" stroke-width="4"/>
<path opacity="0.826087" d="M255.357 559.047C247.544 557.97 239.724 560.972 234.638 567L140.452 678.633C136.08 683.815 134.217 690.663 135.361 697.346L163.581 862.194C164.637 868.367 168.166 873.843 173.352 877.355L304.166 965.967C310.392 970.185 318.287 971.092 325.308 968.397L456.564 918.013C463.584 915.318 468.844 909.361 470.649 902.06L508.57 748.677C510.073 742.597 509.032 736.167 505.686 730.872L416.353 589.483C412.731 583.751 406.765 579.909 400.048 578.984L255.357 559.047Z" stroke="url(#paint56_linear_603_1403)" stroke-width="4"/>
<path opacity="0.84058" d="M250.307 559.747C242.621 558.307 234.728 560.871 229.356 566.555L130.158 671.504C125.489 676.444 123.244 683.197 124.026 689.949L142.885 852.741C143.612 859.013 146.885 864.71 151.937 868.497L276.259 961.689C282.247 966.177 290.045 967.472 297.162 965.159L429.746 922.08C436.863 919.768 442.41 914.137 444.616 906.986L490.419 758.518C492.28 752.485 491.579 745.951 488.48 740.45L408.051 597.664C404.715 591.741 398.93 587.597 392.248 586.345L250.307 559.747Z" stroke="url(#paint57_linear_603_1403)" stroke-width="4"/>
<path opacity="0.855072" d="M245.031 561.11C237.488 559.316 229.549 561.443 223.913 566.768L120.142 664.821C115.188 669.502 112.565 676.139 112.981 682.942L122.776 843.155C123.165 849.509 126.17 855.418 131.076 859.476L248.787 956.817C254.525 961.562 262.205 963.236 269.398 961.309L402.91 925.534C410.103 923.607 415.917 918.318 418.514 911.339L471.784 768.183C474.004 762.216 473.652 755.596 470.811 749.899L399.188 606.254C396.146 600.154 390.556 595.718 383.926 594.141L245.031 561.11Z" stroke="url(#paint58_linear_603_1403)" stroke-width="4"/>
<path opacity="0.869565" d="M239.487 563.111C232.105 560.976 224.144 562.668 218.269 567.621L110.372 658.595C105.147 663 102.152 669.5 102.198 676.333L103.254 833.469C103.297 839.889 106.022 845.999 110.769 850.322L221.777 951.386C227.255 956.372 234.798 958.416 242.043 956.876L376.092 928.383C383.337 926.843 389.397 921.908 392.372 915.125L452.677 777.647C455.256 771.767 455.26 765.077 452.688 759.194L389.739 615.214C387.002 608.953 381.622 604.233 375.058 602.334L239.487 563.111Z" stroke="url(#paint59_linear_603_1403)" stroke-width="4"/>
<path opacity="0.884058" d="M233.641 565.727C226.437 563.262 218.479 564.523 212.389 569.093L100.819 652.83C95.339 656.943 91.978 663.285 91.6514 670.129L84.3199 823.718C84.0111 830.188 86.444 836.487 91.0208 841.069L195.259 945.429C200.466 950.641 207.854 953.044 215.13 951.892L349.325 930.637C356.601 929.485 362.885 924.916 366.226 918.35L433.114 786.887C436.051 781.115 436.418 774.372 434.125 768.315L379.691 624.508C377.265 618.1 372.109 613.107 365.626 610.889L233.641 565.727Z" stroke="url(#paint60_linear_603_1403)" stroke-width="4"/>
<path opacity="0.898551" d="M227.466 568.931C220.454 566.149 212.524 566.983 206.244 571.161L91.4594 647.533C85.7398 651.338 82.0208 657.501 81.3199 664.335L65.9786 813.937C65.3121 820.437 67.4417 826.914 71.8357 831.75L169.264 938.982C174.19 944.405 181.405 947.155 188.691 946.39L322.65 932.31C329.935 931.544 336.421 927.353 340.112 921.025L413.117 795.88C416.409 790.236 417.146 783.458 415.142 777.239L369.032 634.096C366.926 627.557 362.007 622.302 355.621 619.768L227.466 568.931Z" stroke="url(#paint61_linear_603_1403)" stroke-width="4"/>
<path opacity="0.913043" d="M220.923 572.693C214.119 569.609 206.242 570.022 199.797 573.8L82.2581 642.706C76.3157 646.19 72.2476 652.153 71.1722 658.957L48.2213 804.159C47.1919 810.672 49.0073 817.314 53.2066 822.398L143.809 932.084C148.448 937.7 155.472 940.786 162.746 940.405L296.092 933.417C303.366 933.035 310.029 929.231 314.055 923.162L392.696 804.606C396.341 799.111 397.453 792.316 395.748 785.946L357.745 643.938C355.964 637.284 351.295 631.779 345.021 628.935L220.923 572.693Z" stroke="url(#paint62_linear_603_1403)" stroke-width="4"/>
<path opacity="0.927536" d="M213.988 576.983C207.405 573.612 199.603 573.612 193.02 576.983L73.1893 638.351C67.0419 641.499 62.6347 647.243 61.1854 653.996L31.0465 794.418C29.6498 800.925 31.1405 807.719 35.1335 813.043L118.92 924.771C123.263 930.564 130.081 933.973 137.32 933.973L269.688 933.973C276.928 933.973 283.745 930.564 288.089 924.771L371.875 813.043C375.868 807.719 377.359 800.925 375.962 794.418L345.823 653.996C344.374 647.243 339.967 641.499 333.819 638.351L213.988 576.983Z" stroke="url(#paint63_linear_603_1403)" stroke-width="4"/>
<path opacity="0.942029" d="M206.634 581.77C200.285 578.127 192.581 577.723 185.886 580.683L64.2249 634.467C57.8911 637.267 53.1561 642.772 51.3345 649.453L14.4478 784.746C12.6803 791.229 13.8362 798.161 17.6118 803.719L94.6141 917.085C98.6567 923.037 105.251 926.754 112.436 927.131L243.467 933.998C250.652 934.374 257.6 931.367 262.242 925.87L350.673 821.174C355.009 816.041 356.883 809.268 355.803 802.636L333.26 664.228C332.147 657.393 328.013 651.423 322.007 647.977L206.634 581.77Z" stroke="url(#paint64_linear_603_1403)" stroke-width="4"/>
<path opacity="0.956522" d="M198.833 587.02C192.73 583.121 185.147 582.324 178.367 584.869L55.3348 631.053C48.834 633.493 43.7837 638.739 41.5927 645.328L-1.58473 775.177C-3.72587 781.616 -2.91433 788.672 0.632802 794.457L70.9071 909.065C74.6437 915.159 81.0013 919.169 88.1104 919.916L217.457 933.511C224.566 934.258 231.619 931.657 236.54 926.474L329.107 828.981C333.78 824.06 336.041 817.327 335.285 810.583L320.048 674.595C319.275 667.695 315.426 661.513 309.574 657.774L198.833 587.02Z" stroke="url(#paint65_linear_603_1403)" stroke-width="4"/>
<path opacity="0.971014" d="M190.565 592.7C184.718 588.562 177.278 587.383 170.438 589.513L46.492 628.105C39.8445 630.174 34.4923 635.144 31.9359 641.62L-17.0606 765.742C-19.5774 772.117 -19.1194 779.283 -15.8114 785.287L47.8127 900.752C51.2394 906.97 57.3461 911.258 64.359 912.369L191.684 932.535C198.697 933.646 205.83 931.455 211.011 926.6L307.201 836.447C312.203 831.76 314.853 825.086 314.429 818.245L306.187 685.057C305.757 678.108 302.202 671.728 296.519 667.705L190.565 592.7Z" stroke="url(#paint66_linear_603_1403)" stroke-width="4"/>
<path opacity="0.985507" d="M181.811 598.774C176.231 594.413 168.953 592.866 162.081 594.58L37.6715 625.617C30.8983 627.307 25.259 631.981 22.3424 638.323L-31.9895 756.471C-34.8831 762.763 -34.7873 770.025 -31.7288 776.238L25.3442 892.187C28.458 898.512 34.3012 903.061 41.1978 904.527L166.177 931.092C173.074 932.558 180.262 930.779 185.68 926.267L284.979 843.556C290.3 839.124 293.341 832.53 293.257 825.605L291.677 695.572C291.593 688.592 288.342 682.028 282.842 677.729L181.811 598.774Z" stroke="url(#paint67_linear_603_1403)" stroke-width="4"/>
<path d="M172.553 605.206C167.247 600.64 160.152 598.739 153.274 600.04L28.8452 623.583C21.9677 624.884 16.0571 629.247 12.7865 635.435L-46.3869 747.396C-49.6575 753.585 -49.9322 760.926 -47.1332 767.341L3.50782 883.412C6.30686 889.827 11.875 894.619 18.6359 896.43L140.958 929.206C147.719 931.018 154.937 929.652 160.568 925.496L262.46 850.296C268.092 846.14 271.524 839.645 271.786 832.651L276.521 706.103C276.783 699.108 273.845 692.375 268.54 687.809L172.553 605.206Z" stroke="url(#paint68_linear_603_1403)" stroke-width="4"/>
<defs>
<linearGradient id="paint0_linear_603_1403" x1="1326.4" y1="1173.86" x2="1185.39" y2="283.584" gradientUnits="userSpaceOnUse">
<stop stop-color="#E64124"/>
<stop offset="0.572917" stop-color="#3F1BDD"/>
<stop offset="1" stop-color="#3F1BDD"/>
</linearGradient>
<linearGradient id="paint1_linear_603_1403" x1="1286.7" y1="1173.29" x2="1193.31" y2="284.768" gradientUnits="userSpaceOnUse">
<stop stop-color="#E64124"/>
<stop offset="0.572917" stop-color="#3F1BDD"/>
<stop offset="1" stop-color="#3F1BDD"/>
</linearGradient>
<linearGradient id="paint2_linear_603_1403" x1="1247.29" y1="1171.51" x2="1200.94" y2="287.259" gradientUnits="userSpaceOnUse">
<stop stop-color="#E64124"/>
<stop offset="0.572917" stop-color="#3F1BDD"/>
<stop offset="1" stop-color="#3F1BDD"/>
</linearGradient>
<linearGradient id="paint3_linear_603_1403" x1="1208.21" y1="1168.53" x2="1208.21" y2="291.028" gradientUnits="userSpaceOnUse">
<stop stop-color="#E64124"/>
<stop offset="0.572917" stop-color="#3F1BDD"/>
<stop offset="1" stop-color="#3F1BDD"/>
</linearGradient>
<linearGradient id="paint4_linear_603_1403" x1="1169.53" y1="1164.4" x2="1215.04" y2="296.044" gradientUnits="userSpaceOnUse">
<stop stop-color="#E64124"/>
<stop offset="0.572917" stop-color="#3F1BDD"/>
<stop offset="1" stop-color="#3F1BDD"/>
</linearGradient>
<linearGradient id="paint5_linear_603_1403" x1="1131.31" y1="1159.14" x2="1221.38" y2="302.269" gradientUnits="userSpaceOnUse">
<stop stop-color="#E64124"/>
<stop offset="0.572917" stop-color="#3F1BDD"/>
<stop offset="1" stop-color="#3F1BDD"/>
</linearGradient>
<linearGradient id="paint6_linear_603_1403" x1="1093.62" y1="1152.8" x2="1227.15" y2="309.667" gradientUnits="userSpaceOnUse">
<stop stop-color="#E64124"/>
<stop offset="0.572917" stop-color="#3F1BDD"/>
<stop offset="1" stop-color="#3F1BDD"/>
</linearGradient>
<linearGradient id="paint7_linear_603_1403" x1="1056.49" y1="1145.4" x2="1232.32" y2="318.194" gradientUnits="userSpaceOnUse">
<stop stop-color="#E64124"/>
<stop offset="0.572917" stop-color="#3F1BDD"/>
<stop offset="1" stop-color="#3F1BDD"/>
</linearGradient>
<linearGradient id="paint8_linear_603_1403" x1="1019.99" y1="1136.99" x2="1236.81" y2="327.806" gradientUnits="userSpaceOnUse">
<stop stop-color="#E64124"/>
<stop offset="0.572917" stop-color="#3F1BDD"/>
<stop offset="1" stop-color="#3F1BDD"/>
</linearGradient>
<linearGradient id="paint9_linear_603_1403" x1="984.164" y1="1127.62" x2="1240.58" y2="338.456" gradientUnits="userSpaceOnUse">
<stop stop-color="#E64124"/>
<stop offset="0.572917" stop-color="#3F1BDD"/>
<stop offset="1" stop-color="#3F1BDD"/>
</linearGradient>
<linearGradient id="paint10_linear_603_1403" x1="949.058" y1="1117.32" x2="1243.57" y2="350.093" gradientUnits="userSpaceOnUse">
<stop stop-color="#E64124"/>
<stop offset="0.572917" stop-color="#3F1BDD"/>
<stop offset="1" stop-color="#3F1BDD"/>
</linearGradient>
<linearGradient id="paint11_linear_603_1403" x1="914.717" y1="1106.16" x2="1245.74" y2="362.664" gradientUnits="userSpaceOnUse">
<stop stop-color="#E64124"/>
<stop offset="0.572917" stop-color="#3F1BDD"/>
<stop offset="1" stop-color="#3F1BDD"/>
</linearGradient>
<linearGradient id="paint12_linear_603_1403" x1="881.176" y1="1094.18" x2="1247.05" y2="376.116" gradientUnits="userSpaceOnUse">
<stop stop-color="#E64124"/>
<stop offset="0.572917" stop-color="#3F1BDD"/>
<stop offset="1" stop-color="#3F1BDD"/>
</linearGradient>
<linearGradient id="paint13_linear_603_1403" x1="848.48" y1="1081.44" x2="1247.45" y2="390.392" gradientUnits="userSpaceOnUse">
<stop stop-color="#E64124"/>
<stop offset="0.572917" stop-color="#3F1BDD"/>
<stop offset="1" stop-color="#3F1BDD"/>
</linearGradient>
<linearGradient id="paint14_linear_603_1403" x1="816.657" y1="1067.98" x2="1246.92" y2="405.433" gradientUnits="userSpaceOnUse">
<stop stop-color="#E64124"/>
<stop offset="0.572917" stop-color="#3F1BDD"/>
<stop offset="1" stop-color="#3F1BDD"/>
</linearGradient>
<linearGradient id="paint15_linear_603_1403" x1="785.739" y1="1053.86" x2="1245.41" y2="421.18" gradientUnits="userSpaceOnUse">
<stop stop-color="#E64124"/>
<stop offset="0.572917" stop-color="#3F1BDD"/>
<stop offset="1" stop-color="#3F1BDD"/>
</linearGradient>
<linearGradient id="paint16_linear_603_1403" x1="755.752" y1="1039.15" x2="1242.9" y2="437.573" gradientUnits="userSpaceOnUse">
<stop stop-color="#E64124"/>
<stop offset="0.572917" stop-color="#3F1BDD"/>
<stop offset="1" stop-color="#3F1BDD"/>
</linearGradient>
<linearGradient id="paint17_linear_603_1403" x1="726.721" y1="1023.89" x2="1239.36" y2="454.547" gradientUnits="userSpaceOnUse">
<stop stop-color="#E64124"/>
<stop offset="0.572917" stop-color="#3F1BDD"/>
<stop offset="1" stop-color="#3F1BDD"/>
</linearGradient>
<linearGradient id="paint18_linear_603_1403" x1="698.667" y1="1008.15" x2="1234.77" y2="472.042" gradientUnits="userSpaceOnUse">
<stop stop-color="#E64124"/>
<stop offset="0.572917" stop-color="#3F1BDD"/>
<stop offset="1" stop-color="#3F1BDD"/>
</linearGradient>
<linearGradient id="paint19_linear_603_1403" x1="671.603" y1="991.985" x2="1229.12" y2="489.993" gradientUnits="userSpaceOnUse">
<stop stop-color="#E64124"/>
<stop offset="0.572917" stop-color="#3F1BDD"/>
<stop offset="1" stop-color="#3F1BDD"/>
</linearGradient>
<linearGradient id="paint20_linear_603_1403" x1="645.544" y1="975.455" x2="1222.39" y2="508.336" gradientUnits="userSpaceOnUse">
<stop stop-color="#E64124"/>
<stop offset="0.572917" stop-color="#3F1BDD"/>
<stop offset="1" stop-color="#3F1BDD"/>
</linearGradient>
<linearGradient id="paint21_linear_603_1403" x1="620.5" y1="958.62" x2="1214.56" y2="527.007" gradientUnits="userSpaceOnUse">
<stop stop-color="#E64124"/>
<stop offset="0.572917" stop-color="#3F1BDD"/>
<stop offset="1" stop-color="#3F1BDD"/>
</linearGradient>
<linearGradient id="paint22_linear_603_1403" x1="596.477" y1="941.539" x2="1205.64" y2="545.942" gradientUnits="userSpaceOnUse">
<stop stop-color="#E64124"/>
<stop offset="0.572917" stop-color="#3F1BDD"/>
<stop offset="1" stop-color="#3F1BDD"/>
</linearGradient>
<linearGradient id="paint23_linear_603_1403" x1="573.477" y1="924.273" x2="1195.62" y2="565.076" gradientUnits="userSpaceOnUse">
<stop stop-color="#E64124"/>
<stop offset="0.572917" stop-color="#3F1BDD"/>
<stop offset="1" stop-color="#3F1BDD"/>
</linearGradient>
<linearGradient id="paint24_linear_603_1403" x1="551.499" y1="906.879" x2="1184.5" y2="584.348" gradientUnits="userSpaceOnUse">
<stop stop-color="#E64124"/>
<stop offset="0.572917" stop-color="#3F1BDD"/>
<stop offset="1" stop-color="#3F1BDD"/>
</linearGradient>
<linearGradient id="paint25_linear_603_1403" x1="530.539" y1="889.417" x2="1172.29" y2="603.692" gradientUnits="userSpaceOnUse">
<stop stop-color="#E64124"/>
<stop offset="0.572917" stop-color="#3F1BDD"/>
<stop offset="1" stop-color="#3F1BDD"/>
</linearGradient>
<linearGradient id="paint26_linear_603_1403" x1="510.59" y1="871.945" x2="1158.99" y2="623.049" gradientUnits="userSpaceOnUse">
<stop stop-color="#E64124"/>
<stop offset="0.572917" stop-color="#3F1BDD"/>
<stop offset="1" stop-color="#3F1BDD"/>
</linearGradient>
<linearGradient id="paint27_linear_603_1403" x1="491.642" y1="854.518" x2="1144.61" y2="642.356" gradientUnits="userSpaceOnUse">
<stop stop-color="#E64124"/>
<stop offset="0.572917" stop-color="#3F1BDD"/>
<stop offset="1" stop-color="#3F1BDD"/>
</linearGradient>
<linearGradient id="paint28_linear_603_1403" x1="473.68" y1="837.193" x2="1129.17" y2="661.554" gradientUnits="userSpaceOnUse">
<stop stop-color="#E64124"/>
<stop offset="0.572917" stop-color="#3F1BDD"/>
<stop offset="1" stop-color="#3F1BDD"/>
</linearGradient>
<linearGradient id="paint29_linear_603_1403" x1="456.689" y1="820.023" x2="1112.69" y2="680.585" gradientUnits="userSpaceOnUse">
<stop stop-color="#E64124"/>
<stop offset="0.572917" stop-color="#3F1BDD"/>
<stop offset="1" stop-color="#3F1BDD"/>
</linearGradient>
<linearGradient id="paint30_linear_603_1403" x1="440.647" y1="803.062" x2="1095.19" y2="699.392" gradientUnits="userSpaceOnUse">
<stop stop-color="#E64124"/>
<stop offset="0.572917" stop-color="#3F1BDD"/>
<stop offset="1" stop-color="#3F1BDD"/>
</linearGradient>
<linearGradient id="paint31_linear_603_1403" x1="425.533" y1="786.36" x2="1076.69" y2="717.92" gradientUnits="userSpaceOnUse">
<stop stop-color="#E64124"/>
<stop offset="0.572917" stop-color="#3F1BDD"/>
<stop offset="1" stop-color="#3F1BDD"/>
</linearGradient>
<linearGradient id="paint32_linear_603_1403" x1="411.321" y1="769.967" x2="1057.23" y2="736.116" gradientUnits="userSpaceOnUse">
<stop stop-color="#E64124"/>
<stop offset="0.572917" stop-color="#3F1BDD"/>
<stop offset="1" stop-color="#3F1BDD"/>
</linearGradient>
<linearGradient id="paint33_linear_603_1403" x1="397.983" y1="753.929" x2="1036.82" y2="753.929" gradientUnits="userSpaceOnUse">
<stop stop-color="#E64124"/>
<stop offset="0.572917" stop-color="#3F1BDD"/>
<stop offset="1" stop-color="#3F1BDD"/>
</linearGradient>
<linearGradient id="paint34_linear_603_1403" x1="385.488" y1="738.293" x2="1015.5" y2="771.311" gradientUnits="userSpaceOnUse">
<stop stop-color="#E64124"/>
<stop offset="0.572917" stop-color="#3F1BDD"/>
<stop offset="1" stop-color="#3F1BDD"/>
</linearGradient>
<linearGradient id="paint35_linear_603_1403" x1="373.805" y1="723.102" x2="993.318" y2="788.216" gradientUnits="userSpaceOnUse">
<stop stop-color="#E64124"/>
<stop offset="0.572917" stop-color="#3F1BDD"/>
<stop offset="1" stop-color="#3F1BDD"/>
</linearGradient>
<linearGradient id="paint36_linear_603_1403" x1="362.898" y1="708.396" x2="970.296" y2="804.598" gradientUnits="userSpaceOnUse">
<stop stop-color="#E64124"/>
<stop offset="0.572917" stop-color="#3F1BDD"/>
<stop offset="1" stop-color="#3F1BDD"/>
</linearGradient>
<linearGradient id="paint37_linear_603_1403" x1="352.73" y1="694.213" x2="946.48" y2="820.418" gradientUnits="userSpaceOnUse">
<stop stop-color="#E64124"/>
<stop offset="0.572917" stop-color="#3F1BDD"/>
<stop offset="1" stop-color="#3F1BDD"/>
</linearGradient>
<linearGradient id="paint38_linear_603_1403" x1="343.264" y1="680.589" x2="921.911" y2="835.637" gradientUnits="userSpaceOnUse">
<stop stop-color="#E64124"/>
<stop offset="0.572917" stop-color="#3F1BDD"/>
<stop offset="1" stop-color="#3F1BDD"/>
</linearGradient>
<linearGradient id="paint39_linear_603_1403" x1="334.459" y1="667.558" x2="896.631" y2="850.219" gradientUnits="userSpaceOnUse">
<stop stop-color="#E64124"/>
<stop offset="0.572917" stop-color="#3F1BDD"/>
<stop offset="1" stop-color="#3F1BDD"/>
</linearGradient>
<linearGradient id="paint40_linear_603_1403" x1="326.273" y1="655.15" x2="870.688" y2="864.131" gradientUnits="userSpaceOnUse">
<stop stop-color="#E64124"/>
<stop offset="0.572917" stop-color="#3F1BDD"/>
<stop offset="1" stop-color="#3F1BDD"/>
</linearGradient>
<linearGradient id="paint41_linear_603_1403" x1="318.66" y1="643.392" x2="844.124" y2="877.344" gradientUnits="userSpaceOnUse">
<stop stop-color="#E64124"/>
<stop offset="0.572917" stop-color="#3F1BDD"/>
<stop offset="1" stop-color="#3F1BDD"/>
</linearGradient>
<linearGradient id="paint42_linear_603_1403" x1="311.579" y1="632.31" x2="816.99" y2="889.83" gradientUnits="userSpaceOnUse">
<stop stop-color="#E64124"/>
<stop offset="0.572917" stop-color="#3F1BDD"/>
<stop offset="1" stop-color="#3F1BDD"/>
</linearGradient>
<linearGradient id="paint43_linear_603_1403" x1="304.983" y1="621.926" x2="789.335" y2="901.567" gradientUnits="userSpaceOnUse">
<stop stop-color="#E64124"/>
<stop offset="0.572917" stop-color="#3F1BDD"/>
<stop offset="1" stop-color="#3F1BDD"/>
</linearGradient>
<linearGradient id="paint44_linear_603_1403" x1="298.827" y1="612.259" x2="761.207" y2="912.532" gradientUnits="userSpaceOnUse">
<stop stop-color="#E64124"/>
<stop offset="0.572917" stop-color="#3F1BDD"/>
<stop offset="1" stop-color="#3F1BDD"/>
</linearGradient>
<linearGradient id="paint45_linear_603_1403" x1="293.062" y1="603.325" x2="732.657" y2="922.709" gradientUnits="userSpaceOnUse">
<stop stop-color="#E64124"/>
<stop offset="0.572917" stop-color="#3F1BDD"/>
<stop offset="1" stop-color="#3F1BDD"/>
</linearGradient>
<linearGradient id="paint46_linear_603_1403" x1="287.643" y1="595.138" x2="703.737" y2="932.084" gradientUnits="userSpaceOnUse">
<stop stop-color="#E64124"/>
<stop offset="0.572917" stop-color="#3F1BDD"/>
<stop offset="1" stop-color="#3F1BDD"/>
</linearGradient>
<linearGradient id="paint47_linear_603_1403" x1="282.52" y1="587.707" x2="674.498" y2="940.645" gradientUnits="userSpaceOnUse">
<stop stop-color="#E64124"/>
<stop offset="0.572917" stop-color="#3F1BDD"/>
<stop offset="1" stop-color="#3F1BDD"/>
</linearGradient>
<linearGradient id="paint48_linear_603_1403" x1="277.647" y1="581.041" x2="644.99" y2="948.385" gradientUnits="userSpaceOnUse">
<stop stop-color="#E64124"/>
<stop offset="0.572917" stop-color="#3F1BDD"/>
<stop offset="1" stop-color="#3F1BDD"/>
</linearGradient>
<linearGradient id="paint49_linear_603_1403" x1="272.975" y1="575.144" x2="615.267" y2="955.297" gradientUnits="userSpaceOnUse">
<stop stop-color="#E64124"/>
<stop offset="0.572917" stop-color="#3F1BDD"/>
<stop offset="1" stop-color="#3F1BDD"/>
</linearGradient>
<linearGradient id="paint50_linear_603_1403" x1="268.457" y1="570.018" x2="585.378" y2="961.382" gradientUnits="userSpaceOnUse">
<stop stop-color="#E64124"/>
<stop offset="0.572917" stop-color="#3F1BDD"/>
<stop offset="1" stop-color="#3F1BDD"/>
</linearGradient>
<linearGradient id="paint51_linear_603_1403" x1="264.047" y1="565.661" x2="555.374" y2="966.639" gradientUnits="userSpaceOnUse">
<stop stop-color="#E64124"/>
<stop offset="0.572917" stop-color="#3F1BDD"/>
<stop offset="1" stop-color="#3F1BDD"/>
</linearGradient>
<linearGradient id="paint52_linear_603_1403" x1="259.696" y1="562.07" x2="525.305" y2="971.073" gradientUnits="userSpaceOnUse">
<stop stop-color="#E64124"/>
<stop offset="0.572917" stop-color="#3F1BDD"/>
<stop offset="1" stop-color="#3F1BDD"/>
</linearGradient>
<linearGradient id="paint53_linear_603_1403" x1="255.359" y1="559.237" x2="495.221" y2="974.691" gradientUnits="userSpaceOnUse">
<stop stop-color="#E64124"/>
<stop offset="0.572917" stop-color="#3F1BDD"/>
<stop offset="1" stop-color="#3F1BDD"/>
</linearGradient>
<linearGradient id="paint54_linear_603_1403" x1="250.991" y1="557.154" x2="465.17" y2="977.503" gradientUnits="userSpaceOnUse">
<stop stop-color="#E64124"/>
<stop offset="0.572917" stop-color="#3F1BDD"/>
<stop offset="1" stop-color="#3F1BDD"/>
</linearGradient>
<linearGradient id="paint55_linear_603_1403" x1="246.548" y1="555.809" x2="435.197" y2="979.523" gradientUnits="userSpaceOnUse">
<stop stop-color="#E64124"/>
<stop offset="0.572917" stop-color="#3F1BDD"/>
<stop offset="1" stop-color="#3F1BDD"/>
</linearGradient>
<linearGradient id="paint56_linear_603_1403" x1="241.989" y1="555.186" x2="405.354" y2="980.766" gradientUnits="userSpaceOnUse">
<stop stop-color="#E64124"/>
<stop offset="0.572917" stop-color="#3F1BDD"/>
<stop offset="1" stop-color="#3F1BDD"/>
</linearGradient>
<linearGradient id="paint57_linear_603_1403" x1="237.271" y1="555.269" x2="375.68" y2="981.249" gradientUnits="userSpaceOnUse">
<stop stop-color="#E64124"/>
<stop offset="0.572917" stop-color="#3F1BDD"/>
<stop offset="1" stop-color="#3F1BDD"/>
</linearGradient>
<linearGradient id="paint58_linear_603_1403" x1="232.355" y1="556.04" x2="346.222" y2="980.995" gradientUnits="userSpaceOnUse">
<stop stop-color="#E64124"/>
<stop offset="0.572917" stop-color="#3F1BDD"/>
<stop offset="1" stop-color="#3F1BDD"/>
</linearGradient>
<linearGradient id="paint59_linear_603_1403" x1="227.2" y1="557.475" x2="317.016" y2="980.025" gradientUnits="userSpaceOnUse">
<stop stop-color="#E64124"/>
<stop offset="0.572917" stop-color="#3F1BDD"/>
<stop offset="1" stop-color="#3F1BDD"/>
</linearGradient>
<linearGradient id="paint60_linear_603_1403" x1="221.77" y1="559.552" x2="288.104" y2="978.366" gradientUnits="userSpaceOnUse">
<stop stop-color="#E64124"/>
<stop offset="0.572917" stop-color="#3F1BDD"/>
<stop offset="1" stop-color="#3F1BDD"/>
</linearGradient>
<linearGradient id="paint61_linear_603_1403" x1="216.035" y1="562.245" x2="259.527" y2="976.044" gradientUnits="userSpaceOnUse">
<stop stop-color="#E64124"/>
<stop offset="0.572917" stop-color="#3F1BDD"/>
<stop offset="1" stop-color="#3F1BDD"/>
</linearGradient>
<linearGradient id="paint62_linear_603_1403" x1="209.956" y1="565.526" x2="231.315" y2="973.091" gradientUnits="userSpaceOnUse">
<stop stop-color="#E64124"/>
<stop offset="0.572917" stop-color="#3F1BDD"/>
<stop offset="1" stop-color="#3F1BDD"/>
</linearGradient>
<linearGradient id="paint63_linear_603_1403" x1="203.504" y1="569.367" x2="203.504" y2="969.535" gradientUnits="userSpaceOnUse">
<stop stop-color="#E64124"/>
<stop offset="0.572917" stop-color="#3F1BDD"/>
<stop offset="1" stop-color="#3F1BDD"/>
</linearGradient>
<linearGradient id="paint64_linear_603_1403" x1="196.652" y1="573.736" x2="176.126" y2="965.411" gradientUnits="userSpaceOnUse">
<stop stop-color="#E64124"/>
<stop offset="0.572917" stop-color="#3F1BDD"/>
<stop offset="1" stop-color="#3F1BDD"/>
</linearGradient>
<linearGradient id="paint65_linear_603_1403" x1="189.372" y1="578.602" x2="149.206" y2="960.754" gradientUnits="userSpaceOnUse">
<stop stop-color="#E64124"/>
<stop offset="0.572917" stop-color="#3F1BDD"/>
<stop offset="1" stop-color="#3F1BDD"/>
</linearGradient>
<linearGradient id="paint66_linear_603_1403" x1="181.638" y1="583.931" x2="122.772" y2="955.599" gradientUnits="userSpaceOnUse">
<stop stop-color="#E64124"/>
<stop offset="0.572917" stop-color="#3F1BDD"/>
<stop offset="1" stop-color="#3F1BDD"/>
</linearGradient>
<linearGradient id="paint67_linear_603_1403" x1="173.432" y1="589.687" x2="96.8487" y2="949.984" gradientUnits="userSpaceOnUse">
<stop stop-color="#E64124"/>
<stop offset="0.572917" stop-color="#3F1BDD"/>
<stop offset="1" stop-color="#3F1BDD"/>
</linearGradient>
<linearGradient id="paint68_linear_603_1403" x1="164.732" y1="595.837" x2="71.4561" y2="943.946" gradientUnits="userSpaceOnUse">
<stop stop-color="#E64124"/>
<stop offset="0.572917" stop-color="#3F1BDD"/>
<stop offset="1" stop-color="#3F1BDD"/>
</linearGradient>
</defs>
</svg>
